<?xml version="1.0" encoding="utf-8"?>
<!-- Generator: Adobe Illustrator 16.0.3, SVG Export Plug-In . SVG Version: 6.00 Build 0)  -->
<!DOCTYPE svg PUBLIC "-//W3C//DTD SVG 1.1//EN" "http://www.w3.org/Graphics/SVG/1.1/DTD/svg11.dtd">
<svg version="1.1" xmlns="http://www.w3.org/2000/svg" xmlns:xlink="http://www.w3.org/1999/xlink" x="0px" y="0px" width="40px"
	 height="40px" viewBox="0 0 40 40" enable-background="new 0 0 40 40" xml:space="preserve">
<g id="exports">
	<g id="arrow_x5F_left_2_">
		<g>
			<path fill="#000433" d="M3.301,6.251c0,0,0.386-0.328,1.155-0.887c0.771-0.559,1.937-1.347,3.562-2.093
				c1.621-0.748,3.687-1.48,6.158-1.906c2.465-0.403,5.351-0.521,8.41,0.117c3.041,0.618,6.292,2.015,8.963,4.502
				c1.323,1.224,2.502,2.767,3.416,4.365c0.965,1.642,1.769,3.392,2.342,5.288c1.159,3.752,1.335,8.103-0.149,12.082
				c-1.438,3.981-4.437,7.392-8.112,9.516c-3.653,2.166-8.14,3.107-12.312,2.211c-4.186-0.875-7.727-3.534-10.04-6.709
				c-2.319-3.205-3.793-6.732-4.493-10.252c-0.694-3.513-0.52-7.005,0.438-9.989c0.957-2.989,2.678-5.398,4.54-7.077
				c1.849-1.714,3.796-2.758,5.413-3.495c1.629-0.733,2.982-1.105,3.896-1.36C17.408,0.337,17.9,0.216,17.9,0.216
				s-0.483,0.151-1.388,0.437c-0.896,0.307-2.208,0.777-3.774,1.582c-1.557,0.801-3.412,1.917-5.111,3.651
				C5.906,7.585,4.41,9.952,3.624,12.792c-0.803,2.833-0.856,6.12-0.087,9.412c0.735,3.281,2.231,6.657,4.472,9.528
				c2.218,2.875,5.416,5.159,9.104,5.853c3.667,0.745,7.639-0.085,10.922-2.063c3.317-1.94,6.012-4.938,7.308-8.473
				c1.316-3.525,1.307-7.424,0.29-10.92c-0.496-1.749-1.22-3.431-2.049-4.97c-0.849-1.603-1.843-2.946-3.035-4.129
				c-2.387-2.326-5.339-3.781-8.208-4.47c-2.877-0.698-5.651-0.766-8.065-0.492c-2.418,0.286-4.479,0.895-6.11,1.545
				c-1.63,0.657-2.854,1.328-3.651,1.835C3.71,5.95,3.301,6.251,3.301,6.251z"/>
		</g>
		<g>
			<path fill="#000433" d="M11.964,29.25c0.391-0.672,0.881-1.307,1.408-1.888c0.523-0.59,1.097-1.131,1.675-1.665
				c1.178-1.044,2.418-2.012,3.707-2.901c1.277-0.909,2.61-1.729,3.952-2.53c1.346-0.802,2.719-1.522,4.127-2.244l-0.033,1.771
				c-1.287-0.682-2.543-1.402-3.811-2.111c-1.245-0.749-2.503-1.474-3.723-2.269c-1.229-0.779-2.436-1.597-3.62-2.452
				c-0.584-0.439-1.17-0.877-1.736-1.347c-0.28-0.238-0.56-0.477-0.829-0.729c-0.262-0.258-0.533-0.522-0.725-0.837
				c0.27,0.245,0.589,0.415,0.908,0.587c0.313,0.177,0.636,0.342,0.958,0.504l1.944,0.963l3.883,1.932
				c1.298,0.637,2.57,1.321,3.862,1.97l3.824,2.035l1.742,0.927l-1.775,0.845c-1.368,0.65-2.729,1.384-4.089,2.085
				c-1.364,0.705-2.702,1.454-4.044,2.194c-1.33,0.762-2.659,1.526-3.941,2.364C14.344,27.29,13.083,28.164,11.964,29.25z"/>
		</g>
	</g>
</g>
<g id="home">
</g>
<g id="view">
	<g id="month">
	</g>
	<g id="selection">
	</g>
</g>
<g id="new">
	<g id="new_with_add">
	</g>
	<g id="new_with_more">
	</g>
	<g id="new_with_less">
	</g>
	<g id="new_sub">
	</g>
	<g id="new_description">
	</g>
	<g id="new_desc_w_milestone">
	</g>
</g>
</svg>
