<?xml version="1.0" encoding="utf-8"?>
<!-- Generator: Adobe Illustrator 16.0.3, SVG Export Plug-In . SVG Version: 6.00 Build 0)  -->
<!DOCTYPE svg PUBLIC "-//W3C//DTD SVG 1.1//EN" "http://www.w3.org/Graphics/SVG/1.1/DTD/svg11.dtd">
<svg version="1.1" xmlns="http://www.w3.org/2000/svg" xmlns:xlink="http://www.w3.org/1999/xlink" x="0px" y="0px" width="40px"
	 height="40px" viewBox="0 0 40 40" enable-background="new 0 0 40 40" xml:space="preserve">
<g id="exports">
	<g id="arrow_x5F_left_3_">
		<g>
			<path fill="#000433" d="M33.749,3.301c0,0,0.328,0.386,0.887,1.155c0.558,0.771,1.346,1.937,2.093,3.562
				c0.747,1.62,1.48,3.687,1.905,6.158c0.404,2.465,0.522,5.35-0.117,8.409c-0.618,3.041-2.015,6.292-4.501,8.963
				c-1.224,1.323-2.768,2.503-4.366,3.416c-1.642,0.966-3.392,1.77-5.288,2.342c-3.752,1.158-8.102,1.335-12.082-0.149
				c-3.982-1.438-7.393-4.438-9.517-8.111c-2.166-3.653-3.107-8.141-2.21-12.313c0.875-4.186,3.534-7.727,6.708-10.04
				c3.206-2.319,6.733-3.793,10.253-4.493c3.512-0.694,7.004-0.52,9.988,0.438c2.99,0.957,5.399,2.678,7.077,4.54
				c1.714,1.85,2.759,3.796,3.496,5.413c0.733,1.629,1.106,2.981,1.361,3.896c0.227,0.923,0.347,1.415,0.347,1.415
				s-0.152-0.482-0.436-1.388c-0.307-0.896-0.778-2.209-1.583-3.775c-0.801-1.557-1.917-3.411-3.651-5.11
				c-1.699-1.721-4.066-3.217-6.906-4.003c-2.833-0.803-6.12-0.855-9.412-0.087c-3.281,0.735-6.657,2.231-9.528,4.472
				c-2.875,2.218-5.16,5.415-5.853,9.104C1.67,20.78,2.5,24.752,4.478,28.036c1.941,3.316,4.939,6.012,8.474,7.308
				c3.525,1.316,7.423,1.307,10.92,0.289c1.749-0.496,3.431-1.22,4.97-2.049c1.602-0.85,2.946-1.843,4.128-3.036
				c2.327-2.386,3.781-5.339,4.47-8.207c0.698-2.878,0.766-5.652,0.492-8.065c-0.286-2.418-0.894-4.479-1.545-6.109
				c-0.658-1.631-1.329-2.854-1.835-3.651C34.05,3.71,33.749,3.301,33.749,3.301z"/>
		</g>
		<g>
			<path fill="#000433" d="M10.75,11.964c0.672,0.391,1.306,0.881,1.888,1.407c0.59,0.523,1.13,1.098,1.666,1.676
				c1.043,1.177,2.011,2.418,2.901,3.706c0.908,1.278,1.728,2.61,2.529,3.952c0.802,1.346,1.523,2.719,2.244,4.128L20.207,26.8
				c0.682-1.287,1.403-2.544,2.112-3.812c0.749-1.245,1.474-2.503,2.268-3.723c0.779-1.229,1.597-2.436,2.452-3.619
				c0.44-0.585,0.877-1.171,1.347-1.736c0.238-0.28,0.477-0.56,0.729-0.829c0.257-0.262,0.522-0.533,0.836-0.725
				c-0.246,0.27-0.415,0.589-0.586,0.908c-0.177,0.313-0.342,0.636-0.505,0.958l-0.963,1.943l-1.931,3.883
				c-0.637,1.299-1.322,2.57-1.969,3.862l-2.035,3.824l-0.927,1.742l-0.845-1.775c-0.651-1.367-1.383-2.729-2.085-4.089
				c-0.704-1.364-1.453-2.702-2.194-4.045c-0.762-1.329-1.526-2.658-2.364-3.94C12.71,14.344,11.836,13.083,10.75,11.964z"/>
		</g>
	</g>
</g>
<g id="home">
</g>
<g id="view">
	<g id="month">
	</g>
	<g id="selection">
	</g>
</g>
<g id="new">
	<g id="new_with_add">
	</g>
	<g id="new_with_more">
	</g>
	<g id="new_with_less">
	</g>
	<g id="new_sub">
	</g>
	<g id="new_description">
	</g>
	<g id="new_desc_w_milestone">
	</g>
</g>
</svg>
