<?xml version="1.0" encoding="utf-8"?>
<!-- Generator: Adobe Illustrator 16.0.3, SVG Export Plug-In . SVG Version: 6.00 Build 0)  -->
<!DOCTYPE svg PUBLIC "-//W3C//DTD SVG 1.1//EN" "http://www.w3.org/Graphics/SVG/1.1/DTD/svg11.dtd">
<svg version="1.1" xmlns="http://www.w3.org/2000/svg" xmlns:xlink="http://www.w3.org/1999/xlink" x="0px" y="0px" width="40px"
	 height="40px" viewBox="0 0 40 40" enable-background="new 0 0 40 40" xml:space="preserve">
<g id="exports">
	<g id="arrow_x5F_left_1_">
		<g>
			<path fill="#000433" d="M5.897,37.021c0,0-0.328-0.386-0.887-1.155c-0.558-0.771-1.346-1.937-2.093-3.562
				c-0.747-1.62-1.48-3.687-1.905-6.158c-0.404-2.464-0.522-5.35,0.117-8.409c0.618-3.041,2.015-6.292,4.501-8.963
				C6.854,7.45,8.398,6.271,9.996,5.357c1.642-0.965,3.392-1.77,5.288-2.342c3.752-1.158,8.102-1.335,12.082,0.149
				c3.982,1.438,7.393,4.438,9.517,8.111c2.166,3.653,3.107,8.141,2.21,12.313c-0.875,4.186-3.534,7.727-6.708,10.04
				c-3.206,2.319-6.733,3.793-10.253,4.493c-3.512,0.694-7.004,0.52-9.988-0.438c-2.99-0.957-5.399-2.678-7.077-4.54
				c-1.714-1.85-2.759-3.796-3.496-5.413c-0.733-1.629-1.106-2.981-1.361-3.896c-0.227-0.923-0.347-1.415-0.347-1.415
				s0.152,0.482,0.436,1.388c0.307,0.896,0.778,2.209,1.583,3.775c0.801,1.557,1.917,3.411,3.651,5.11
				c1.699,1.721,4.066,3.217,6.906,4.003c2.833,0.803,6.12,0.855,9.412,0.087c3.281-0.735,6.657-2.231,9.528-4.472
				c2.875-2.218,5.16-5.415,5.853-9.104c0.745-3.667-0.085-7.639-2.063-10.923c-1.941-3.316-4.939-6.012-8.474-7.308
				c-3.525-1.315-7.423-1.307-10.92-0.289c-1.749,0.496-3.431,1.22-4.97,2.05C9.203,7.587,7.859,8.58,6.677,9.773
				c-2.327,2.387-3.781,5.339-4.47,8.207c-0.698,2.878-0.766,5.652-0.492,8.065c0.286,2.418,0.894,4.479,1.545,6.109
				c0.657,1.631,1.329,2.854,1.835,3.651C5.597,36.611,5.897,37.021,5.897,37.021z"/>
		</g>
		<g>
			<path fill="#000433" d="M28.896,28.357c-0.672-0.391-1.306-0.881-1.888-1.407c-0.59-0.523-1.131-1.098-1.666-1.676
				c-1.043-1.177-2.011-2.417-2.901-3.706c-0.908-1.278-1.728-2.61-2.529-3.952c-0.802-1.346-1.523-2.72-2.244-4.128l1.771,0.033
				c-0.682,1.287-1.403,2.544-2.112,3.812c-0.749,1.245-1.474,2.503-2.268,3.723c-0.779,1.229-1.597,2.436-2.452,3.619
				c-0.44,0.585-0.877,1.171-1.347,1.736c-0.238,0.28-0.477,0.56-0.729,0.829c-0.257,0.262-0.522,0.533-0.836,0.725
				c0.246-0.27,0.415-0.589,0.586-0.908c0.177-0.313,0.342-0.636,0.505-0.958l0.963-1.943l1.931-3.883
				c0.637-1.299,1.322-2.57,1.969-3.862l2.035-3.824l0.927-1.742l0.845,1.775c0.651,1.367,1.383,2.729,2.085,4.089
				c0.704,1.364,1.453,2.702,2.194,4.045c0.762,1.329,1.526,2.658,2.364,3.94C26.937,25.978,27.81,27.238,28.896,28.357z"/>
		</g>
	</g>
</g>
<g id="home">
</g>
<g id="view">
	<g id="month">
	</g>
	<g id="selection">
	</g>
</g>
<g id="new">
	<g id="new_with_add">
	</g>
	<g id="new_with_more">
	</g>
	<g id="new_with_less">
	</g>
	<g id="new_sub">
	</g>
	<g id="new_description">
	</g>
	<g id="new_desc_w_milestone">
	</g>
</g>
</svg>
