<?xml version="1.0" encoding="utf-8"?>
<!-- Generator: Adobe Illustrator 16.0.3, SVG Export Plug-In . SVG Version: 6.00 Build 0)  -->
<!DOCTYPE svg PUBLIC "-//W3C//DTD SVG 1.1//EN" "http://www.w3.org/Graphics/SVG/1.1/DTD/svg11.dtd">
<svg version="1.1" xmlns="http://www.w3.org/2000/svg" xmlns:xlink="http://www.w3.org/1999/xlink" x="0px" y="0px" width="95px"
	 height="95px" viewBox="0 0 95 95" enable-background="new 0 0 95 95" xml:space="preserve">

<g id="exports">
	<g id="cancel">
		<g>
			<path fill="#000433" d="M69.155,28.27c0,0-0.507,0.716-1.478,1.883c-0.969,1.169-2.397,2.793-4.194,4.656
				c-0.91,0.919-1.885,1.927-2.98,2.926c-1.07,1.021-2.391,1.92-3.671,2.92c-1.31,0.973-2.608,2.03-3.862,3.179
				c-1.252,1.15-2.483,2.365-3.741,3.558c-1.24,1.211-2.473,2.439-3.75,3.571c-1.32,1.083-2.619,2.149-3.877,3.181
				c-0.621,0.528-1.263,1.002-1.891,1.461c-0.622,0.469-1.244,0.91-1.856,1.33c-1.202,0.845-2.339,1.644-3.389,2.38
				c-0.545,0.348-1.017,0.724-1.461,1.089c-0.456,0.356-0.889,0.694-1.295,1.013c-0.855,0.599-1.453,1.279-2.022,1.77
				c-1.104,1.016-1.775,1.586-1.774,1.586l-0.158-0.123c0.001,0,0.462-0.73,1.337-1.993c0.451-0.619,0.936-1.438,1.707-2.184
				c0.371-0.39,0.765-0.805,1.181-1.242c0.419-0.438,0.863-0.897,1.37-1.307c1.001-0.831,2.088-1.789,3.268-2.666
				c1.157-0.921,2.451-1.809,3.737-2.768c1.304-0.943,2.65-1.918,4.019-2.908c1.328-1.044,2.743-2.026,4.149-3.026
				c0.698-0.508,1.396-1.015,2.092-1.52c0.677-0.529,1.316-1.095,1.95-1.657c1.265-1.129,2.443-2.313,3.532-3.51
				c1.097-1.191,2.164-2.315,3.188-3.394c1.033-1.063,2.07-2.007,3.019-2.887c1.919-1.737,3.586-3.114,4.786-4.044
				c1.195-0.935,1.928-1.418,1.928-1.418L69.155,28.27z"/>
		</g>
		<g>
			<path fill="#000433" d="M30.344,28.197c0,0,2.438,2.096,5.915,5.406c1.749,1.645,3.749,3.604,5.878,5.713
				c1.057,1.063,2.169,2.141,3.261,3.272c1.102,1.124,2.22,2.265,3.339,3.405c2.207,2.312,4.421,4.615,6.468,6.802
				c1.032,1.084,2.006,2.156,2.934,3.17c0.941,0.998,1.82,1.952,2.627,2.839c0.813,0.88,1.545,1.702,2.192,2.433
				c0.666,0.709,1.246,1.326,1.725,1.836c0.945,1.041,1.485,1.636,1.485,1.636s-0.637-0.487-1.751-1.34
				c-0.552-0.438-1.221-0.971-1.989-1.581c-0.739-0.638-1.573-1.359-2.467-2.164c-1.811-1.586-3.864-3.496-6.011-5.593
				c-1.069-1.053-2.206-2.11-3.303-3.241c-1.104-1.123-2.226-2.265-3.347-3.405c-1.104-1.158-2.206-2.317-3.292-3.458
				c-1.088-1.139-2.12-2.296-3.139-3.396c-2.029-2.21-3.875-4.316-5.438-6.14C32.295,30.752,30.344,28.197,30.344,28.197z"/>
		</g>
		<g>
			<path fill="#000433" d="M83.501,23.64c0,0,0.381,1.062,1.096,3.052c0.693,1.998,1.695,4.94,2.639,8.783
				c0.919,3.839,1.897,8.591,1.915,14.148c-0.004,2.771-0.267,5.74-0.997,8.786c-0.711,3.049-1.974,6.137-3.719,9.104
				c-1.779,2.945-4.067,5.75-6.771,8.275c-2.707,2.525-5.784,4.814-9.109,6.883c-3.311,2.043-7.015,3.865-10.934,5.159
				c-3.941,1.269-8.153,2.083-12.479,2.157c-4.322,0.11-8.733-0.534-12.981-1.873c-4.229-1.39-8.31-3.444-11.936-6.184
				c-1.818-1.358-3.538-2.862-5.143-4.49c-1.591-1.64-3.062-3.403-4.405-5.263c-1.354-1.867-2.546-3.807-3.587-5.871
				c-1.052-2.069-1.939-4.193-2.648-6.398c-1.39-4.407-2.004-9.079-1.685-13.687c0.295-4.612,1.594-9.111,3.572-13.198
				c4.013-8.212,10.701-14.581,17.887-19.156c7.171-4.728,15.42-7.276,23.287-7.468c7.881-0.241,15.322,1.854,21.209,5.354
				c5.917,3.509,10.253,8.256,13.283,12.861c3.052,4.628,4.871,9.134,6.107,12.883c1.227,3.765,1.824,6.821,2.214,8.897
				c0.192,1.04,0.314,1.842,0.394,2.383c0.082,0.54,0.124,0.818,0.124,0.818s-0.05-0.277-0.146-0.815
				c-0.094-0.538-0.238-1.335-0.459-2.368c-0.442-2.063-1.135-5.094-2.442-8.808c-1.307-3.703-3.207-8.137-6.312-12.64
				c-3.082-4.483-7.439-9.042-13.268-12.343c-5.775-3.337-13.022-5.274-20.66-4.945c-7.631,0.289-15.567,2.835-22.461,7.525
				c-1.736,1.16-3.442,2.396-5.068,3.748c-1.649,1.324-3.205,2.781-4.684,4.323c-2.943,3.091-5.521,6.617-7.384,10.533
				c-1.862,3.905-3.069,8.173-3.322,12.539c-0.278,4.363,0.326,8.781,1.67,12.968c0.683,2.086,1.552,4.13,2.552,6.07
				c1.005,1.948,2.156,3.869,3.435,5.643c1.278,1.787,2.676,3.483,4.189,5.061c1.526,1.564,3.163,3.011,4.894,4.317
				c3.449,2.637,7.333,4.614,11.358,5.963c4.045,1.297,8.249,1.937,12.384,1.853c4.137-0.049,8.183-0.808,11.987-2.009
				c1.892-0.64,3.752-1.318,5.522-2.155c0.905-0.383,1.742-0.855,2.606-1.278c0.849-0.447,1.72-0.963,2.53-1.419
				c3.287-1.972,6.323-4.155,8.991-6.563c2.665-2.409,4.917-5.082,6.682-7.896c3.536-5.668,4.783-11.869,4.927-17.288
				c0.131-5.457-0.71-10.203-1.521-14.044c-0.849-3.845-1.725-6.823-2.348-8.84C83.844,24.714,83.501,23.64,83.501,23.64z"/>
		</g>
	</g>
</g>
<g id="home">
</g>
<g id="new_with_add">
</g>
<g id="new_with_more">
</g>
<g id="new_with_less">
</g>
<g id="new_sub">
</g>
<g id="new_description">
</g>
<g id="new_desc_w_milestone">
</g>
</svg>
