<?xml version="1.0" encoding="utf-8"?>
<!-- Generator: Adobe Illustrator 16.0.3, SVG Export Plug-In . SVG Version: 6.00 Build 0)  -->
<!DOCTYPE svg PUBLIC "-//W3C//DTD SVG 1.1//EN" "http://www.w3.org/Graphics/SVG/1.1/DTD/svg11.dtd">
<svg version="1.1" xmlns="http://www.w3.org/2000/svg" xmlns:xlink="http://www.w3.org/1999/xlink" x="0px" y="0px" width="95px"
	 height="95px" viewBox="0 0 95 95" enable-background="new 0 0 95 95" xml:space="preserve">
<g id="exports">
	<g id="submit_x1F__x5F_dis">
		<g>
			<path fill="#000433" d="M87.842,19.073c0,0,0.047,0.29,0.137,0.851c0.083,0.563,0.24,1.392,0.378,2.483
				c0.308,2.179,0.711,5.388,0.878,9.5c0.157,4.108,0.117,9.127-0.632,14.829c-0.789,5.676-2.266,12.104-5.458,18.488
				c-1.601,3.179-3.628,6.325-6.154,9.239c-2.533,2.904-5.607,5.518-9.093,7.688c-3.512,2.152-7.428,3.752-11.552,4.971
				c-4.134,1.175-8.525,1.893-13.019,1.854c-4.49,0.008-9.062-0.768-13.438-2.287c-4.362-1.561-8.511-3.895-12.154-6.909
				C10.442,73.737,5.226,65.129,3.01,55.795c-1.096-4.672-1.401-9.56-0.717-14.316c0.662-4.76,2.361-9.342,4.832-13.379
				c2.465-4.049,5.68-7.556,9.28-10.434c1.789-1.458,3.683-2.756,5.633-3.916c1.937-1.186,3.951-2.199,5.985-3.106
				c1.019-0.454,2.039-0.886,3.072-1.272c1.033-0.413,2.05-0.775,3.11-1.11c2.097-0.674,4.216-1.167,6.333-1.537
				c4.237-0.726,8.473-0.878,12.543-0.504c8.153,0.721,15.617,3.591,21.41,7.741c5.822,4.156,9.875,9.515,12.434,14.656
				c2.577,5.167,3.79,10.093,4.437,14.149c0.625,4.074,0.701,7.315,0.709,9.514c0.002,1.101-0.02,1.944-0.044,2.512
				C92.01,55.36,92,55.653,92,55.653s0.002-0.293,0.004-0.861c0.009-0.568,0.008-1.411-0.024-2.511
				c-0.063-2.194-0.241-5.424-0.953-9.458c-0.724-4.019-2.028-8.876-4.671-13.913c-2.62-5.019-6.709-10.166-12.449-14.117
				c-5.695-3.974-12.994-6.677-20.934-7.279c-7.938-0.637-16.44,0.813-24.272,4.614c-3.924,1.843-7.766,4.067-11.197,6.892
				c-3.452,2.79-6.502,6.162-8.822,10.022c-2.327,3.851-3.908,8.191-4.511,12.701c-0.622,4.508-0.31,9.144,0.76,13.596
				c0.266,1.12,0.59,2.208,0.929,3.287l0.583,1.657c0.171,0.518,0.415,1.061,0.619,1.59c0.871,2.121,1.896,4.177,3.071,6.137
				c2.363,3.914,5.353,7.422,8.804,10.328c3.462,2.895,7.404,5.141,11.56,6.653c4.169,1.471,8.534,2.238,12.844,2.253
				c4.313,0.064,8.546-0.622,12.57-1.676c4.011-1.112,7.851-2.619,11.249-4.64c3.39-2.046,6.394-4.523,8.888-7.303
				c2.487-2.787,4.506-5.82,6.113-8.903c3.186-6.2,4.815-12.487,5.726-18.092c0.874-5.628,1.031-10.618,0.97-14.712
				c-0.085-4.098-0.354-7.315-0.603-9.498c-0.104-1.095-0.235-1.929-0.301-2.493C87.879,19.364,87.842,19.073,87.842,19.073z"/>
		</g>
		<g>
			<path fill="#000433" d="M46.932,16.487c0,0,0.109,0.594,0.302,1.632c0.185,1.04,0.474,2.523,0.728,4.326
				c0.149,0.898,0.238,1.883,0.36,2.923c0.07,1.042,0.165,2.147,0.169,3.288c0.036,1.143,0.025,2.32-0.004,3.517
				c-0.003,1.2-0.095,2.406-0.137,3.621c-0.104,2.395-0.138,4.823-0.281,7.076c-0.062,1.123-0.123,2.204-0.228,3.229
				c-0.102,1.027-0.197,1.998-0.286,2.895C47.199,52.588,46.768,55,46.767,55h-0.199c0,0-0.111-0.602-0.241-1.66
				c-0.167-1.059-0.259-2.572-0.363-4.393c-0.052-0.91-0.048-1.898-0.047-2.943c-0.007-1.045,0.018-2.148,0.075-3.284
				c0.188-2.258,0.498-4.643,0.752-7.06c0.12-1.191,0.283-2.387,0.36-3.561c0.104-1.175,0.187-2.332,0.221-3.451
				c0.072-1.122,0.028-2.202,0.05-3.231c-0.034-1.026-0.04-2.001-0.113-2.899c-0.103-1.8-0.266-3.299-0.363-4.351
				c-0.104-1.052-0.163-1.652-0.163-1.652L46.932,16.487z"/>
		</g>
		<path fill="#000433" d="M47.924,66.039c-0.103-0.061-0.207-0.104-0.311-0.137c-0.265-0.431-0.741-0.713-1.28-0.735
			c-1.023-0.043-1.92,0.234-2.554,1.061c-0.478,0.622-0.418,1.669,0.051,2.28c0.53,0.692,1.244,1.119,2.14,1.115
			c1.079-0.006,1.894-0.705,2.492-1.532C48.943,67.428,48.577,66.422,47.924,66.039z"/>
	</g>
</g>
<g id="home">
</g>
<g id="new_with_add">
</g>
<g id="new_with_more">
</g>
<g id="new_with_less">
</g>
<g id="new_sub">
</g>
<g id="new_description">
</g>
<g id="new_desc_w_milestone">
</g>
</svg>
