<?xml version="1.0" encoding="utf-8"?>
<!-- Generator: Adobe Illustrator 16.0.3, SVG Export Plug-In . SVG Version: 6.00 Build 0)  -->
<!DOCTYPE svg PUBLIC "-//W3C//DTD SVG 1.1//EN" "http://www.w3.org/Graphics/SVG/1.1/DTD/svg11.dtd">
<svg version="1.1" xmlns="http://www.w3.org/2000/svg" xmlns:xlink="http://www.w3.org/1999/xlink" x="0px" y="0px" width="95px"
	 height="95px" viewBox="0 0 95 95" enable-background="new 0 0 95 95" xml:space="preserve">
<g id="exports">
	<g id="add_4_">
		<g>
			<path fill="#000433" d="M49.097,17.162c0,0,0.088,0.85,0.134,2.322c0.052,1.475,0.061,3.574-0.017,6.086
				c-0.061,1.254-0.099,2.614-0.229,4.048c-0.129,1.434-0.371,2.939-0.588,4.5c-0.244,1.561-0.39,3.179-0.455,4.827
				c-0.079,1.647,0.009,3.327,0.071,5.003c0.103,1.678,0.215,3.353,0.244,4.998c0.062,1.645,0.076,3.264,0.152,4.826
				c0.082,1.561,0.082,3.074,0.116,4.501c0.058,1.426,0.005,2.787,0.077,4.026c0.049,1.239,0.015,2.397,0.101,3.397
				c0.075,1.003,0.075,1.9,0.146,2.621c0.173,1.433,0.242,2.289,0.243,2.289l-0.191,0.061c0.001,0-0.321-0.773-0.834-2.194
				c-0.247-0.711-0.424-1.592-0.665-2.606c-0.269-1.016-0.375-2.169-0.579-3.43c-0.194-1.265-0.274-2.631-0.381-4.082
				c-0.064-0.726-0.095-1.47-0.094-2.231c-0.012-0.761-0.028-1.538-0.011-2.329c0.022-1.581,0.093-3.211,0.15-4.867
				c0.07-1.655,0.264-3.333,0.43-5.009c0.179-1.675,0.359-3.348,0.414-4.998c0.087-1.649,0.058-3.278-0.012-4.857
				c-0.048-1.577-0.143-3.107-0.086-4.55c0.041-1.443,0.17-2.803,0.284-4.058c0.254-2.508,0.587-4.588,0.867-6.039
				c0.276-1.451,0.512-2.272,0.512-2.272L49.097,17.162z"/>
		</g>
		<g>
			<path fill="#000433" d="M15.75,48.313c0,0,3.562-0.634,8.936-1.263c2.687-0.324,5.825-0.652,9.193-0.938
				c3.367-0.302,6.966-0.532,10.566-0.734c1.803-0.073,3.605-0.146,5.38-0.218c1.773-0.085,3.524-0.074,5.216-0.105
				c1.69-0.042,3.331,0.008,4.883,0.024c1.551,0.002,3.023,0.103,4.377,0.159c1.354,0.051,2.6,0.199,3.697,0.29
				c1.1,0.091,2.056,0.29,2.837,0.397c0.393,0.047,0.74,0.132,1.038,0.228c0.297,0.084,0.55,0.156,0.755,0.215
				c0.405,0.116,0.622,0.178,0.622,0.178s-0.226-0.025-0.648-0.072c-0.427-0.025-1.021-0.162-1.812-0.152
				c-0.79,0.001-1.734-0.054-2.829-0.028c-1.097,0.039-2.325,0.035-3.672,0.094c-1.346,0.058-2.804,0.119-4.346,0.185
				c-1.542,0.078-3.168,0.159-4.85,0.244c-3.366,0.178-6.956,0.368-10.546,0.559c-3.594,0.167-7.188,0.335-10.557,0.491
				c-3.371,0.143-6.521,0.258-9.223,0.325C19.366,48.346,15.75,48.313,15.75,48.313z"/>
		</g>
		<g>
			<path fill="#000433" d="M88.342,19.073c0,0,0.047,0.29,0.137,0.851c0.083,0.563,0.24,1.392,0.378,2.483
				c0.308,2.179,0.711,5.388,0.878,9.5c0.157,4.108,0.117,9.127-0.632,14.829c-0.789,5.676-2.266,12.104-5.458,18.488
				c-1.601,3.179-3.628,6.325-6.154,9.239c-2.533,2.904-5.607,5.518-9.093,7.688c-3.512,2.152-7.428,3.752-11.552,4.971
				c-4.134,1.175-8.525,1.893-13.019,1.854c-4.49,0.008-9.062-0.768-13.438-2.287c-4.362-1.561-8.511-3.895-12.154-6.909
				C10.942,73.737,5.726,65.129,3.51,55.795c-1.096-4.672-1.401-9.56-0.717-14.316c0.662-4.76,2.361-9.342,4.832-13.379
				c2.465-4.049,5.68-7.556,9.28-10.435c1.789-1.457,3.683-2.755,5.633-3.915c1.937-1.186,3.951-2.199,5.985-3.106
				c1.019-0.454,2.039-0.886,3.072-1.273c1.033-0.412,2.05-0.774,3.11-1.109c2.097-0.674,4.216-1.167,6.333-1.537
				c4.237-0.726,8.473-0.878,12.543-0.504c8.153,0.721,15.617,3.591,21.41,7.741c5.822,4.156,9.875,9.515,12.434,14.656
				c2.577,5.167,3.79,10.093,4.437,14.149c0.625,4.074,0.701,7.315,0.709,9.514c0.002,1.101-0.02,1.943-0.044,2.512
				C92.51,55.36,92.5,55.653,92.5,55.653s0.002-0.293,0.004-0.861c0.009-0.568,0.008-1.411-0.024-2.511
				c-0.063-2.194-0.241-5.424-0.953-9.458c-0.724-4.019-2.028-8.877-4.671-13.913c-2.62-5.019-6.709-10.166-12.449-14.117
				c-5.695-3.974-12.994-6.677-20.934-7.279c-7.938-0.637-16.44,0.813-24.272,4.614c-3.924,1.843-7.766,4.067-11.197,6.892
				c-3.452,2.79-6.502,6.162-8.822,10.022c-2.327,3.851-3.908,8.191-4.511,12.701c-0.622,4.508-0.31,9.144,0.76,13.596
				c0.266,1.12,0.59,2.208,0.929,3.287l0.583,1.657c0.171,0.518,0.415,1.061,0.619,1.59c0.871,2.121,1.896,4.177,3.071,6.137
				c2.363,3.914,5.353,7.422,8.804,10.328c3.462,2.895,7.404,5.141,11.56,6.653c4.169,1.471,8.534,2.238,12.844,2.253
				c4.313,0.064,8.546-0.622,12.57-1.676c4.011-1.112,7.851-2.619,11.249-4.64c3.39-2.046,6.394-4.523,8.888-7.303
				c2.487-2.787,4.506-5.82,6.113-8.903c3.186-6.2,4.815-12.487,5.726-18.092c0.874-5.628,1.031-10.618,0.97-14.712
				c-0.085-4.098-0.354-7.315-0.603-9.498c-0.104-1.095-0.235-1.929-0.301-2.493C88.379,19.364,88.342,19.073,88.342,19.073z"/>
		</g>
	</g>
</g>
<g id="home">
</g>
<g id="new_with_add">
</g>
<g id="new_with_more">
</g>
<g id="new_with_less">
</g>
<g id="new_sub">
</g>
<g id="new_description">
</g>
<g id="new_desc_w_milestone">
</g>
</svg>
