<?xml version="1.0" encoding="utf-8"?>
<!-- Generator: Adobe Illustrator 16.0.3, SVG Export Plug-In . SVG Version: 6.00 Build 0)  -->
<!DOCTYPE svg PUBLIC "-//W3C//DTD SVG 1.1//EN" "http://www.w3.org/Graphics/SVG/1.1/DTD/svg11.dtd">
<svg version="1.1" xmlns="http://www.w3.org/2000/svg" xmlns:xlink="http://www.w3.org/1999/xlink" x="0px" y="0px" width="75px"
	 height="100px" viewBox="0 0 75 100" enable-background="new 0 0 75 100" xml:space="preserve">
<g id="exports">
	<g id="milestone_4_" display="none">
		<g display="inline">
			<path fill="#000433" d="M48.004,62.513c0,0-0.661-0.008-1.9-0.023c-1.244-0.036-3.063-0.147-5.372-0.452
				c-2.309-0.303-5.09-0.888-8.195-1.902c-3.092-1.031-6.515-2.585-9.753-5.084c-1.603-1.262-3.14-2.767-4.49-4.526
				c-1.354-1.758-2.442-3.814-3.244-6.03c-0.765-2.241-1.176-4.619-1.282-7.063c-0.09-2.441,0.083-4.953,0.693-7.413
				c0.584-2.463,1.605-4.85,2.959-7.05c1.376-2.192,3.13-4.167,5.162-5.843c4.104-3.313,9.335-5.307,14.737-5.652
				c5.396-0.401,11.091,1.409,15.089,5.141c4.062,3.67,6.452,8.712,7.568,13.654c0.144,0.621,0.275,1.241,0.38,1.863l0.084,0.465
				l0.021,0.116l0.02,0.143l0.029,0.228l0.114,0.906c0.125,1.269,0.184,2.542,0.135,3.768c-0.09,2.47-0.461,4.879-1.163,7.126
				c-1.395,4.496-3.884,8.359-6.915,11.123c-3.021,2.8-6.545,4.39-9.719,5.208c-3.199,0.809-6.085,0.876-8.408,0.718
				c-2.332-0.149-4.128-0.511-5.34-0.781c-1.204-0.304-1.847-0.465-1.847-0.465l0.047-0.195c0,0,0.648,0.109,1.865,0.314
				c0.607,0.099,1.365,0.167,2.248,0.279c0.889,0.052,1.907,0.164,3.05,0.138c2.276-0.01,5.063-0.211,8.073-1.122
				c2.996-0.916,6.183-2.603,8.931-5.26c2.743-2.651,4.947-6.307,6.12-10.514c0.599-2.099,0.931-4.335,0.978-6.621
				c0.03-1.154-0.04-2.289-0.165-3.436l-0.127-0.904l-0.03-0.227c-0.003-0.025-0.015-0.105-0.011-0.084l-0.02-0.11l-0.079-0.438
				c-0.098-0.589-0.22-1.173-0.354-1.758c-1.082-4.639-3.124-9.338-6.765-12.75c-1.8-1.696-3.938-3.068-6.295-3.955
				c-2.358-0.882-4.908-1.3-7.475-1.305C32.221,12.757,27,14.428,22.984,17.629c-2.022,1.574-3.7,3.542-4.977,5.695
				c-1.254,2.171-2.087,4.533-2.496,6.917c-0.834,4.76-0.217,9.573,1.207,13.658c0.748,2.045,1.78,3.91,2.992,5.561
				c1.226,1.643,2.639,3.061,4.124,4.271c2.977,2.429,6.209,4.017,9.14,5.19c2.954,1.154,5.662,1.803,7.897,2.303
				c2.242,0.48,4.038,0.722,5.259,0.869c1.229,0.144,1.885,0.22,1.885,0.22L48.004,62.513z"/>
		</g>
		<g display="inline">
			<path fill="#000433" d="M38.334,67.286c0.375,0.447,0.623,1.015,0.857,1.549c0.219,0.549,0.413,1.106,0.583,1.67
				c0.343,1.128,0.63,2.271,0.884,3.418c0.513,2.296,0.934,4.61,1.255,6.936c0.335,2.324,0.628,4.652,0.894,6.983
				c0.27,2.333,0.51,4.662,0.671,7.011l-1.38-0.467c1.029-1.234,2.106-2.45,3.098-3.699l2.99-3.738l0.641-0.801l0.635,0.668
				l0.592,0.621c0.209,0.206,0.354,0.424,0.524,0.638c0.344,0.427,0.646,0.862,0.937,1.301c0.593,0.874,1.132,1.762,1.663,2.649
				l3.056,5.349l-1.445-0.049c0.198-0.317,0.336-1.127,0.33-1.853c0.023-0.744-0.028-1.521-0.09-2.294
				c-0.14-1.554-0.375-3.118-0.643-4.679c-0.557-3.118-1.166-6.245-1.82-9.364c-0.644-3.123-1.38-6.229-2.004-9.364
				c-0.313-1.567-0.624-3.136-0.909-4.711c-0.144-0.787-0.274-1.577-0.392-2.37c-0.095-0.795-0.239-1.59-0.145-2.41l0.098,0.02
				c-0.06,0.775,0.111,1.575,0.236,2.356c0.146,0.783,0.307,1.564,0.48,2.344c0.344,1.558,0.714,3.11,1.087,4.662l2.239,9.313
				c0.725,3.11,1.421,6.228,1.989,9.372c0.283,1.572,0.534,3.152,0.69,4.745c0.07,0.797,0.131,1.597,0.113,2.4
				c-0.016,0.795-0.055,1.632-0.478,2.372l-0.076,0.134l-0.081-0.139l-3.098-5.326c-0.52-0.885-1.046-1.766-1.613-2.617
				c-0.279-0.43-0.568-0.853-0.886-1.252c-0.291-0.422-0.656-0.774-0.998-1.149l0.138-0.015l-3.061,3.767
				c-1.017,1.259-2.098,2.459-3.144,3.691l-0.13,0.153l-0.014-0.202c-0.316-4.667-0.731-9.331-1.291-13.977
				c-0.284-2.322-0.606-4.64-1.026-6.94c-0.208-1.15-0.449-2.296-0.745-3.426c-0.147-0.564-0.318-1.123-0.514-1.673
				c-0.216-0.543-0.42-1.08-0.781-1.55L38.334,67.286z"/>
		</g>
		<g display="inline">
			<path fill="#000433" d="M25.575,58.4l-0.796,9.824c-0.112,1.64-0.303,3.273-0.488,4.907l-0.548,4.903l-0.648,4.897
				c-0.115,0.816-0.205,1.634-0.355,2.448l-0.443,2.44c-0.134,0.814-0.309,1.626-0.507,2.438c-0.196,0.81-0.35,1.628-0.607,2.428
				c-0.231,0.809-0.471,1.61-0.739,2.382c-0.275,0.789-0.474,1.539-0.714,2.308l-0.625-1.048c0.14-0.027,0.244,0.053,0.403-0.006
				c0.147-0.025,0.301-0.05,0.471-0.139c0.164-0.054,0.334-0.153,0.504-0.262c0.172-0.09,0.339-0.224,0.507-0.351
				c0.336-0.253,0.666-0.548,0.982-0.864c0.321-0.308,0.629-0.646,0.938-0.982c0.615-0.681,1.199-1.41,1.816-2.131
				c0.31-0.36,0.619-0.726,0.956-1.089c0.162-0.182,0.337-0.364,0.526-0.546c0.169-0.181,0.408-0.367,0.623-0.547l0.553-0.46
				l0.501,0.466c0.374,0.347,0.79,0.675,1.119,1.046c0.314,0.378,0.673,0.733,0.946,1.132c0.587,0.777,1.112,1.585,1.581,2.428
				c0.228,0.427,0.471,0.841,0.661,1.295l0.302,0.67l0.252,0.727c0.094,0.214,0.191,0.561,0.237,0.857l0.086,0.229
				c0,0.04,0-0.037,0-0.025v0.011c0,0,0,0.016,0,0.003c0-0.073-0.074-0.149-0.1-0.22c0.635,0.012-1.543-0.861-1.287-0.372
				c-0.109,0.058-0.266,0.303-0.248,0.282l-0.036,0.068c-0.006,0.017-0.002-0.001,0.002-0.019l0.069-0.301l0.276-1.344l1.057-5.452
				c0.361-1.817,0.751-3.63,1.133-5.444l1.177-5.438c0.409-1.81,0.796-3.624,1.258-5.422c0.457-1.799,0.93-3.595,1.445-5.38
				c0.258-0.893,0.527-1.782,0.822-2.664c0.304-0.878,0.601-1.765,1.056-2.585l0.088,0.047c-0.417,0.818-0.683,1.713-0.952,2.595
				c-0.263,0.888-0.499,1.782-0.725,2.681c-0.449,1.796-0.856,3.603-1.248,5.412c-0.78,3.621-1.496,7.256-2.191,10.894
				l-2.045,10.925l-0.27,1.364l-0.079,0.343l-0.026,0.09l-0.012,0.029c0.001,0.002-0.018,0.031-0.031,0.04
				c0.025,0.057-0.209-0.041-0.141-0.043c-0.015-0.064-0.005-0.04-0.01-0.072l-0.029-0.165c-0.045-0.22-0.055-0.442-0.149-0.656
				c-0.271-0.874-0.71-1.696-1.154-2.5c-0.454-0.803-0.964-1.573-1.523-2.305c-0.265-0.379-0.598-0.618-0.892-0.971
				c-0.308-0.342-0.674-0.851-1.008-0.851h0.116c-0.356,0-0.69,0.538-1.001,0.892c-0.316,0.347-0.62,0.667-0.924,1.028
				c-0.609,0.721-1.213,1.429-1.852,2.128c-0.323,0.347-0.645,0.685-0.99,1.011c-0.338,0.332-0.695,0.644-1.079,0.928
				c-0.38,0.286-0.783,0.556-1.237,0.726c-0.219,0.107-0.458,0.213-0.701,0.248c-0.239,0.069-0.492,0.04-0.736,0.04h-0.104
				l0.036-0.17c0.249-0.783,0.47-1.609,0.745-2.381c0.276-0.774,0.516-1.572,0.747-2.357c0.258-0.778,0.415-1.593,0.614-2.388
				c0.2-0.795,0.38-1.598,0.519-2.406l0.457-2.42c0.165-0.804,0.272-1.619,0.403-2.43l0.748-4.866l0.647-4.883
				c0.213-1.627,0.443-3.252,0.624-4.885l1.147-9.783L25.575,58.4z"/>
		</g>
		<g display="inline">
			<path fill="#000433" d="M22.096,23.937c0,0,0.4-0.251,1.151-0.721c0.758-0.463,1.878-1.128,3.367-1.862
				c1.489-0.727,3.349-1.545,5.604-2.125c2.242-0.575,4.93-0.911,7.793-0.369c2.861,0.514,5.771,2.019,8.214,4.265
				c2.42,2.215,4.614,5.146,5.73,8.647c1.15,3.485,1.087,7.519-0.327,11.137c-0.704,1.805-1.694,3.518-2.948,5.026
				c-0.31,0.379-0.635,0.748-0.977,1.1c-0.177,0.177-0.329,0.35-0.526,0.531l-0.515,0.487c-0.755,0.68-1.53,1.271-2.372,1.811
				c-1.673,1.068-3.559,1.855-5.536,2.212c-1.974,0.362-4.018,0.319-5.952-0.106c-1.934-0.43-3.764-1.187-5.4-2.182
				C27.767,50.788,26.302,49.592,25,48.3c-2.616-2.58-4.55-5.704-5.641-8.909c-1.084-3.203-1.245-6.631-0.223-9.481
				c0.987-2.874,2.966-4.938,4.866-6.321c1.926-1.4,3.854-2.15,5.419-2.716c1.589-0.52,2.857-0.837,3.732-1.002
				c0.873-0.168,1.338-0.257,1.338-0.257l0.043,0.195c0,0-0.453,0.131-1.302,0.375c-0.845,0.252-2.077,0.648-3.589,1.27
				c-1.495,0.649-3.276,1.555-5.023,2.944c-1.719,1.395-3.398,3.37-4.133,5.946c-0.739,2.555-0.581,5.57,0.512,8.471
				c1.083,2.912,2.952,5.687,5.41,8.046c2.445,2.355,5.447,4.332,8.836,5.156c1.689,0.393,3.459,0.5,5.195,0.227
				c1.737-0.262,3.423-0.906,4.955-1.824c0.763-0.456,1.507-0.996,2.171-1.56l0.525-0.47c0.155-0.133,0.319-0.311,0.479-0.463
				c0.321-0.316,0.627-0.649,0.92-0.991c1.182-1.36,2.123-2.914,2.806-4.556c1.367-3.293,1.514-6.988,0.515-10.254
				c-0.978-3.296-2.957-6.081-5.249-8.292c-2.277-2.208-4.982-3.703-7.694-4.269c-2.712-0.593-5.321-0.347-7.53,0.156
				c-2.222,0.506-4.082,1.263-5.576,1.942c-1.495,0.686-2.629,1.317-3.393,1.755c-0.763,0.448-1.17,0.688-1.17,0.688L22.096,23.937z
				"/>
		</g>
		<g display="inline">
			<path fill="#000433" d="M48.311,23.858c0,0,0.32-0.252,0.802-0.63c0.471-0.39,1.115-0.879,1.724-1.405
				c0.314-0.252,0.577-0.56,0.867-0.791c0.298-0.222,0.572-0.414,0.847-0.554c0.27-0.14,0.466-0.276,0.652-0.345
				c0.169-0.081,0.284-0.119,0.284-0.119l0.078,0.063c0,0-0.023,0.109-0.098,0.288c-0.066,0.179-0.184,0.447-0.376,0.703
				c-0.194,0.249-0.435,0.547-0.744,0.783c-0.322,0.22-0.688,0.429-1.049,0.626c-0.718,0.41-1.436,0.802-2.002,1.049
				c-0.561,0.251-0.935,0.418-0.935,0.418L48.311,23.858z"/>
		</g>
		<g display="inline">
			<path fill="#000433" d="M52.972,29.854c0,0,0.376-0.158,0.939-0.396c0.557-0.252,1.308-0.554,2.033-0.9
				c0.37-0.16,0.704-0.388,1.046-0.534c0.345-0.135,0.661-0.248,0.962-0.31c0.298-0.064,0.522-0.144,0.721-0.161
				c0.185-0.032,0.306-0.039,0.306-0.039l0.059,0.08c0,0-0.052,0.1-0.17,0.252c-0.111,0.156-0.296,0.384-0.549,0.579
				c-0.253,0.189-0.563,0.413-0.925,0.56c-0.368,0.126-0.775,0.231-1.177,0.326c-0.8,0.206-1.596,0.395-2.207,0.483
				c-0.607,0.093-1.013,0.155-1.013,0.155L52.972,29.854z"/>
		</g>
		<g display="inline">
			<path fill="#000433" d="M47.024,50.867c0,0,0.293,0.283,0.731,0.71c0.449,0.414,1.021,0.987,1.622,1.521
				c0.292,0.277,0.633,0.496,0.9,0.753c0.259,0.265,0.487,0.512,0.661,0.765c0.175,0.249,0.336,0.426,0.43,0.601
				c0.102,0.157,0.155,0.266,0.155,0.266l-0.051,0.086c0,0-0.112-0.009-0.299-0.058c-0.187-0.043-0.468-0.123-0.747-0.279
				c-0.273-0.159-0.601-0.357-0.876-0.633c-0.261-0.29-0.517-0.624-0.76-0.956c-0.502-0.655-0.986-1.314-1.307-1.843
				c-0.324-0.522-0.539-0.871-0.539-0.871L47.024,50.867z"/>
		</g>
		<g display="inline">
			<path fill="#000433" d="M51.666,45.446c0,0,0.344,0.22,0.858,0.55c0.522,0.317,1.197,0.765,1.894,1.167
				c0.342,0.214,0.719,0.36,1.032,0.559c0.307,0.208,0.579,0.404,0.801,0.617c0.221,0.209,0.414,0.35,0.54,0.503
				c0.132,0.133,0.206,0.229,0.206,0.229l-0.033,0.094c0,0-0.111,0.014-0.304,0.003c-0.191-0.004-0.483-0.026-0.788-0.124
				c-0.3-0.102-0.66-0.23-0.984-0.446c-0.313-0.231-0.631-0.508-0.936-0.784c-0.623-0.543-1.229-1.092-1.648-1.545
				c-0.422-0.448-0.702-0.746-0.702-0.746L51.666,45.446z"/>
		</g>
		<g display="inline">
			<path fill="#000433" d="M53.622,39.466c0,0,0.407,0.013,1.019,0.032c0.611,0.003,1.42,0.042,2.224,0.029
				c0.403,0.009,0.802-0.06,1.173-0.05c0.37,0.021,0.705,0.05,1.004,0.119c0.297,0.066,0.535,0.088,0.722,0.154
				c0.182,0.047,0.295,0.092,0.295,0.092l0.02,0.098c0,0-0.089,0.068-0.259,0.158c-0.167,0.095-0.43,0.226-0.741,0.298
				c-0.309,0.066-0.685,0.141-1.073,0.122c-0.388-0.038-0.802-0.112-1.206-0.194c-0.813-0.146-1.615-0.307-2.208-0.48
				c-0.591-0.168-0.985-0.28-0.985-0.28L53.622,39.466z"/>
		</g>
		<g display="inline">
			<path fill="#000433" d="M42.424,20.006c0,0,0.099-0.396,0.246-0.989c0.131-0.597,0.339-1.38,0.495-2.168
				c0.093-0.393,0.11-0.797,0.197-1.157c0.099-0.357,0.197-0.679,0.328-0.957c0.126-0.276,0.197-0.723,0.302-0.891
				c0.084-0.168,0.151-0.486,0.151-0.486h0.1c0,0,0.049,0.319,0.101,0.505c0.058,0.183,0.13,0.575,0.136,0.896
				c0,0.316-0.007,0.753-0.106,1.13c-0.118,0.371-0.277,0.788-0.442,1.165c-0.313,0.765-0.639,1.529-0.933,2.072
				c-0.289,0.543-0.48,0.911-0.48,0.911L42.424,20.006z"/>
		</g>
		<g display="inline">
			<path fill="#000433" d="M20.1,38.508c0,0-0.298,0.196-0.744,0.492c-0.438,0.308-1.037,0.686-1.604,1.099
				c-0.293,0.196-0.541,0.449-0.812,0.626c-0.276,0.167-0.534,0.304-0.788,0.395c-0.25,0.092-0.438,0.185-0.612,0.221
				c-0.159,0.05-0.268,0.067-0.268,0.068l-0.072-0.07c0,0.001,0.025-0.098,0.099-0.254c0.066-0.158,0.188-0.39,0.372-0.604
				c0.186-0.208,0.419-0.452,0.709-0.633c0.301-0.163,0.643-0.308,0.977-0.444c0.665-0.287,1.327-0.561,1.846-0.717
				c0.515-0.161,0.857-0.27,0.857-0.27L20.1,38.508z"/>
		</g>
		<g display="inline">
			<path fill="#000433" d="M26.363,48.578c0,0-0.297,0.278-0.744,0.695c-0.436,0.429-1.035,0.972-1.597,1.548
				c-0.291,0.278-0.526,0.607-0.796,0.862c-0.277,0.246-0.535,0.462-0.796,0.624c-0.257,0.162-0.44,0.315-0.62,0.399
				c-0.162,0.095-0.272,0.143-0.272,0.143l-0.084-0.055c0,0,0.015-0.111,0.072-0.295c0.052-0.186,0.146-0.463,0.315-0.733
				c0.172-0.266,0.386-0.583,0.674-0.845c0.302-0.246,0.647-0.485,0.991-0.713c0.679-0.47,1.361-0.922,1.903-1.216
				c0.538-0.298,0.896-0.497,0.896-0.497L26.363,48.578z"/>
		</g>
		<g display="inline">
			<path fill="#000433" d="M32.893,52.561c0,0-0.05,0.404-0.126,1.012c-0.061,0.608-0.174,1.409-0.236,2.211
				c-0.046,0.4-0.016,0.804-0.06,1.172c-0.055,0.367-0.115,0.698-0.212,0.989c-0.093,0.29-0.137,0.524-0.221,0.704
				c-0.063,0.177-0.118,0.284-0.118,0.284l-0.1,0.012c0,0-0.061-0.095-0.134-0.273c-0.078-0.175-0.185-0.448-0.227-0.765
				c-0.038-0.313-0.076-0.694-0.022-1.08c0.074-0.383,0.187-0.788,0.305-1.183c0.222-0.796,0.456-1.58,0.684-2.153
				c0.223-0.573,0.371-0.955,0.371-0.955L32.893,52.561z"/>
		</g>
		<g display="inline">
			<path fill="#000433" d="M40.322,53.199c0,0,0.167,0.452,0.419,1.131c0.268,0.672,0.59,1.576,0.965,2.454
				c0.173,0.446,0.418,0.857,0.578,1.269c0.148,0.418,0.282,0.795,0.356,1.15c0.075,0.353,0.177,0.617,0.203,0.845
				c0.043,0.214,0.056,0.352,0.056,0.352l-0.082,0.057c0,0-0.107-0.071-0.272-0.223c-0.167-0.146-0.419-0.375-0.626-0.687
				c-0.203-0.311-0.449-0.687-0.606-1.118c-0.141-0.438-0.261-0.918-0.366-1.394c-0.231-0.947-0.44-1.893-0.543-2.614
				c-0.107-0.719-0.179-1.198-0.179-1.198L40.322,53.199z"/>
		</g>
		<g display="inline">
			<path fill="#000433" d="M33.212,18.829c0,0-0.172-0.313-0.429-0.782c-0.271-0.463-0.597-1.09-0.961-1.69
				c-0.172-0.308-0.403-0.576-0.557-0.86c-0.144-0.289-0.259-0.558-0.328-0.818c-0.07-0.257-0.147-0.451-0.169-0.628
				c-0.036-0.163-0.045-0.272-0.045-0.272l0.074-0.066c0,0,0.097,0.033,0.245,0.119c0.152,0.08,0.373,0.219,0.571,0.421
				c0.192,0.202,0.417,0.455,0.573,0.76c0.137,0.313,0.252,0.665,0.36,1.01c0.231,0.687,0.448,1.369,0.562,1.899
				c0.118,0.525,0.196,0.876,0.196,0.876L33.212,18.829z"/>
		</g>
		<g display="inline">
			<path fill="#000433" d="M25.168,22.75c0,0-0.319-0.159-0.799-0.397c-0.486-0.225-1.113-0.553-1.755-0.838
				c-0.316-0.154-0.659-0.242-0.948-0.388c-0.283-0.155-0.531-0.309-0.737-0.483c-0.204-0.171-0.379-0.286-0.498-0.419
				c-0.122-0.113-0.192-0.197-0.192-0.197l0.023-0.098c0,0,0.098-0.027,0.27-0.042c0.17-0.021,0.432-0.034,0.709,0.019
				c0.273,0.057,0.603,0.135,0.904,0.296c0.291,0.179,0.588,0.401,0.873,0.622c0.582,0.432,1.151,0.867,1.547,1.237
				c0.396,0.364,0.662,0.606,0.662,0.606L25.168,22.75z"/>
		</g>
		<g display="inline">
			<path fill="#000433" d="M19.229,30.47c0,0-0.266,0.084-0.665,0.209c-0.395,0.14-0.924,0.286-1.437,0.47
				c-0.261,0.082-0.499,0.223-0.738,0.29c-0.241,0.057-0.464,0.082-0.677,0.072c-0.208-0.007-0.372-0.001-0.517-0.033
				c-0.135-0.017-0.226-0.041-0.226-0.041l-0.047-0.088c0,0,0.036-0.078,0.123-0.189c0.08-0.117,0.222-0.275,0.407-0.405
				c0.185-0.123,0.416-0.26,0.677-0.324c0.264-0.044,0.557-0.054,0.839-0.065c1.127-0.096,2.248,0.006,2.248,0.006L19.229,30.47z"/>
		</g>
	</g>
	<g id="milestone_x5F_active">
		<g>
			<path fill="#000433" d="M48.004,62.513c0,0-0.661-0.008-1.9-0.023c-1.244-0.036-3.063-0.147-5.372-0.452
				c-2.309-0.303-5.09-0.888-8.195-1.902c-3.092-1.031-6.515-2.585-9.753-5.084c-1.603-1.262-3.14-2.767-4.49-4.526
				c-1.354-1.758-2.442-3.814-3.244-6.03c-0.765-2.241-1.176-4.619-1.282-7.063c-0.09-2.441,0.083-4.953,0.693-7.413
				c0.584-2.463,1.605-4.85,2.959-7.05c1.376-2.192,3.13-4.167,5.162-5.843c4.104-3.313,9.335-5.307,14.737-5.652
				c5.396-0.401,11.091,1.409,15.089,5.141c4.062,3.67,6.452,8.712,7.568,13.654c0.144,0.621,0.275,1.241,0.38,1.863l0.084,0.465
				l0.021,0.116l0.02,0.143l0.029,0.228l0.114,0.906c0.125,1.269,0.184,2.542,0.135,3.768c-0.09,2.47-0.461,4.879-1.163,7.126
				c-1.395,4.496-3.884,8.359-6.915,11.123c-3.021,2.8-6.545,4.39-9.719,5.208c-3.199,0.809-6.085,0.876-8.408,0.718
				c-2.332-0.149-4.128-0.511-5.34-0.781c-1.204-0.304-1.847-0.465-1.847-0.465l0.047-0.195c0,0,0.648,0.109,1.865,0.314
				c0.607,0.099,1.365,0.167,2.248,0.279c0.889,0.052,1.907,0.164,3.05,0.138c2.276-0.01,5.063-0.211,8.073-1.122
				c2.996-0.916,6.183-2.603,8.931-5.26c2.743-2.651,4.947-6.307,6.12-10.514c0.599-2.099,0.931-4.335,0.978-6.621
				c0.03-1.154-0.04-2.289-0.165-3.436l-0.127-0.904l-0.03-0.227c-0.003-0.025-0.015-0.105-0.011-0.084l-0.02-0.11l-0.079-0.438
				c-0.098-0.589-0.22-1.173-0.354-1.758c-1.082-4.639-3.124-9.338-6.765-12.75c-1.8-1.696-3.938-3.068-6.295-3.955
				c-2.358-0.882-4.908-1.3-7.475-1.305C32.221,12.757,27,14.428,22.984,17.629c-2.022,1.574-3.7,3.542-4.977,5.695
				c-1.254,2.171-2.087,4.533-2.496,6.917c-0.834,4.76-0.217,9.573,1.207,13.658c0.748,2.045,1.78,3.91,2.992,5.561
				c1.226,1.643,2.639,3.061,4.124,4.271c2.977,2.429,6.209,4.017,9.14,5.19c2.954,1.154,5.662,1.803,7.897,2.303
				c2.242,0.48,4.038,0.722,5.259,0.869c1.229,0.144,1.885,0.22,1.885,0.22L48.004,62.513z"/>
		</g>
		<g>
			<path fill="#000433" d="M38.334,67.286c0.375,0.447,0.623,1.015,0.857,1.549c0.219,0.549,0.413,1.106,0.583,1.67
				c0.343,1.128,0.63,2.271,0.884,3.418c0.513,2.296,0.934,4.61,1.255,6.936c0.335,2.324,0.628,4.652,0.894,6.983
				c0.27,2.333,0.51,4.662,0.671,7.011l-1.38-0.467c1.029-1.234,2.106-2.45,3.098-3.699l2.99-3.738l0.641-0.801l0.635,0.668
				l0.592,0.621c0.209,0.206,0.354,0.424,0.524,0.638c0.344,0.427,0.646,0.862,0.937,1.301c0.593,0.874,1.132,1.762,1.663,2.649
				l3.056,5.349l-1.445-0.049c0.198-0.317,0.336-1.127,0.33-1.853c0.023-0.744-0.028-1.521-0.09-2.294
				c-0.14-1.554-0.375-3.118-0.643-4.679c-0.557-3.118-1.166-6.245-1.82-9.364c-0.644-3.123-1.38-6.229-2.004-9.364
				c-0.313-1.567-0.624-3.136-0.909-4.711c-0.144-0.787-0.274-1.577-0.392-2.37c-0.095-0.795-0.239-1.59-0.145-2.41l0.098,0.02
				c-0.06,0.775,0.111,1.575,0.236,2.356c0.146,0.783,0.307,1.564,0.48,2.344c0.344,1.558,0.714,3.11,1.087,4.662l2.239,9.313
				c0.725,3.11,1.421,6.228,1.989,9.372c0.283,1.572,0.534,3.152,0.69,4.745c0.07,0.797,0.131,1.597,0.113,2.4
				c-0.016,0.795-0.055,1.632-0.478,2.372l-0.076,0.134l-0.081-0.139l-3.098-5.326c-0.52-0.885-1.046-1.766-1.613-2.617
				c-0.279-0.43-0.568-0.853-0.886-1.252c-0.291-0.422-0.656-0.774-0.998-1.149l0.138-0.015l-3.061,3.767
				c-1.017,1.259-2.098,2.459-3.144,3.691l-0.13,0.153l-0.014-0.202c-0.316-4.667-0.731-9.331-1.291-13.977
				c-0.284-2.322-0.606-4.64-1.026-6.94c-0.208-1.15-0.449-2.296-0.745-3.426c-0.147-0.564-0.318-1.123-0.514-1.673
				c-0.216-0.543-0.42-1.08-0.781-1.55L38.334,67.286z"/>
		</g>
		<g>
			<path fill="#000433" d="M25.575,58.4l-0.796,9.824c-0.112,1.64-0.303,3.273-0.488,4.907l-0.548,4.903l-0.648,4.897
				c-0.115,0.816-0.205,1.634-0.355,2.448l-0.443,2.44c-0.134,0.814-0.309,1.626-0.507,2.438c-0.196,0.81-0.35,1.628-0.607,2.428
				c-0.231,0.809-0.471,1.61-0.739,2.382c-0.275,0.789-0.474,1.539-0.714,2.308l-0.625-1.048c0.14-0.027,0.244,0.053,0.403-0.006
				c0.147-0.025,0.301-0.05,0.471-0.139c0.164-0.054,0.334-0.153,0.504-0.262c0.172-0.09,0.339-0.224,0.507-0.351
				c0.336-0.253,0.666-0.548,0.982-0.864c0.321-0.308,0.629-0.646,0.938-0.982c0.615-0.681,1.199-1.41,1.816-2.131
				c0.31-0.36,0.619-0.726,0.956-1.089c0.162-0.182,0.337-0.364,0.526-0.546c0.169-0.181,0.408-0.367,0.623-0.547l0.553-0.46
				l0.501,0.466c0.374,0.347,0.79,0.675,1.119,1.046c0.314,0.378,0.673,0.733,0.946,1.132c0.587,0.777,1.112,1.585,1.581,2.428
				c0.228,0.427,0.471,0.841,0.661,1.295l0.302,0.67l0.252,0.727c0.094,0.214,0.191,0.561,0.237,0.857l0.086,0.229
				c0,0.04,0-0.037,0-0.025v0.011c0,0,0,0.016,0,0.003c0-0.073-0.074-0.149-0.1-0.22c0.635,0.012-1.543-0.861-1.287-0.372
				c-0.109,0.058-0.266,0.303-0.248,0.282l-0.036,0.068c-0.006,0.017-0.002-0.001,0.002-0.019l0.069-0.301l0.276-1.344l1.057-5.452
				c0.361-1.817,0.751-3.63,1.133-5.444l1.177-5.438c0.409-1.81,0.796-3.624,1.258-5.422c0.457-1.799,0.93-3.595,1.445-5.38
				c0.258-0.893,0.527-1.782,0.822-2.664c0.304-0.878,0.601-1.765,1.056-2.585l0.088,0.047c-0.417,0.818-0.683,1.713-0.952,2.595
				c-0.263,0.888-0.499,1.782-0.725,2.681c-0.449,1.796-0.856,3.603-1.248,5.412c-0.78,3.621-1.496,7.256-2.191,10.894
				l-2.045,10.925l-0.27,1.364l-0.079,0.343l-0.026,0.09l-0.012,0.029c0.001,0.002-0.018,0.031-0.031,0.04
				c0.025,0.057-0.209-0.041-0.141-0.043c-0.015-0.064-0.005-0.04-0.01-0.072l-0.029-0.165c-0.045-0.22-0.055-0.442-0.149-0.656
				c-0.271-0.874-0.71-1.696-1.154-2.5c-0.454-0.803-0.964-1.573-1.523-2.305c-0.265-0.379-0.598-0.618-0.892-0.971
				c-0.308-0.342-0.674-0.851-1.008-0.851h0.116c-0.356,0-0.69,0.538-1.001,0.892c-0.316,0.347-0.62,0.667-0.924,1.028
				c-0.609,0.721-1.213,1.429-1.852,2.128c-0.323,0.347-0.645,0.685-0.99,1.011c-0.338,0.332-0.695,0.644-1.079,0.928
				c-0.38,0.286-0.783,0.556-1.237,0.726c-0.219,0.107-0.458,0.213-0.701,0.248c-0.239,0.069-0.492,0.04-0.736,0.04h-0.104
				l0.036-0.17c0.249-0.783,0.47-1.609,0.745-2.381c0.276-0.774,0.516-1.572,0.747-2.357c0.258-0.778,0.415-1.593,0.614-2.388
				c0.2-0.795,0.38-1.598,0.519-2.406l0.457-2.42c0.165-0.804,0.272-1.619,0.403-2.43l0.748-4.866l0.647-4.883
				c0.213-1.627,0.443-3.252,0.624-4.885l1.147-9.783L25.575,58.4z"/>
		</g>
		<g>
			<path fill="#000433" d="M22.096,23.937c0,0,0.4-0.251,1.151-0.721c0.758-0.463,1.878-1.128,3.367-1.862
				c1.489-0.727,3.349-1.545,5.604-2.125c2.242-0.575,4.93-0.911,7.793-0.369c2.861,0.514,5.771,2.019,8.214,4.265
				c2.42,2.215,4.614,5.146,5.73,8.647c1.15,3.485,1.087,7.519-0.327,11.137c-0.704,1.805-1.694,3.518-2.948,5.026
				c-0.31,0.379-0.635,0.748-0.977,1.1c-0.177,0.177-0.329,0.35-0.526,0.531l-0.515,0.487c-0.755,0.68-1.53,1.271-2.372,1.811
				c-1.673,1.068-3.559,1.855-5.536,2.212c-1.974,0.362-4.018,0.319-5.952-0.106c-1.934-0.43-3.764-1.187-5.4-2.182
				C27.767,50.788,26.302,49.592,25,48.3c-2.616-2.58-4.55-5.704-5.641-8.909c-1.084-3.203-1.245-6.631-0.223-9.481
				c0.987-2.874,2.966-4.938,4.866-6.321c1.926-1.4,3.854-2.15,5.419-2.716c1.589-0.52,2.857-0.837,3.732-1.002
				c0.873-0.168,1.338-0.257,1.338-0.257l0.043,0.195c0,0-0.453,0.131-1.302,0.375c-0.845,0.252-2.077,0.648-3.589,1.27
				c-1.495,0.649-3.276,1.555-5.023,2.944c-1.719,1.395-3.398,3.37-4.133,5.946c-0.739,2.555-0.581,5.57,0.512,8.471
				c1.083,2.912,2.952,5.687,5.41,8.046c2.445,2.355,5.447,4.332,8.836,5.156c1.689,0.393,3.459,0.5,5.195,0.227
				c1.737-0.262,3.423-0.906,4.955-1.824c0.763-0.456,1.507-0.996,2.171-1.56l0.525-0.47c0.155-0.133,0.319-0.311,0.479-0.463
				c0.321-0.316,0.627-0.649,0.92-0.991c1.182-1.36,2.123-2.914,2.806-4.556c1.367-3.293,1.514-6.988,0.515-10.254
				c-0.978-3.296-2.957-6.081-5.249-8.292c-2.277-2.208-4.982-3.703-7.694-4.269c-2.712-0.593-5.321-0.347-7.53,0.156
				c-2.222,0.506-4.082,1.263-5.576,1.942c-1.495,0.686-2.629,1.317-3.393,1.755c-0.763,0.448-1.17,0.688-1.17,0.688L22.096,23.937z
				"/>
		</g>
		<g>
			<path fill="#000433" d="M48.311,23.858c0,0,0.32-0.252,0.802-0.63c0.471-0.39,1.115-0.879,1.724-1.405
				c0.314-0.252,0.577-0.56,0.867-0.791c0.298-0.222,0.572-0.414,0.847-0.554c0.27-0.14,0.466-0.276,0.652-0.345
				c0.169-0.081,0.284-0.119,0.284-0.119l0.078,0.063c0,0-0.023,0.109-0.098,0.288c-0.066,0.179-0.184,0.447-0.376,0.703
				c-0.194,0.249-0.435,0.547-0.744,0.783c-0.322,0.22-0.688,0.429-1.049,0.626c-0.718,0.41-1.436,0.802-2.002,1.049
				c-0.561,0.251-0.935,0.418-0.935,0.418L48.311,23.858z"/>
		</g>
		<g>
			<path fill="#000433" d="M52.972,29.854c0,0,0.376-0.158,0.939-0.396c0.557-0.252,1.308-0.554,2.033-0.9
				c0.37-0.16,0.704-0.388,1.046-0.534c0.345-0.135,0.661-0.248,0.962-0.31c0.298-0.064,0.522-0.144,0.721-0.161
				c0.185-0.032,0.306-0.039,0.306-0.039l0.059,0.08c0,0-0.052,0.1-0.17,0.252c-0.111,0.156-0.296,0.384-0.549,0.579
				c-0.253,0.189-0.563,0.413-0.925,0.56c-0.368,0.126-0.775,0.231-1.177,0.326c-0.8,0.206-1.596,0.395-2.207,0.483
				c-0.607,0.093-1.013,0.155-1.013,0.155L52.972,29.854z"/>
		</g>
		<g>
			<path fill="#000433" d="M62.972,25.854c0,0,0.376-0.158,0.939-0.396c0.557-0.252,1.308-0.554,2.033-0.9
				c0.37-0.16,0.704-0.388,1.046-0.534c0.345-0.135,0.661-0.248,0.962-0.31c0.298-0.064,0.522-0.144,0.721-0.161
				c0.185-0.032,0.306-0.039,0.306-0.039l0.059,0.08c0,0-0.052,0.1-0.17,0.252c-0.111,0.156-0.296,0.384-0.549,0.579
				c-0.253,0.189-0.563,0.413-0.925,0.56c-0.368,0.126-0.775,0.231-1.177,0.326c-0.8,0.206-1.596,0.395-2.207,0.483
				c-0.607,0.093-1.013,0.155-1.013,0.155L62.972,25.854z"/>
		</g>
		<g>
			<path fill="#000433" d="M47.024,50.867c0,0,0.293,0.283,0.731,0.71c0.449,0.414,1.021,0.987,1.622,1.521
				c0.292,0.277,0.633,0.496,0.9,0.753c0.259,0.265,0.487,0.512,0.661,0.765c0.175,0.249,0.336,0.426,0.43,0.601
				c0.102,0.157,0.155,0.266,0.155,0.266l-0.051,0.086c0,0-0.112-0.009-0.299-0.058c-0.187-0.043-0.468-0.123-0.747-0.279
				c-0.273-0.159-0.601-0.357-0.876-0.633c-0.261-0.29-0.517-0.624-0.76-0.956c-0.502-0.655-0.986-1.314-1.307-1.843
				c-0.324-0.522-0.539-0.871-0.539-0.871L47.024,50.867z"/>
		</g>
		<g>
			<path fill="#000433" d="M51.666,45.446c0,0,0.344,0.22,0.858,0.55c0.522,0.317,1.197,0.765,1.894,1.167
				c0.342,0.214,0.719,0.36,1.032,0.559c0.307,0.208,0.579,0.404,0.801,0.617c0.221,0.209,0.414,0.35,0.54,0.503
				c0.132,0.133,0.206,0.229,0.206,0.229l-0.033,0.094c0,0-0.111,0.014-0.304,0.003c-0.191-0.004-0.483-0.026-0.788-0.124
				c-0.3-0.102-0.66-0.23-0.984-0.446c-0.313-0.231-0.631-0.508-0.936-0.784c-0.623-0.543-1.229-1.092-1.648-1.545
				c-0.422-0.448-0.702-0.746-0.702-0.746L51.666,45.446z"/>
		</g>
		<g>
			<path fill="#000433" d="M53.622,39.466c0,0,0.407,0.013,1.019,0.032c0.611,0.003,1.42,0.042,2.224,0.029
				c0.403,0.009,0.802-0.06,1.173-0.05c0.37,0.021,0.705,0.05,1.004,0.119c0.297,0.066,0.535,0.088,0.722,0.154
				c0.182,0.047,0.295,0.092,0.295,0.092l0.02,0.098c0,0-0.089,0.068-0.259,0.158c-0.167,0.095-0.43,0.226-0.741,0.298
				c-0.309,0.066-0.685,0.141-1.073,0.122c-0.388-0.038-0.802-0.112-1.206-0.194c-0.813-0.146-1.615-0.307-2.208-0.48
				c-0.591-0.168-0.985-0.28-0.985-0.28L53.622,39.466z"/>
		</g>
		<g>
			<path fill="#000433" d="M42.424,20.006c0,0,0.099-0.396,0.246-0.989c0.131-0.597,0.339-1.38,0.495-2.168
				c0.093-0.393,0.11-0.797,0.197-1.157c0.099-0.357,0.197-0.679,0.328-0.957c0.126-0.276,0.197-0.723,0.302-0.891
				c0.084-0.168,0.151-0.486,0.151-0.486h0.1c0,0,0.049,0.319,0.101,0.505c0.058,0.183,0.13,0.575,0.136,0.896
				c0,0.316-0.007,0.753-0.106,1.13c-0.118,0.371-0.277,0.788-0.442,1.165c-0.313,0.765-0.639,1.529-0.933,2.072
				c-0.289,0.543-0.48,0.911-0.48,0.911L42.424,20.006z"/>
		</g>
		<g>
			<path fill="#000433" d="M45.424,9.006c0,0,0.099-0.396,0.246-0.989c0.131-0.597,0.339-1.38,0.495-2.168
				c0.093-0.393,0.11-0.797,0.197-1.157c0.099-0.357,0.197-0.679,0.328-0.957c0.126-0.276,0.197-0.723,0.302-0.891
				c0.084-0.168,0.151-0.486,0.151-0.486h0.1c0,0,0.049,0.319,0.101,0.505c0.058,0.183,0.13,0.575,0.136,0.896
				c0,0.316-0.007,0.753-0.106,1.13c-0.118,0.371-0.277,0.788-0.442,1.165c-0.313,0.765-0.639,1.529-0.933,2.072
				c-0.289,0.543-0.48,0.911-0.48,0.911L45.424,9.006z"/>
		</g>
		<g>
			<path fill="#000433" d="M20.1,38.508c0,0-0.298,0.196-0.744,0.492c-0.438,0.308-1.037,0.686-1.604,1.099
				c-0.293,0.196-0.541,0.449-0.812,0.626c-0.276,0.167-0.534,0.304-0.788,0.395c-0.25,0.092-0.438,0.185-0.612,0.221
				c-0.159,0.05-0.268,0.067-0.268,0.068l-0.072-0.07c0,0.001,0.025-0.098,0.099-0.254c0.066-0.158,0.188-0.39,0.372-0.604
				c0.186-0.208,0.419-0.452,0.709-0.633c0.301-0.163,0.643-0.308,0.977-0.444c0.665-0.287,1.327-0.561,1.846-0.717
				c0.515-0.161,0.857-0.27,0.857-0.27L20.1,38.508z"/>
		</g>
		<g>
			<path fill="#000433" d="M26.363,48.578c0,0-0.297,0.278-0.744,0.695c-0.436,0.429-1.035,0.972-1.597,1.548
				c-0.291,0.278-0.526,0.607-0.796,0.862c-0.277,0.246-0.535,0.462-0.796,0.624c-0.257,0.162-0.44,0.315-0.62,0.399
				c-0.162,0.095-0.272,0.143-0.272,0.143l-0.084-0.055c0,0,0.015-0.111,0.072-0.295c0.052-0.186,0.146-0.463,0.315-0.733
				c0.172-0.266,0.386-0.583,0.674-0.845c0.302-0.246,0.647-0.485,0.991-0.713c0.679-0.47,1.361-0.922,1.903-1.216
				c0.538-0.298,0.896-0.497,0.896-0.497L26.363,48.578z"/>
		</g>
		<g>
			<path fill="#000433" d="M32.893,52.561c0,0-0.05,0.404-0.126,1.012c-0.061,0.608-0.174,1.409-0.236,2.211
				c-0.046,0.4-0.016,0.804-0.06,1.172c-0.055,0.367-0.115,0.698-0.212,0.989c-0.093,0.29-0.137,0.524-0.221,0.704
				c-0.063,0.177-0.118,0.284-0.118,0.284l-0.1,0.012c0,0-0.061-0.095-0.134-0.273c-0.078-0.175-0.185-0.448-0.227-0.765
				c-0.038-0.313-0.076-0.694-0.022-1.08c0.074-0.383,0.187-0.788,0.305-1.183c0.222-0.796,0.456-1.58,0.684-2.153
				c0.223-0.573,0.371-0.955,0.371-0.955L32.893,52.561z"/>
		</g>
		<g>
			<path fill="#000433" d="M40.322,53.199c0,0,0.167,0.452,0.419,1.131c0.268,0.672,0.59,1.576,0.965,2.454
				c0.173,0.446,0.418,0.857,0.578,1.269c0.148,0.418,0.282,0.795,0.356,1.15c0.075,0.353,0.177,0.617,0.203,0.845
				c0.043,0.214,0.056,0.352,0.056,0.352l-0.082,0.057c0,0-0.107-0.071-0.272-0.223c-0.167-0.146-0.419-0.375-0.626-0.687
				c-0.203-0.311-0.449-0.687-0.606-1.118c-0.141-0.438-0.261-0.918-0.366-1.394c-0.231-0.947-0.44-1.893-0.543-2.614
				c-0.107-0.719-0.179-1.198-0.179-1.198L40.322,53.199z"/>
		</g>
		<g>
			<path fill="#000433" d="M33.212,18.829c0,0-0.172-0.313-0.429-0.782c-0.271-0.463-0.597-1.09-0.961-1.69
				c-0.172-0.308-0.403-0.576-0.557-0.86c-0.144-0.289-0.259-0.558-0.328-0.818c-0.07-0.257-0.147-0.451-0.169-0.628
				c-0.036-0.163-0.045-0.272-0.045-0.272l0.074-0.066c0,0,0.097,0.033,0.245,0.119c0.152,0.08,0.373,0.219,0.571,0.421
				c0.192,0.202,0.417,0.455,0.573,0.76c0.137,0.313,0.252,0.665,0.36,1.01c0.231,0.687,0.448,1.369,0.562,1.899
				c0.118,0.525,0.196,0.876,0.196,0.876L33.212,18.829z"/>
		</g>
		<g>
			<path fill="#000433" d="M25.168,22.75c0,0-0.319-0.159-0.799-0.397c-0.486-0.225-1.113-0.553-1.755-0.838
				c-0.316-0.154-0.659-0.242-0.948-0.388c-0.283-0.155-0.531-0.309-0.737-0.483c-0.204-0.171-0.379-0.286-0.498-0.419
				c-0.122-0.113-0.192-0.197-0.192-0.197l0.023-0.098c0,0,0.098-0.027,0.27-0.042c0.17-0.021,0.432-0.034,0.709,0.019
				c0.273,0.057,0.603,0.135,0.904,0.296c0.291,0.179,0.588,0.401,0.873,0.622c0.582,0.432,1.151,0.867,1.547,1.237
				c0.396,0.364,0.662,0.606,0.662,0.606L25.168,22.75z"/>
		</g>
		<g>
			<path fill="#000433" d="M15.168,17.75c0,0-0.319-0.159-0.799-0.397c-0.486-0.225-1.113-0.553-1.755-0.838
				c-0.316-0.154-0.659-0.242-0.948-0.388c-0.283-0.155-0.531-0.309-0.737-0.483c-0.204-0.171-0.379-0.286-0.498-0.419
				c-0.122-0.113-0.192-0.197-0.192-0.197l0.023-0.098c0,0,0.098-0.027,0.27-0.042c0.17-0.021,0.432-0.034,0.709,0.019
				c0.273,0.057,0.603,0.135,0.904,0.296c0.291,0.179,0.588,0.401,0.873,0.622c0.582,0.432,1.151,0.867,1.547,1.237
				c0.396,0.364,0.662,0.606,0.662,0.606L15.168,17.75z"/>
		</g>
		<g>
			<path fill="#000433" d="M19.229,30.47c0,0-0.266,0.084-0.665,0.209c-0.395,0.14-0.924,0.286-1.437,0.47
				c-0.261,0.082-0.499,0.223-0.738,0.29c-0.241,0.057-0.464,0.082-0.677,0.072c-0.208-0.007-0.372-0.001-0.517-0.033
				c-0.135-0.017-0.226-0.041-0.226-0.041l-0.047-0.088c0,0,0.036-0.078,0.123-0.189c0.08-0.117,0.222-0.275,0.407-0.405
				c0.185-0.123,0.416-0.26,0.677-0.324c0.264-0.044,0.557-0.054,0.839-0.065c1.127-0.096,2.248,0.006,2.248,0.006L19.229,30.47z"/>
		</g>
		<g>
			<path fill="#000433" d="M56.666,17.111c0,0,0.533-0.364,1.312-0.937c0.775-0.577,1.819-1.325,2.817-2.126
				c0.513-0.384,0.959-0.844,1.429-1.207c0.476-0.356,0.902-0.692,1.313-0.945c0.406-0.257,0.694-0.512,0.954-0.653
				c0.241-0.156,0.396-0.238,0.396-0.238l0.078,0.063c0,0-0.064,0.153-0.209,0.407c-0.068,0.131-0.159,0.285-0.271,0.459
				c-0.113,0.171-0.236,0.378-0.408,0.552c-0.331,0.363-0.724,0.806-1.211,1.176c-0.502,0.353-1.051,0.713-1.611,1.042
				c-1.106,0.684-2.225,1.335-3.095,1.769c-0.861,0.448-1.444,0.726-1.444,0.726L56.666,17.111z"/>
		</g>
		<g>
			<path fill="#000433" d="M63.075,34.883c0,0,0.643,0.063,1.606,0.123c0.965,0.056,2.246,0.152,3.524,0.18
				c0.64,0.034,1.277-0.031,1.871-0.008c0.593,0.032,1.136,0.048,1.614,0.118c0.476,0.064,0.86,0.054,1.15,0.112
				c0.285,0.035,0.457,0.072,0.457,0.072l0.02,0.098c0,0-0.147,0.076-0.422,0.178c-0.136,0.057-0.305,0.116-0.502,0.179
				c-0.196,0.058-0.424,0.138-0.667,0.161c-0.487,0.065-1.072,0.152-1.684,0.123c-0.611-0.053-1.264-0.129-1.904-0.236
				c-1.287-0.186-2.563-0.404-3.508-0.63c-0.948-0.21-1.574-0.372-1.574-0.372L63.075,34.883z"/>
		</g>
		<g>
			<path fill="#000433" d="M28.719,10.096c0,0-0.234-0.514-0.612-1.27c-0.383-0.753-0.869-1.766-1.408-2.743
				c-0.254-0.499-0.587-0.949-0.825-1.409c-0.231-0.463-0.447-0.885-0.593-1.281c-0.149-0.392-0.313-0.684-0.387-0.936
				c-0.09-0.236-0.13-0.388-0.13-0.388l0.074-0.066c0,0,0.127,0.075,0.33,0.234c0.106,0.076,0.229,0.176,0.365,0.297
				c0.133,0.122,0.298,0.258,0.424,0.432c0.269,0.338,0.594,0.743,0.837,1.223c0.223,0.488,0.44,1.022,0.63,1.558
				c0.406,1.064,0.783,2.133,1.009,2.953c0.24,0.815,0.38,1.363,0.38,1.363L28.719,10.096z"/>
		</g>
		<g>
			<path fill="#000433" d="M8.497,32.549c0,0-0.427,0.104-1.065,0.26c-0.635,0.171-1.483,0.369-2.313,0.615
				c-0.42,0.109-0.813,0.295-1.201,0.396c-0.389,0.092-0.745,0.165-1.073,0.188c-0.324,0.029-0.578,0.082-0.789,0.075
				c-0.2,0.012-0.327,0.003-0.327,0.003l-0.047-0.088c0,0,0.073-0.094,0.225-0.233c0.146-0.143,0.379-0.348,0.68-0.514
				c0.301-0.157,0.666-0.341,1.073-0.44c0.412-0.077,0.86-0.131,1.302-0.171c0.883-0.097,1.76-0.176,2.423-0.178
				c0.661-0.008,1.102-0.013,1.102-0.013L8.497,32.549z"/>
		</g>
		<path fill="#000433" d="M32.322,32.096c-0.076-0.237-0.17-0.465-0.307-0.672c-0.103-0.137-0.207-0.272-0.313-0.406
			c0.192,0.245-0.077-0.146-0.09-0.167c-0.4-0.711-1.355-0.946-2.052-0.538c-0.248,0.146-0.434,0.354-0.558,0.592
			c-0.396,0.082-0.758,0.316-0.98,0.696c-0.405,0.691-0.178,1.658,0.538,2.052c0.263,0.146,0.485,0.35,0.752,0.487
			c0.604,0.311,1.254,0.344,1.903,0.164C32.098,34.06,32.597,32.952,32.322,32.096z"/>
		<path fill="#000433" d="M45.467,31.411c-0.327-0.09-0.651-0.059-0.939,0.058c-0.269-0.222-0.607-0.361-0.959-0.361
			c-0.844,0-1.466,0.684-1.5,1.5c-0.007,0.112-0.007,0.143-0.001,0.111c-0.022,0.154-0.045,0.308-0.06,0.463
			c-0.04,0.408,0.131,0.829,0.311,1.182c0.41,0.8,1.305,1.108,2.144,1.156c0.674,0.038,1.389-0.401,1.683-1
			c0.203-0.414,0.238-0.831,0.37-1.264C46.754,32.475,46.238,31.623,45.467,31.411z"/>
		<g>
			<path fill="#000433" d="M26.335,39.515c0,0,1.356,0.834,3.414,1.826c0.52,0.238,1.08,0.492,1.678,0.737
				c0.597,0.247,1.238,0.464,1.896,0.682c0.658,0.225,1.356,0.367,2.055,0.524c0.705,0.12,1.42,0.244,2.137,0.264
				c0.717,0.057,1.431,0.013,2.132-0.043c0.694-0.098,1.386-0.187,2.032-0.385c0.648-0.185,1.276-0.396,1.853-0.652
				c0.582-0.246,1.109-0.539,1.614-0.796c0.466-0.311,0.942-0.544,1.315-0.823c0.375-0.273,0.739-0.48,1-0.697
				c0.544-0.409,0.876-0.637,0.876-0.637s-0.202,0.337-0.592,0.916c-0.188,0.297-0.463,0.616-0.777,0.99
				c-0.301,0.39-0.714,0.757-1.15,1.183c-0.468,0.386-0.974,0.823-1.585,1.182c-0.595,0.381-1.263,0.741-1.998,1.007
				c-1.455,0.577-3.158,0.86-4.829,0.752c-1.676-0.082-3.293-0.533-4.695-1.138c-1.411-0.594-2.606-1.364-3.56-2.092
				C27.236,40.85,26.335,39.515,26.335,39.515z"/>
		</g>
	</g>
</g>
<g id="home">
</g>
<g id="new_with_add">
</g>
<g id="new_with_more">
</g>
<g id="new_with_less">
</g>
<g id="new_sub">
</g>
<g id="new_description">
</g>
<g id="new_desc_w_milestone">
</g>
</svg>
