<?xml version="1.0" encoding="utf-8"?>
<!-- Generator: Adobe Illustrator 16.0.3, SVG Export Plug-In . SVG Version: 6.00 Build 0)  -->
<!DOCTYPE svg PUBLIC "-//W3C//DTD SVG 1.1//EN" "http://www.w3.org/Graphics/SVG/1.1/DTD/svg11.dtd">
<svg version="1.1" xmlns="http://www.w3.org/2000/svg" xmlns:xlink="http://www.w3.org/1999/xlink" x="0px" y="0px" width="155px"
	 height="155px" viewBox="0 0 155 155" enable-background="new 0 0 155 155" xml:space="preserve">
<metadata><?xpacket begin="﻿" id="W5M0MpCehiHzreSzNTczkc9d"?>
<x:xmpmeta xmlns:x="adobe:ns:meta/" x:xmptk="Adobe XMP Core 5.3-c011 66.145661, 2012/02/06-14:56:27        ">
   <rdf:RDF xmlns:rdf="http://www.w3.org/1999/02/22-rdf-syntax-ns#">
      <rdf:Description rdf:about=""
            xmlns:dc="http://purl.org/dc/elements/1.1/">
         <dc:format>image/svg+xml</dc:format>
         <dc:title>
            <rdf:Alt>
               <rdf:li xml:lang="x-default">what ive learned</rdf:li>
            </rdf:Alt>
         </dc:title>
         <dc:creator>
            <rdf:Seq>
               <rdf:li>Alex Kott</rdf:li>
            </rdf:Seq>
         </dc:creator>
      </rdf:Description>
      <rdf:Description rdf:about=""
            xmlns:xmp="http://ns.adobe.com/xap/1.0/"
            xmlns:xmpGImg="http://ns.adobe.com/xap/1.0/g/img/">
         <xmp:CreatorTool>Adobe Illustrator CS6 (Windows)</xmp:CreatorTool>
         <xmp:CreateDate>2015-04-21T11:43:19+02:00</xmp:CreateDate>
         <xmp:ModifyDate>2015-04-21T11:43:19+02:00</xmp:ModifyDate>
         <xmp:MetadataDate>2015-04-21T11:43:19+02:00</xmp:MetadataDate>
         <xmp:Thumbnails>
            <rdf:Alt>
               <rdf:li rdf:parseType="Resource">
                  <xmpGImg:width>256</xmpGImg:width>
                  <xmpGImg:height>84</xmpGImg:height>
                  <xmpGImg:format>JPEG</xmpGImg:format>
                  <xmpGImg:image>/9j/4AAQSkZJRgABAgEASABIAAD/7QAsUGhvdG9zaG9wIDMuMAA4QklNA+0AAAAAABAASAAAAAEA&#xA;AQBIAAAAAQAB/+4ADkFkb2JlAGTAAAAAAf/bAIQABgQEBAUEBgUFBgkGBQYJCwgGBggLDAoKCwoK&#xA;DBAMDAwMDAwQDA4PEA8ODBMTFBQTExwbGxscHx8fHx8fHx8fHwEHBwcNDA0YEBAYGhURFRofHx8f&#xA;Hx8fHx8fHx8fHx8fHx8fHx8fHx8fHx8fHx8fHx8fHx8fHx8fHx8fHx8fHx8f/8AAEQgAVAEAAwER&#xA;AAIRAQMRAf/EAaIAAAAHAQEBAQEAAAAAAAAAAAQFAwIGAQAHCAkKCwEAAgIDAQEBAQEAAAAAAAAA&#xA;AQACAwQFBgcICQoLEAACAQMDAgQCBgcDBAIGAnMBAgMRBAAFIRIxQVEGE2EicYEUMpGhBxWxQiPB&#xA;UtHhMxZi8CRygvElQzRTkqKyY3PCNUQnk6OzNhdUZHTD0uIIJoMJChgZhJRFRqS0VtNVKBry4/PE&#xA;1OT0ZXWFlaW1xdXl9WZ2hpamtsbW5vY3R1dnd4eXp7fH1+f3OEhYaHiImKi4yNjo+Ck5SVlpeYmZ&#xA;qbnJ2en5KjpKWmp6ipqqusra6voRAAICAQIDBQUEBQYECAMDbQEAAhEDBCESMUEFURNhIgZxgZEy&#xA;obHwFMHR4SNCFVJicvEzJDRDghaSUyWiY7LCB3PSNeJEgxdUkwgJChgZJjZFGidkdFU38qOzwygp&#xA;0+PzhJSktMTU5PRldYWVpbXF1eX1RlZmdoaWprbG1ub2R1dnd4eXp7fH1+f3OEhYaHiImKi4yNjo&#xA;+DlJWWl5iZmpucnZ6fkqOkpaanqKmqq6ytrq+v/aAAwDAQACEQMRAD8A6Nq3mT81rPW7iOz8qxah&#xA;o6SOtrJFcwpLIhQCMv6sienSQEseLVUjYEE5tQA4aNuvMfn230+zu18rG5mmFy9zYRXUAliVSTaq&#xA;zswj5Mn95xLAN9mvZoKt1PzX55tdTS3s/J81/aMIzJcpd2sYSqI8oXm45kc2UfZFV6muzQ71Qt15&#xA;j/Mu99fTLfym2mXMi8YdXkvraW1jJGzsFBmIrtRYyfljQVmsNtq8flKC3ku1k1RRxku+A4mTjuwX&#xA;9Va+JB6ZT/H8Gf8AD8WKaTqP5gy+WVuhYQS6yLkwvZ3zyWaehC7I0issc78n41WtQR8QNOtxq2CP&#xA;tdU88Okv1nQbWF0/uxHf+or1iDChMEZH734DUDb4vbBsqnFqP5iOtoX0XTozJIReA6hKfSiolGWl&#xA;t8bmr1XYCn2jWuOysnT7Q+YyJUJJ+ZV95jsLOS50KF7m49WON4o4/UkCuVHqKu5PE0B2Pwkk9Mjg&#xA;+kMp/Uh9UvPPlrcOumaZY6napHGI5J7x7SZ5KH1SyrbzIN6cQPvGWbMVOfVPzC4xfV9AsTJJwLiX&#xA;UWVI6whpAzLbOdpiUUqp5AVPGuOy7I/SbnzXJeyJqtjZ21isYMU1vcyTStJ8NQ0TQxqq/a39Qnpt&#xA;iaVkNp/cXP8AqfxynJzDKPIsKstS84ya9rFm1uhitIRNZGVTFbyPIpEMYnAdipZDzIUlPA1GXbMV&#xA;Sw1T8w2VEv8AQLGOQxsWlg1Bnj9ReFAQ9ujKHq3TlSnXfHZV0upfmAWvDBodjwjNLES37q0vxoPj&#xA;4W7iMcCzdW3FKDqXZU+sHvnsoWv4o4b1kBuIoXaWNX7hHZYyw9yowId5sm1SHQRLpac7xISyKAGa&#xA;grXip+0w6he/TK8fM+9slyDHVttZ1by7Yahd6xdaJcRxtdTNBHDGeDRnj68dxHLTgDzKkCjbHplh&#xA;kBueSIQMpCIFk7JEmoUtBaN5+upL6UyCOtraNOiTRoyGSKGEECNY2ZXou7/FX4RmP+dxd7tD2Jqt&#xA;zwbDr051sTsTfROdC06W/EF5Z+cdQ1G2tZj6/wANjwmYcGMUvC2SgA2/d8TuamuW480Zi47uDqtJ&#xA;lwS4ckeGRF79zNtO/wB7Yvmf1HBl+ktOPmxPWdQ8yw+bNNs7WL/cXdGQSzCP1EHFCzeq23pkcfg7&#xA;NWmWjkxSzzRZXenzSXLedb3R1vZWeKNo7GWGMAKKKJoGKxpT+bq29dsqyZ4Y64nL0mhy6ixjjxcK&#xA;HbVLG6uhOnnm4Sy9aRFWGG2EbvJKJFiWZoHVlRKRLx+Lr8XLKxrcR6hypdiasc8ZurrawPMcx+Cy&#xA;zRNKv9PilW81a51V5GqslysCFBueKiCOId+9cyS6pOnEh0iYRECTn8BPTlx2r1yk/X8GX8LCtDbz&#xA;PrmlaxbalPcaVOZntreeKJIpoqAFmhZw6OgJ4o/E8tz8rixSpLwafJdwXvn65m9MiJI5YLH1xLbN&#xA;zmCelApk5L+7ZeFetDXMeWsxCwSNnaY+xtVMAxgSJAHyo8rPIIvS7abU5JIbPzxe3F3GyySRxxWa&#xA;hEViCODW/Kkh2Ysx3B48emTx6iEzUTbRqez8+CIlkgYg9WaQxmOGONpGlZFCmV6cmIFOTcQoqe9B&#xA;ljgr8VSez/Sl+JpzfG3h9e4hSKKKPkogleEHnIJNzw5Gq4VVbS1uJEeSPV7mccnjHNLbiHjco32I&#xA;UOzKR1xVF6fJO9tWdleUSSoWVeIISRlXardgO+BUyb/jmp/xlP8AxHKh9fwZ/wAKFy1gxUyfmabi&#xA;SJbfSo4ZJVaO7eWaQxRCUBo/QVI/UJhBYN6q/F2pktko7yzd+brg3Y8xWNtZGJkS3NrK0qyGhLsC&#xA;wU8N1C1ANa1HTAaVPU+0PmMiVCI1H/e2X5j9QyGL6Qyyc0n1r9N/VUGjiH6y0qCRrgkKsVauVADc&#xA;m7AH55YGDG57/wDNmO3muxpWku8aL6WmxXM7vK4ZuZ+sPHCqArxovpnua9slsnZltk141lbteqiX&#xA;hjQ3KREmMS8RzCE7lQ1aVyKEwtP7i5/1P45Vk5hnHkULlrBjeteY/MthqUkNn5ZutVs1VfTnt5rV&#xA;CzkVO080VFFaePXt1ICWtI8zeYLnV4NM1Ly7NYtJb/WJbxJkmtoz0MZeiEvy2AA6b7d0haZLgQq6&#xA;pa29zaW0U6CSLhUxt9ltzsy9GHsdsqx8yzlyDFvMem2VlZNdWHlm21a5LN6kKxwK9PTdg/xgcquF&#xA;Ugb75cGLFY9Z1ieP6zb/AJXygNG7er61hbysQgMXGrLIA9aGtCvgemGh3srPeyLyklzI09pN5cuN&#xA;AtYlSVG+tK0ckkw5uirDJXlH0diKV6VG+R4QOScmSUjcjZZdpFlbQ6gkiJ+9aoaViXcinTkxLU2G&#xA;1crzfSUY+aEu9V022ldJrmNJF3aLkC9DT9gVb9odssDFjuuarfzyxyaRq9jawoUMy38LcAoL82Dk&#xA;pUnkgC7dDvmPnhlJ9BA94v8AHRx8ozX+7IH4/H60unfUZvQB816LJ6cvqxB7aIjpxTiPX2KGtCMq&#xA;lp8x/ijz/m/tTGWqjdZOfPbmD05svGs6R8am/ty8QBl/ep8NRWrCu1czabkzW4g/Q8k/qL6Ik5GX&#xA;kOIULueXSgyo/X8Gf8KVPr+joR/pSOCKho6yL1p1QMMtpgxU3nmAyuj+Z9Jt0cIbdpLcCdjxCuWj&#xA;eSPiC/KnXMLwdRZ9Ua/q/tcXh1PLjFe78fpR2hXQgvri6u9f0u6ieMG4+rpFE/NaBWZxI3wKo6NX&#xA;fuBtlmLDkjK5EG+4V+lvjLOQBOfFEch3e5kMWqaZK0axXkEjSisSrIhLD/Jod+uZLNFYqk+lQ3Mt&#xA;gywzG2pe3pcqoZiPrcvTnyA8ehwlV2hafd28TtLd3Dj6xcH0ZUt1BBmk+L93FGfjrz64lURo0zTW&#xA;cjsACLq7TbwS5kQf8RwFU4b/AI5qf8ZT/wARyofX8Gf8KFy1gwZvLWmw6tqNwnm6/tb55llv0+sW&#xA;4RY5GkKQFHiKqOMoUN/eABaMMlfklOvKWnT2cd60muya5FLOTbtIyOIIwKrFyTdm+KpZjU7dqYCp&#xA;ZAn2h8xkSoRGo/72y/MfqGQxfSGWTmkHmnTrbUNFmgu7+XTrMFJbm5hZFb04mDlS0iuOLcaNtuNs&#xA;tDFitx5fiS1a30/z5e2kxiR7VZ7i2mESqF5PxdFkcERNs7FQa7UqMN+Ss8t4jDbxRGRpTGioZXNX&#xA;biKcmPie+RQjrT+4uf8AU/jlWTmGceRQuWsGNa1o3mi61n6zYeYV02D0DHa2X1cSgyhHrI/OQBxz&#xA;ZCQFB4rQFak4QUu0nT/PsGth9U1ezvdIMbM8cVqYJfVJoqJWSSkYBrUsSdh4kppWS4EIq7/uLb/U&#xA;/jlWPmWcuQQuWsGDRaF+YEpNzpXnSCa2nZ3Z57KO6RT/ACQelJDxRX5CjMxpQV2yVjuSzW2ilito&#xA;opZTPLGirJOwCs7AULkKAoLHfYZFCN07/e2L5n9RyvL9JZ4+aHYDm3ud8mGJYpe+avNdrPaRp5Su&#xA;rxZ4kedre5tB6UnHlJGfWkiVioNBRt2B7UJlQWlWy8y+ZptV+o3Pla5toQGY3/1m1eCiqx+GjiQl&#xA;mUKvwd6njjQVNdCv9Qv9MiudQ099Lu2qstpJJHLQqaVV4ywZG6qdjTqBgKp0ADprg9PVH/EcqP1/&#xA;Bl/ClOpXd9bJG1pZte1L+qquqMqrC7rx5bMXkVUA/wAqtdstYMch83ecZDOreS7tTASFb63ZcZeJ&#xA;ofTrJy3qGXkAKV3BoCaHemkVa+ZvMs9naXL+V7mBp7j0p7WS4tvWih4qPWorlG/eN9nlXgpbrRS0&#xA;tMlwIdirH/rdpbTXcFveX1VlcskdnJcRJLIxlcK6QNy3k3HM06bYUqlvPczRsWv7wA7KVsWicHxp&#xA;LC9fuxQjtGjt47ALbvLKnqzF5J14SNI0ztISvGP9snooHhgKpw3/ABzU/wCMp/4jlQ+v4M/4Up1j&#xA;Uk0zTLm/eKScW6FxDCpeRyOiqAD1P3ZaGDzzV9f/ACsu9ZW31Pypc3l9PJM8ckuiTTCTiQkkyM0R&#xA;5K3EVYe3KmTAPey3THyN5v8AJYuI9B8uaTqVqk00zTGSwuYoYpQpZvWmlHFTxVVUV2+FfbAQUEM/&#xA;T7Q+YyBUIjUf97ZfmP1DIYvpDLJzYl5q8xaNaSjStT0y71KG4RJHjt7Ka8Q1lAWqxo4PHiXPhQd2&#xA;UG0BiwK9178l54biabypdCIXvO6nj0edFe5hkpykkSMBz6jcaMa1O4yVFO707y/r9vrlk95b2t3a&#xA;xLK0SrfW8lrI/EA81jlCvwNdiRkSEJ7af3Fz/qfxynJzDKPIoXLWDznzB5h/KLXJxc6lrgjntYtm&#xA;t764tmWLk7cv9GdNm4cv9XiTsVyQBTuh9B8x/k55Z1G5msvMsatPDAkdnLdSTIkfFCphjcsWMoKk&#xA;tuT9GEglO707IMUVd/3Ft/qfxyrHzLOXIIC7tYbu0mtJwTDcRtFKFZkPFwVajKQymh6g1y1gxaL8&#xA;qvJkCTx2sFzaW9wJA1ra3l3BbqJQQ3CCKVIl+0aUXbtkuIptkGkaLp2kWzW1hG0cLyNKwZ3kPJqD&#xA;q5Y0AAAHYZElCb6d/vbF8z+o5Xl+ks8fNDv9o/M5MMSxWz/LTyna3cF16d3cyW031q2S7vbu5ijm&#xA;6+osU0rx8q7149emS4itqEv5UeULi5N3dLeT3byNNJP9duoi0ryeq0nGGSNFblShUCgAA2AGHiK2&#xA;mGheRfL2h3sd5p6XAmhtjZwCW6uJo44Gk9XgkcsjoKNsNqgbDbAStsqX/jmv/wAZR/xHKT9fwZfw&#xA;pHrvl/Ttcto7a+MwjicyIbeea3YPwZK84WRtg5I3675cDTBKD+Wvlf6lcWgW59O9lim1CVrqeSe5&#xA;MAPpLLcO7TcUajAK4FR4EgvEU2oRflP5MiEpiivEllkWX1xqF96qutQGjk9bmho7iqmtGbxOHiK2&#xA;yHQdD07QtLh0vTlkW0g5FBLLJM9XYuxaSVndqsx6nIkqj8UJBFqMmm6Tcyi1lvLw3F9LHaQgGSRU&#xA;uJKGpIAATjufYCpoCUoTyt50u9ZvLq3n05Iobd1iW+s7g3duzmp4lzFAw2oQQpBBBqKiqQtJ1oLu&#xA;9jKWJJF3eip8Fu5QB9AGJQnTf8c1P+Mp/wCI5SPr+DP+FC5awSm/1p4Z5Y7W1+sNalVuZnb044zI&#xA;ARGCFkdnIZTxC0oRUjDSouyvlnkmgeFre5h4maNht8deLI42dTxO/wB9DtgVGJ9ofMYCkIjUf97Z&#xA;fmP1DIYvpDLJzSj9N2B5mMyTRxkq8sMMsqclNCoZFYMQag8a0oa5ZTBfFqOmy6YmpJNGdPeMXK3B&#xA;ICemRzD1P34qhoPMmlyy+n++h+IKHngmiWrDbkXVeFei86cu1cNKn1p/cXP+p/HKcnMM48ihGZVF&#xA;WIA8TlrBCyabpVzBGklrBNArrNECisodTyR12pUHcHFVw0zTRdfWxaxfWioT1+C8+KsWA5Ur9pic&#xA;VRAZWFVIIqRUeINDiqLu/wC4tv8AU/jlWPmWcuQQuWsEqPmO2MhEFvcXMKsyG5iQFCyV5hAzLJLx&#xA;4mvpq3h1w0qPs7y2vLZLm1kEsEgqjr0NDQ/SCKEYFR+nf72xfM/qOV5fpLPHzQl3cQ20U1xO4jgh&#xA;VpJZG2CooJZj7ADJhilujeZtF1l5o9PnMktuscksTxyQuEmBaJ+MqoSrgVUjbJEKqXOsJHdNa21t&#xA;NfXEYBnS3EYEYbcc3leJKkb8eXKm9KYKQq6fqtlfqxt3rJHT1ojTmhbpyAr1psRseoJGKpqv/HNf&#xA;/jKP+I5Ufr+DP+Fj2v8AmjTNDEX1z1WeYSOkcMbyNwhQvI9FB+FaDl4VFdsuAYouz1fTbzS01W3n&#xA;VtOkjMyXJPFDEKnnU0otBXfBSEG3ma3QJNPaXNvZSkCK8lVFVqqWr6XP6woABJ5RigBJ23w0lN0d&#xA;XRXQhkYAqw6EHcHAhvFUpt7i409JYZbW4mBuJ5I5YwsgZZZGlGwbkOPqcfiA6eGFUSL2ZeAj024K&#xA;OSSQYFC8tyWDSqdyfDArWipcrYn6zCYJXmuJPSPAlVknd0r6ZZa8GFaHEqnDf8c1P+Mp/wCI5UPr&#xA;+DP+FC5awY1qmhSPfXckln9ftbt0mXi0ZkilREQqYpikLowhU1LVqelOhtKZ6PpjW0k11LEkE06x&#xA;xJbQsTFFDDyMcaiiLXlI7EhR1puAMShM0+0PmMiUhV1ZGee4RWKMwKhx1UlaVHyyGL6QyyfUwa1i&#xA;u7VbC3kjuYZLaKKHUrK3tpXjuZLZVELQzr+4RGI+IswqlFfjQgXMU1udLvE8urEIvXvEnW+ktlYG&#xA;r/WfrTxxlyqkqSRFyIWoWtBgVL5Le8vTf2sV1fTrqb8OE9osEUMDxJHI7PJbxVdKMUUMamlRTkQV&#xA;Zxaf3Fz/AKn8coycwyjyLBPMcywajcTXT26XIeNNPGo0Fo9vKixuqMylRKspZyifG4CqdivG8MUN&#xA;daeyaTarM0dvpoW5+ppew/uI3d6wGeINCiVSpj58VjJ405cRiq60tLk6ZcTW1Z7Ex2S3Mdoskccz&#xA;QzFrpoEV5OYeJqOUr6lOI5HFVXQ7ON9TtDavDc/V5WuGu7eIRrFFLFIj2ZKooKpKyFFZi1PtAcQS&#xA;lWe3f9xbf6n8cox8yylyCFy1gw2HTJLcafFdxX8l3pqGGOG3eURTBUEaPHJG0cSBuFSsrCnT3MrS&#xA;yXRrKWz09Ypm5Tu8s89CWUSXErTSKhIB4q0hC17ZEoTbTv8Ae2L5n9RyvL9JZ4+aWa3aWd5pd/aX&#xA;oJs7iCaK5C9fSdCr0678ScsDFh35axam9zf3Oq3V3eXqQ21vFJdQvCEt1MhRBySP1HJ+J3PxbhT0&#xA;qZSUpnqdhepPeQF7mC0vJhKbm1T1jJHKiRzQSqn7xHpH+7lX7II32IIVNtKs5RdXN/NEbdp1iggt&#xA;qj93b24YoGVSUDF5XPwnpxHbFCeL/wAc1/8AjKP+I5Sfr+DP+F5z+aWjtdx2NzZz3VpqMZlj9a0j&#xA;eUtbSKonR0jHJ/hUMq/tU4jc5fEsQnun6RB/gm207TEMKNZRi2S4ry5emCvrkCtSft/D47YL3VDA&#xA;anNezTrFdG7dDFa29yiCKyMp/eyesCUmU0UqF5MKU2DbKsjs7WO0tILWMsY4I1iQsasVRQoqfHbA&#xA;hOP0K3+/R939uY35jybvB83foVv9+j7v7cfzHkvg+bv0K3+/R939uP5jyXwfN36Fb/fo+7+3H8x5&#xA;L4PmqnS2NsIfUFQ5blT2p45HxvVdMvD2pS/Qrf79H3f25L8x5MfB83foVv8Afo+7+3H8x5L4Pm79&#xA;Ct/v0fd/bj+Y8l8HzcNGYEH1Rt7f24/mPJfBVLnS2mneQSAcu1Pb55GGehVMpY7Nqf6Fb/fo+7+3&#xA;JfmPJj4Pm79Ct/v0fd/bj+Y8l8Hzd+hW/wB+j7v7cfzHkvg+arDpbRxyr6gPqLxrTpv88jLNZGzI&#xA;Y6Uv0K3+/R939uS/MeTHwfN36Fb/AH6Pu/tx/MeS+D5u/Qrf79H3f24/mPJfB83foVv9+j7v7cfz&#xA;Hkvg+arNpbSRxL6gHprxrTrv88jHNROzI47Uv0K3+/R939uS/MeTHwfN36Fb/fo+7+3H8x5L4Pm7&#xA;9Ct/v0fd/bj+Y8l8HzVLbS2hnSQyA8e1Pb55GeexVMo46NqZ0ZiSfVG/t/bkvzHkx8F36Fb/AH6P&#xA;u/tx/MeS+D5u/Qrf79H3f24/mPJfB83foVv9+j7v7cfzHkvg+aqNLYWxh9QVLhuVPanjkfG9V0y8&#xA;PalL9Ct/v0fd/bkvzHkx8Hzd+hW/36Pu/tx/MeS+D5u/Qrf79H3f24/mPJfB83foVv8Afo+7+3H8&#xA;x5L4PmxPWvzR1fSvMN3pzeTtXutOtX9NNTtYWmWasKOpiRVNayyenu3v4gVDGCOYbrRt7+ZDWen2&#xA;+oTeXdXNtPJeKUjtJJJ1htKhJWgRS6+u1AivxPc7DAMfmFtrUvzPtdPvbe2k0LWZvrUcMiG3sZpm&#xA;QyKskiyqgbj6Ucik7mpDKPiXdGO+oW0Fc/mrc3HPTtM8sa9HrUw4Wi3envHbq7HijSz8vRRep3ft&#xA;8qkY+8iltmmi/pY6TanV/SGpmNTdrBX0xIR8QUnrTxys1eyUbgV2KuxV2KuxV2KuxV2KuxV2KuxV&#xA;2KuxV2KuxV2KuxV2KuxV2KuxV2KuxV2KuxV2KuxVJ47jW7vUr6O3ntoLWynSDhJbySyODBFMx5ia&#xA;MD+9oPh7ZLalVLX9OPLMjahZSmE+nIkdpKpSQqrgNW5f9lwae+JpVGfUdUg0czs8El413HaRuI3W&#xA;JRJdLbcinqMzU5cqcxXpt1xoWqt9W80/9XCx/wCkKb/srx2Vu4n1S3udPikubcrdTmFwLeQFuMMk&#xA;pCn1iFNIuprjsqZ5FXYq7FXYq7FXYq7FXYq7FXYq7FXYq7FXYq7FXYq7FXYq7FXYq7FXYq7FXYq7&#xA;FXYq7FUl09byU6pJaSRQXEl+3N5Y2lSkcUcX2VkiNSsY/a+jJFVPSINeGpamZri19H62nIJayo0g&#xA;+rwfEGadh9n4eh3H0YmqQ5niuNOlik+BYNUjFa0qy3qSr/wzAYqk3nDSfPl60Uum3TxlgyJaWswi&#xA;ihcsgWaWQmGWX93z8VVuNYpBU5KBj1UpzJbanFNocV7OL2WG+et2qCNnT6jcAPIq/ArcjQ8dvACt&#xA;BHbdKfZFXYq7FXYq7FXYq7FXYq7FXYq7FXYq7FXYq7FXYq7FXYq7FXYq7FXYq7FXYq7FXYq7FWPf&#xA;7n/r+q/oj6t6Pq/8fnqf70ehF9j0/wDdXSvflyye3VCnB/ysrmfX/Q3Di1OH1qvKnw9e1euPp81Q&#xA;0P1v/Dtz9Y4fpP8AScXqU/uPrX1uLhxr8XpcuP8AlU98PVUbF/ysHnF6v6J4Vb1+H1mvH9jhXv41&#xA;wenzVSn/AMS/XLL9K/Vvqv11PQ+o+p6lOD8fV9Xbj/Nx/VXHborJsgl2KuxV2KuxV2KuxV2KuxV2&#xA;KuxV2KuxV2KuxV2KuxV2KuxV2KuxV2KuxV2KuxV2KuxV/9k=</xmpGImg:image>
               </rdf:li>
            </rdf:Alt>
         </xmp:Thumbnails>
      </rdf:Description>
      <rdf:Description rdf:about=""
            xmlns:xmpMM="http://ns.adobe.com/xap/1.0/mm/"
            xmlns:stRef="http://ns.adobe.com/xap/1.0/sType/ResourceRef#"
            xmlns:stEvt="http://ns.adobe.com/xap/1.0/sType/ResourceEvent#">
         <xmpMM:RenditionClass>proof:pdf</xmpMM:RenditionClass>
         <xmpMM:OriginalDocumentID>uuid:65E6390686CF11DBA6E2D887CEACB407</xmpMM:OriginalDocumentID>
         <xmpMM:DocumentID>xmp.did:18D3E856FCE7E41185F891320CD2AF94</xmpMM:DocumentID>
         <xmpMM:InstanceID>xmp.iid:18D3E856FCE7E41185F891320CD2AF94</xmpMM:InstanceID>
         <xmpMM:DerivedFrom rdf:parseType="Resource">
            <stRef:instanceID>xmp.iid:14D3E856FCE7E41185F891320CD2AF94</stRef:instanceID>
            <stRef:documentID>xmp.did:14D3E856FCE7E41185F891320CD2AF94</stRef:documentID>
            <stRef:originalDocumentID>uuid:65E6390686CF11DBA6E2D887CEACB407</stRef:originalDocumentID>
            <stRef:renditionClass>proof:pdf</stRef:renditionClass>
         </xmpMM:DerivedFrom>
         <xmpMM:History>
            <rdf:Seq>
               <rdf:li rdf:parseType="Resource">
                  <stEvt:action>saved</stEvt:action>
                  <stEvt:instanceID>xmp.iid:13D3E856FCE7E41185F891320CD2AF94</stEvt:instanceID>
                  <stEvt:when>2015-04-21T09:59:30+02:00</stEvt:when>
                  <stEvt:softwareAgent>Adobe Illustrator CS6 (Windows)</stEvt:softwareAgent>
                  <stEvt:changed>/</stEvt:changed>
               </rdf:li>
               <rdf:li rdf:parseType="Resource">
                  <stEvt:action>saved</stEvt:action>
                  <stEvt:instanceID>xmp.iid:18D3E856FCE7E41185F891320CD2AF94</stEvt:instanceID>
                  <stEvt:when>2015-04-21T11:43:19+02:00</stEvt:when>
                  <stEvt:softwareAgent>Adobe Illustrator CS6 (Windows)</stEvt:softwareAgent>
                  <stEvt:changed>/</stEvt:changed>
               </rdf:li>
            </rdf:Seq>
         </xmpMM:History>
      </rdf:Description>
      <rdf:Description rdf:about=""
            xmlns:illustrator="http://ns.adobe.com/illustrator/1.0/">
         <illustrator:StartupProfile>Web</illustrator:StartupProfile>
      </rdf:Description>
      <rdf:Description rdf:about=""
            xmlns:xmpTPg="http://ns.adobe.com/xap/1.0/t/pg/"
            xmlns:stDim="http://ns.adobe.com/xap/1.0/sType/Dimensions#"
            xmlns:stFnt="http://ns.adobe.com/xap/1.0/sType/Font#"
            xmlns:xmpG="http://ns.adobe.com/xap/1.0/g/">
         <xmpTPg:NPages>1</xmpTPg:NPages>
         <xmpTPg:HasVisibleTransparency>False</xmpTPg:HasVisibleTransparency>
         <xmpTPg:HasVisibleOverprint>False</xmpTPg:HasVisibleOverprint>
         <xmpTPg:MaxPageSize rdf:parseType="Resource">
            <stDim:w>155.000000</stDim:w>
            <stDim:h>155.000000</stDim:h>
            <stDim:unit>Pixels</stDim:unit>
         </xmpTPg:MaxPageSize>
         <xmpTPg:Fonts>
            <rdf:Bag>
               <rdf:li rdf:parseType="Resource">
                  <stFnt:fontName>NothingYouCouldDo</stFnt:fontName>
                  <stFnt:fontFamily>Nothing You Could Do</stFnt:fontFamily>
                  <stFnt:fontFace>Regular</stFnt:fontFace>
                  <stFnt:fontType>Open Type</stFnt:fontType>
                  <stFnt:versionString>Version 1.005</stFnt:versionString>
                  <stFnt:composite>False</stFnt:composite>
                  <stFnt:fontFileName>NothingYouCouldDo.ttf</stFnt:fontFileName>
               </rdf:li>
            </rdf:Bag>
         </xmpTPg:Fonts>
         <xmpTPg:PlateNames>
            <rdf:Seq>
               <rdf:li>Cyan</rdf:li>
               <rdf:li>Magenta</rdf:li>
               <rdf:li>Yellow</rdf:li>
               <rdf:li>Black</rdf:li>
            </rdf:Seq>
         </xmpTPg:PlateNames>
         <xmpTPg:SwatchGroups>
            <rdf:Seq>
               <rdf:li rdf:parseType="Resource">
                  <xmpG:groupName>Standard-Farbfeldgruppe</xmpG:groupName>
                  <xmpG:groupType>0</xmpG:groupType>
                  <xmpG:Colorants>
                     <rdf:Seq>
                        <rdf:li rdf:parseType="Resource">
                           <xmpG:swatchName>Weiß</xmpG:swatchName>
                           <xmpG:mode>RGB</xmpG:mode>
                           <xmpG:type>PROCESS</xmpG:type>
                           <xmpG:red>255</xmpG:red>
                           <xmpG:green>255</xmpG:green>
                           <xmpG:blue>255</xmpG:blue>
                        </rdf:li>
                        <rdf:li rdf:parseType="Resource">
                           <xmpG:swatchName>Schwarz</xmpG:swatchName>
                           <xmpG:mode>RGB</xmpG:mode>
                           <xmpG:type>PROCESS</xmpG:type>
                           <xmpG:red>0</xmpG:red>
                           <xmpG:green>0</xmpG:green>
                           <xmpG:blue>0</xmpG:blue>
                        </rdf:li>
                        <rdf:li rdf:parseType="Resource">
                           <xmpG:swatchName>R=215 G=228 B=255 1</xmpG:swatchName>
                           <xmpG:mode>RGB</xmpG:mode>
                           <xmpG:type>PROCESS</xmpG:type>
                           <xmpG:red>215</xmpG:red>
                           <xmpG:green>228</xmpG:green>
                           <xmpG:blue>255</xmpG:blue>
                        </rdf:li>
                        <rdf:li rdf:parseType="Resource">
                           <xmpG:swatchName>R=0 G=4 B=51 1</xmpG:swatchName>
                           <xmpG:mode>RGB</xmpG:mode>
                           <xmpG:type>PROCESS</xmpG:type>
                           <xmpG:red>0</xmpG:red>
                           <xmpG:green>4</xmpG:green>
                           <xmpG:blue>51</xmpG:blue>
                        </rdf:li>
                        <rdf:li rdf:parseType="Resource">
                           <xmpG:swatchName>R=193 G=0 B=0 1</xmpG:swatchName>
                           <xmpG:mode>RGB</xmpG:mode>
                           <xmpG:type>PROCESS</xmpG:type>
                           <xmpG:red>193</xmpG:red>
                           <xmpG:green>0</xmpG:green>
                           <xmpG:blue>0</xmpG:blue>
                        </rdf:li>
                        <rdf:li rdf:parseType="Resource">
                           <xmpG:swatchName>R=26 G=132 B=0 1</xmpG:swatchName>
                           <xmpG:mode>RGB</xmpG:mode>
                           <xmpG:type>PROCESS</xmpG:type>
                           <xmpG:red>26</xmpG:red>
                           <xmpG:green>132</xmpG:green>
                           <xmpG:blue>0</xmpG:blue>
                        </rdf:li>
                     </rdf:Seq>
                  </xmpG:Colorants>
               </rdf:li>
            </rdf:Seq>
         </xmpTPg:SwatchGroups>
      </rdf:Description>
      <rdf:Description rdf:about=""
            xmlns:pdf="http://ns.adobe.com/pdf/1.3/">
         <pdf:Producer>Adobe PDF library 10.01</pdf:Producer>
      </rdf:Description>
      <rdf:Description rdf:about=""
            xmlns:xmpRights="http://ns.adobe.com/xap/1.0/rights/">
         <xmpRights:Marked>True</xmpRights:Marked>
      </rdf:Description>
   </rdf:RDF>
</x:xmpmeta>
                                                                                                    
                                                                                                    
                                                                                                    
                                                                                                    
                                                                                                    
                                                                                                    
                                                                                                    
                                                                                                    
                                                                                                    
                                                                                                    
                                                                                                    
                                                                                                    
                                                                                                    
                                                                                                    
                                                                                                    
                                                                                                    
                                                                                                    
                                                                                                    
                                                                                                    
                                                                                                    
                           
<?xpacket end="w"?>
	</metadata>
<g id="exports">
	<g id="view_button_1_">
		<g>
			<path fill="#000433" d="M148.641,2.581l-0.488,4.509l-0.383,4.514c-0.221,3.014-0.393,6.03-0.537,9.049
				c-0.124,3.019-0.241,6.037-0.311,9.059l-0.194,9.063c-0.103,6.042-0.106,12.086-0.077,18.13l0.087,9.065l0.129,9.065
				c0.194,12.087,0.538,24.172,0.987,36.253c0.469,12.08,0.883,24.167,1.516,36.235l0.044,0.853l-0.854,0.022
				c-5.877,0.152-11.794,0.479-17.695,0.782l-17.719,0.942c-11.815,0.607-23.634,1.175-35.456,1.665
				c-5.911,0.237-11.824,0.417-17.739,0.567c-5.914,0.162-11.832,0.263-17.751,0.248c-5.919-0.021-11.841-0.149-17.759-0.537
				c-2.958-0.206-5.916-0.482-8.859-0.973c-1.47-0.248-2.938-0.552-4.386-0.99c-0.724-0.222-1.442-0.481-2.143-0.822
				c-0.698-0.347-1.39-0.75-1.966-1.434c-1.005-1.288-1.467-2.766-1.915-4.197c-0.427-1.446-0.747-2.907-1.027-4.372
				c-0.553-2.931-0.938-5.878-1.258-8.829c-0.631-5.902-1-11.82-1.271-17.738c-0.513-11.838-0.649-23.684-0.487-35.524
				c0.156-11.841,0.533-23.678,1.196-35.507c0.341-5.914,0.732-11.827,1.323-17.732c0.293-2.953,0.623-5.904,1.041-8.855
				c0.21-1.476,0.442-2.95,0.726-4.427c0.293-1.481,0.593-2.946,1.159-4.471l0.269-0.725l0.793,0.066
				c6.019,0.505,12.13,0.58,18.225,0.609c6.101,0.026,12.205-0.06,18.313-0.128L80.827,5.43c12.222-0.207,24.45-0.282,36.679-0.15
				c6.114,0.067,12.23,0.228,18.339,0.568c3.054,0.165,6.106,0.387,9.151,0.697c3.04,0.338,6.088,0.695,9.068,1.426l-0.047,0.195
				c-2.978-0.654-6.024-0.938-9.06-1.2c-3.042-0.235-6.091-0.382-9.142-0.472c-6.102-0.187-12.208-0.198-18.314-0.181
				C105.288,6.36,93.075,6.725,80.86,7.021L44.205,7.984c-6.112,0.132-12.229,0.195-18.35,0.194
				C19.732,8.161,13.61,8.104,7.446,7.602l1.062-0.658c-0.465,1.251-0.772,2.694-1.046,4.112c-0.271,1.428-0.496,2.876-0.7,4.328
				c-0.404,2.906-0.727,5.835-1.011,8.768C5.197,30.021,4.745,35.907,4.38,41.801C3.651,53.589,3.209,65.401,2.987,77.215
				c-0.192,11.813-0.264,23.633,0.121,35.438c0.197,5.9,0.494,11.799,1.049,17.667c0.282,2.932,0.629,5.858,1.137,8.747
				c0.258,1.442,0.555,2.877,0.948,4.273c0.406,1.378,0.858,2.792,1.679,3.854c0.373,0.46,0.969,0.854,1.589,1.163
				c0.625,0.315,1.299,0.57,1.985,0.79c1.377,0.437,2.808,0.754,4.249,1.016c2.887,0.52,5.82,0.834,8.759,1.076
				c5.88,0.483,11.792,0.618,17.7,0.671c11.82,0.091,23.646-0.266,35.457-0.825c11.814-0.521,23.618-1.275,35.417-2.089
				l17.702-1.221c5.906-0.386,11.796-0.841,17.742-1.036l-0.809,0.875c-0.656-12.088-1.249-24.171-1.613-36.267
				c-0.376-12.095-0.646-24.193-0.768-36.294c-0.069-6.051-0.061-12.102,0-18.153c0.061-6.051,0.155-12.103,0.349-18.151
				c0.097-3.024,0.19-6.05,0.356-9.072c0.146-3.022,0.339-6.044,0.539-9.063c0.221-3.019,0.469-6.035,0.767-9.047l0.497-4.514
				l0.602-4.497L148.641,2.581z"/>
		</g>
		<g>
			<path fill="#000433" d="M23.041,90.068c0,0,0.442-0.034,1.272-0.099c0.815-0.127,2.027-0.326,3.432-0.959
				c1.403-0.62,2.978-1.648,4.555-3.104c1.6-1.432,3.251-3.225,5.164-5.096c1.917-1.878,4.04-3.815,6.415-5.79
				c2.352-1.976,4.978-3.895,7.812-5.713c2.845-1.801,5.939-3.45,9.251-4.769c3.311-1.313,6.855-2.242,10.474-2.662
				c3.618-0.436,7.303-0.279,10.827,0.348c3.53,0.618,6.89,1.74,9.975,3.133c3.087,1.394,5.938,3.004,8.482,4.749
				c2.549,1.735,4.865,3.502,6.886,5.264c1.022,0.866,1.986,1.712,2.87,2.553c0.895,0.829,1.729,1.629,2.484,2.409
				c1.547,1.523,2.823,2.92,3.885,4.057c1.063,1.136,1.832,2.09,2.384,2.713c0.543,0.631,0.833,0.967,0.833,0.967
				s-1.275-1.234-3.508-3.395c-1.132-1.062-2.492-2.363-4.128-3.771c-0.799-0.724-1.682-1.456-2.616-2.222
				c-0.915-0.789-1.908-1.579-2.958-2.385c-2.083-1.63-4.424-3.281-6.97-4.896c-2.555-1.605-5.362-3.101-8.363-4.39
				c-3.008-1.271-6.235-2.286-9.592-2.865c-3.356-0.582-6.835-0.668-10.27-0.303c-6.894,0.743-13.456,3.51-19.077,6.88
				c-2.83,1.673-5.462,3.484-7.865,5.329c-1.225,0.896-2.351,1.836-3.471,2.725c-1.088,0.941-2.179,1.791-3.155,2.681
				c-1.976,1.764-3.716,3.489-5.406,4.871c-1.669,1.404-3.337,2.397-4.805,2.958c-1.475,0.56-2.713,0.685-3.54,0.762
				C23.484,90.061,23.041,90.068,23.041,90.068z"/>
		</g>
		<g>
			<path fill="#000433" d="M88.541,61.45c0,0,0.241,0.464,0.694,1.333c0.438,0.878,1.079,2.172,1.717,3.896
				c0.644,1.721,1.329,3.858,1.782,6.398c0.451,2.53,0.678,5.494,0.113,8.679c-0.535,3.167-2.003,6.559-4.615,9.271
				c-0.648,0.675-1.35,1.315-2.109,1.905c-0.694,0.568-1.56,1.145-2.369,1.653c-1.68,1.009-3.549,1.813-5.548,2.307
				c-2.001,0.474-4.128,0.651-6.246,0.396c-2.116-0.245-4.213-0.89-6.138-1.891c-3.862-2.02-7.037-5.294-8.883-9.345
				c-0.913-2.015-1.434-4.229-1.462-6.449c-0.041-2.221,0.431-4.425,1.272-6.424c1.694-4.025,4.698-7.18,7.98-9.487
				c3.5-2.323,7.538-3.044,11.214-2.868c3.696,0.172,7.093,1.2,9.94,2.642c2.843,1.472,5.14,3.345,6.881,5.243
				c1.736,1.912,2.94,3.824,3.771,5.463c0.437,0.812,0.718,1.587,1.002,2.239c0.232,0.675,0.45,1.239,0.591,1.71
				c0.268,0.943,0.411,1.446,0.411,1.446s-0.171-0.493-0.492-1.419c-0.166-0.46-0.415-1.011-0.684-1.665
				c-0.317-0.633-0.644-1.379-1.113-2.158c-0.888-1.582-2.153-3.408-3.923-5.198c-1.775-1.779-4.078-3.494-6.868-4.792
				c-2.785-1.284-6.06-2.174-9.556-2.225c-3.458-0.062-7.24,0.728-10.259,2.844c-3.022,2.273-5.754,5.293-7.189,8.921
				c-0.714,1.808-1.086,3.749-1.048,5.693c0.038,1.946,0.505,3.885,1.327,5.671c0.407,0.89,0.911,1.761,1.461,2.556
				c0.57,0.821,1.19,1.602,1.866,2.321c1.358,1.436,2.937,2.647,4.657,3.555c3.445,1.82,7.45,2.312,11.08,1.485
				c3.618-0.819,6.907-2.801,9.363-5.174c2.45-2.427,3.925-5.478,4.556-8.45c0.635-2.984,0.581-5.853,0.277-8.345
				c-0.308-2.501-0.868-4.646-1.413-6.382c-0.551-1.735-1.066-3.077-1.447-3.979C88.748,61.93,88.541,61.45,88.541,61.45z"/>
		</g>
		<g>
			<path fill="#000433" d="M81.735,73.535c0,0,0.122,0.064,0.35,0.187c0.223,0.136,0.553,0.339,0.923,0.669
				c0.729,0.654,1.638,1.864,1.981,3.609c0.171,0.863,0.194,1.849-0.039,2.873c-0.228,1.021-0.792,2.082-1.72,2.882
				c-0.27,0.207-0.394,0.332-0.661,0.513c-0.258,0.172-0.524,0.35-0.796,0.47c-0.538,0.277-1.139,0.471-1.764,0.576
				c-1.252,0.229-2.623-0.002-3.754-0.635c-0.566-0.312-1.096-0.692-1.541-1.151c-0.227-0.244-0.422-0.429-0.64-0.753
				c-0.078-0.124-0.145-0.2-0.233-0.364l-0.255-0.507c-0.541-1.284-0.443-2.732,0.1-3.864c0.545-1.142,1.452-1.969,2.396-2.498
				c0.968-0.535,1.918-0.759,2.885-0.789c0.949-0.02,1.819,0.268,2.448,0.654c0.631,0.401,1.07,0.853,1.373,1.254
				c0.308,0.399,0.499,0.737,0.614,0.976c0.116,0.234,0.179,0.359,0.179,0.359s-0.103-0.094-0.294-0.271
				c-0.193-0.172-0.479-0.422-0.857-0.695c-0.387-0.26-0.854-0.566-1.432-0.744c-0.566-0.199-1.224-0.26-1.916-0.13
				c-0.668,0.115-1.465,0.43-2.116,0.857c-0.667,0.434-1.245,1.06-1.538,1.808c-0.326,0.731-0.34,1.578-0.026,2.289
				c0.354,0.72,1.006,1.416,1.794,1.862c0.387,0.228,0.811,0.382,1.244,0.467c0.431,0.097,0.878,0.136,1.32,0.081
				c0.441-0.046,0.883-0.151,1.298-0.335c0.219-0.082,0.398-0.185,0.592-0.276c0.181-0.085,0.461-0.29,0.612-0.375
				c0.689-0.489,1.162-1.232,1.451-2.017c0.285-0.791,0.363-1.626,0.313-2.39c-0.08-1.545-0.699-2.777-1.259-3.517
				c-0.279-0.378-0.546-0.642-0.731-0.817C81.84,73.625,81.735,73.535,81.735,73.535z"/>
		</g>
	</g>
</g>
<g id="home">
</g>
<g id="new_with_add">
</g>
<g id="new_with_more">
</g>
<g id="new_with_less">
</g>
<g id="new_sub">
</g>
<g id="new_description">
</g>
<g id="new_desc_w_milestone">
</g>
</svg>
