<?xml version="1.0" encoding="utf-8"?>
<!-- Generator: Adobe Illustrator 16.0.3, SVG Export Plug-In . SVG Version: 6.00 Build 0)  -->
<!DOCTYPE svg PUBLIC "-//W3C//DTD SVG 1.1//EN" "http://www.w3.org/Graphics/SVG/1.1/DTD/svg11.dtd">
<svg version="1.1" xmlns="http://www.w3.org/2000/svg" xmlns:xlink="http://www.w3.org/1999/xlink" x="0px" y="0px" width="155px"
	 height="155px" viewBox="0 0 155 155" enable-background="new 0 0 155 155" xml:space="preserve">
<g id="exports">
	<g id="new_button_1_">
		<g>
			<path fill="#000433" d="M148.71,2.148c-0.947,8.893-1.02,17.85-1.032,26.786c0.006,8.94,0.151,17.882,0.396,26.822l0.842,26.819
				l0.949,26.824c0.316,8.945,0.562,17.891,0.538,26.864c-0.016,2.246-0.049,4.491-0.187,6.756
				c-0.081,1.141-0.147,2.254-0.424,3.475c-0.104,0.327-0.117,0.606-0.484,1.109c-0.07,0.075-0.113,0.128-0.219,0.21l-0.085,0.061
				c-0.063,0.043-0.099,0.076-0.189,0.131c-0.163,0.102-0.325,0.196-0.461,0.261c-0.573,0.287-1.133,0.48-1.692,0.655
				c-2.239,0.657-4.466,1.002-6.699,1.328c-2.232,0.313-4.466,0.555-6.7,0.767c-8.939,0.821-17.889,1.205-26.838,1.472
				c-4.475,0.128-8.951,0.214-13.426,0.267c-4.475,0.074-8.95,0.113-13.425,0.12c-8.951,0.016-17.9-0.117-26.849-0.317
				c-8.948-0.223-17.895-0.61-26.827-1.334c-4.464-0.389-8.93-0.821-13.359-1.732c-1.106-0.238-2.21-0.509-3.303-0.905
				c-0.545-0.203-1.09-0.432-1.621-0.785c-0.137-0.087-0.254-0.187-0.4-0.313l-0.302-0.296c-0.221-0.238-0.417-0.479-0.589-0.718
				c-1.365-1.967-2.016-4.187-2.596-6.372c-1.091-4.405-1.602-8.886-2.001-13.357c-0.382-4.476-0.589-8.959-0.713-13.44
				C0.552,95.371,1.287,77.458,2.315,59.582C3.359,41.702,4.757,23.854,6.579,6.03l0.088-0.862l0.861-0.065
				C13.645,4.64,19.75,4.261,25.865,3.915c6.113-0.337,12.228-0.652,18.347-0.878c12.237-0.454,24.481-0.721,36.727-0.748
				l9.185,0.039c3.062,0.026,6.123,0.104,9.184,0.17c3.061,0.087,6.121,0.174,9.181,0.305c3.06,0.108,6.118,0.282,9.175,0.447
				c3.057,0.185,6.113,0.378,9.165,0.639c3.051,0.263,6.102,0.537,9.144,0.894c3.045,0.327,6.08,0.739,9.11,1.177l4.534,0.729
				l4.513,0.851l-0.037,0.197l-4.525-0.74l-4.542-0.617c-3.035-0.362-6.071-0.7-9.117-0.953c-3.042-0.281-6.092-0.481-9.142-0.669
				c-3.05-0.187-6.101-0.346-9.154-0.473c-12.213-0.512-24.44-0.524-36.663-0.402C68.727,4.033,56.506,4.425,44.294,5.004
				C32.085,5.563,19.868,6.232,7.693,7.171l0.949-0.927C7.75,15.131,6.99,24.045,6.251,32.954
				C5.506,41.863,4.838,50.78,4.268,59.701C3.699,68.623,3.225,77.55,2.906,86.48c-0.336,8.93-0.542,17.865-0.413,26.792
				c0.07,4.462,0.221,8.923,0.546,13.366c0.341,4.437,0.797,8.885,1.808,13.185c0.528,2.124,1.166,4.287,2.347,6.026
				c0.152,0.217,0.309,0.409,0.464,0.587l0.293,0.294c0.066,0.054,0.159,0.142,0.258,0.204c0.397,0.273,0.886,0.495,1.385,0.686
				c1.006,0.381,2.077,0.661,3.153,0.906c4.327,0.95,8.781,1.443,13.22,1.887c8.894,0.846,17.835,1.217,26.772,1.501
				c8.939,0.285,17.885,0.314,26.828,0.249c8.943-0.059,17.886-0.273,26.818-0.687c8.929-0.412,17.86-0.938,26.729-1.89
				c2.215-0.245,4.427-0.52,6.62-0.862c2.185-0.351,4.387-0.736,6.435-1.374c0.506-0.159,1.005-0.341,1.431-0.558
				c0.117-0.057,0.194-0.106,0.271-0.149c0.032-0.013,0.104-0.071,0.155-0.107l0.085-0.062c-0.051,0.037-0.051,0.034-0.072,0.061
				c-0.026,0.055,0.099-0.227,0.138-0.436c0.217-0.963,0.295-2.093,0.363-3.182c0.123-2.201,0.146-4.432,0.15-6.659
				c-0.011-8.921-0.353-17.863-0.57-26.804c-0.485-17.884-1.172-35.771-1.354-53.674c-0.098-8.95-0.153-17.903,0.035-26.856
				c0.238-8.946,0.536-17.916,1.709-26.8L148.71,2.148z"/>
		</g>
		<g>
			<path fill="#000433" d="M81.21,31.146c0,0,0.007,0.328,0.021,0.943c0,0.613,0.002,1.513,0.004,2.657
				c-0.003,2.289-0.091,5.552-0.258,9.46c-0.109,1.952-0.194,4.069-0.373,6.304c-0.183,2.233-0.475,4.583-0.728,7.019
				c-0.293,2.434-0.47,4.955-0.579,7.521c-0.116,2.565-0.054,5.178-0.023,7.786c0.084,2.61,0.174,5.219,0.192,7.782
				c0.063,2.563,0.062,5.087,0.154,7.523c0.104,2.435,0.097,4.795,0.178,7.022c0.031,1.115,0.062,2.2,0.091,3.25
				c0.003,1.052,0.048,2.063,0.113,3.032c0.044,0.972,0.086,1.903,0.126,2.789c0.018,0.443,0.035,0.876,0.051,1.296
				c0.036,0.417,0.071,0.822,0.104,1.214c0.148,1.567,0.227,2.955,0.38,4.074c0.364,2.227,0.543,3.537,0.543,3.537l-0.19,0.061
				c0,0-0.431-1.228-1.134-3.441c-0.342-1.108-0.537-2.489-0.881-4.063c-0.379-1.575-0.503-3.372-0.777-5.329
				c-0.268-1.961-0.356-4.086-0.508-6.338c-0.087-1.126-0.127-2.282-0.132-3.464c-0.019-1.183-0.044-2.39-0.034-3.618
				c0.008-2.456,0.093-4.989,0.149-7.564c0.082-2.573,0.297-5.185,0.482-7.793c0.211-2.607,0.417-5.213,0.509-7.781
				c0.13-2.567,0.132-5.099,0.112-7.552c0.011-2.451-0.052-4.826,0.053-7.069c0.089-2.243,0.264-4.359,0.428-6.313
				c0.347-3.904,0.764-7.147,1.117-9.412c0.187-1.131,0.333-2.02,0.433-2.626c0.117-0.604,0.18-0.926,0.18-0.926L81.21,31.146z"/>
		</g>
		<g>
			<path fill="#000433" d="M29.36,79.637c0,0,1.389-0.204,3.827-0.504c2.438-0.278,5.919-0.728,10.106-1.146
				c4.186-0.435,9.074-0.883,14.317-1.291c5.243-0.423,10.842-0.771,16.445-1.078c2.804-0.12,5.607-0.24,8.367-0.358
				c2.76-0.115,5.479-0.159,8.111-0.211c2.631-0.056,5.177-0.059,7.591-0.037c2.414,0.006,4.698,0.064,6.805,0.151
				c2.107,0.071,4.039,0.2,5.747,0.354c1.708,0.148,3.196,0.313,4.415,0.505c0.611,0.076,1.152,0.18,1.62,0.289
				c0.468,0.104,0.868,0.173,1.182,0.283c0.63,0.191,0.966,0.293,0.966,0.293s-0.344-0.065-0.99-0.188
				c-0.318-0.074-0.725-0.1-1.196-0.152c-0.472-0.053-1.013-0.108-1.625-0.139c-1.218-0.092-2.703-0.137-4.407-0.147
				c-1.704-0.012-3.626,0.017-5.724,0.051c-2.097,0.04-4.369,0.112-6.772,0.192c-2.403,0.098-4.937,0.199-7.559,0.305
				c-5.244,0.258-10.836,0.531-16.429,0.806c-5.595,0.284-11.19,0.568-16.436,0.835c-5.249,0.248-10.147,0.479-14.347,0.678
				c-4.204,0.162-7.707,0.298-10.159,0.393C30.763,79.594,29.36,79.637,29.36,79.637z"/>
		</g>
	</g>
</g>
<g id="home">
</g>
<g id="new_with_add">
</g>
<g id="new_with_more">
</g>
<g id="new_with_less">
</g>
<g id="new_sub">
</g>
<g id="new_description">
</g>
<g id="new_desc_w_milestone">
</g>
</svg>
