<?xml version="1.0" encoding="utf-8"?>
<!-- Generator: Adobe Illustrator 16.0.3, SVG Export Plug-In . SVG Version: 6.00 Build 0)  -->
<!DOCTYPE svg PUBLIC "-//W3C//DTD SVG 1.1//EN" "http://www.w3.org/Graphics/SVG/1.1/DTD/svg11.dtd">
<svg version="1.1" xmlns="http://www.w3.org/2000/svg" xmlns:xlink="http://www.w3.org/1999/xlink" x="0px" y="0px" width="155px"
	 height="155px" viewBox="0 0 155 155" enable-background="new 0 0 155 155" xml:space="preserve">
<metadata><?xpacket begin="﻿" id="W5M0MpCehiHzreSzNTczkc9d"?>
<x:xmpmeta xmlns:x="adobe:ns:meta/" x:xmptk="Adobe XMP Core 5.3-c011 66.145661, 2012/02/06-14:56:27        ">
   <rdf:RDF xmlns:rdf="http://www.w3.org/1999/02/22-rdf-syntax-ns#">
      <rdf:Description rdf:about=""
            xmlns:dc="http://purl.org/dc/elements/1.1/">
         <dc:format>image/svg+xml</dc:format>
         <dc:title>
            <rdf:Alt>
               <rdf:li xml:lang="x-default">what ive learned</rdf:li>
            </rdf:Alt>
         </dc:title>
         <dc:creator>
            <rdf:Seq>
               <rdf:li>Alex Kott</rdf:li>
            </rdf:Seq>
         </dc:creator>
      </rdf:Description>
      <rdf:Description rdf:about=""
            xmlns:xmp="http://ns.adobe.com/xap/1.0/"
            xmlns:xmpGImg="http://ns.adobe.com/xap/1.0/g/img/">
         <xmp:CreatorTool>Adobe Illustrator CS6 (Windows)</xmp:CreatorTool>
         <xmp:CreateDate>2015-04-21T11:43:19+02:00</xmp:CreateDate>
         <xmp:ModifyDate>2015-04-21T11:43:19+02:00</xmp:ModifyDate>
         <xmp:MetadataDate>2015-04-21T11:43:19+02:00</xmp:MetadataDate>
         <xmp:Thumbnails>
            <rdf:Alt>
               <rdf:li rdf:parseType="Resource">
                  <xmpGImg:width>256</xmpGImg:width>
                  <xmpGImg:height>84</xmpGImg:height>
                  <xmpGImg:format>JPEG</xmpGImg:format>
                  <xmpGImg:image>/9j/4AAQSkZJRgABAgEASABIAAD/7QAsUGhvdG9zaG9wIDMuMAA4QklNA+0AAAAAABAASAAAAAEA&#xA;AQBIAAAAAQAB/+4ADkFkb2JlAGTAAAAAAf/bAIQABgQEBAUEBgUFBgkGBQYJCwgGBggLDAoKCwoK&#xA;DBAMDAwMDAwQDA4PEA8ODBMTFBQTExwbGxscHx8fHx8fHx8fHwEHBwcNDA0YEBAYGhURFRofHx8f&#xA;Hx8fHx8fHx8fHx8fHx8fHx8fHx8fHx8fHx8fHx8fHx8fHx8fHx8fHx8fHx8f/8AAEQgAVAEAAwER&#xA;AAIRAQMRAf/EAaIAAAAHAQEBAQEAAAAAAAAAAAQFAwIGAQAHCAkKCwEAAgIDAQEBAQEAAAAAAAAA&#xA;AQACAwQFBgcICQoLEAACAQMDAgQCBgcDBAIGAnMBAgMRBAAFIRIxQVEGE2EicYEUMpGhBxWxQiPB&#xA;UtHhMxZi8CRygvElQzRTkqKyY3PCNUQnk6OzNhdUZHTD0uIIJoMJChgZhJRFRqS0VtNVKBry4/PE&#xA;1OT0ZXWFlaW1xdXl9WZ2hpamtsbW5vY3R1dnd4eXp7fH1+f3OEhYaHiImKi4yNjo+Ck5SVlpeYmZ&#xA;qbnJ2en5KjpKWmp6ipqqusra6voRAAICAQIDBQUEBQYECAMDbQEAAhEDBCESMUEFURNhIgZxgZEy&#xA;obHwFMHR4SNCFVJicvEzJDRDghaSUyWiY7LCB3PSNeJEgxdUkwgJChgZJjZFGidkdFU38qOzwygp&#xA;0+PzhJSktMTU5PRldYWVpbXF1eX1RlZmdoaWprbG1ub2R1dnd4eXp7fH1+f3OEhYaHiImKi4yNjo&#xA;+DlJWWl5iZmpucnZ6fkqOkpaanqKmqq6ytrq+v/aAAwDAQACEQMRAD8A6Nq3mT81rPW7iOz8qxah&#xA;o6SOtrJFcwpLIhQCMv6sienSQEseLVUjYEE5tQA4aNuvMfn230+zu18rG5mmFy9zYRXUAliVSTaq&#xA;zswj5Mn95xLAN9mvZoKt1PzX55tdTS3s/J81/aMIzJcpd2sYSqI8oXm45kc2UfZFV6muzQ71Qt15&#xA;j/Mu99fTLfym2mXMi8YdXkvraW1jJGzsFBmIrtRYyfljQVmsNtq8flKC3ku1k1RRxku+A4mTjuwX&#xA;9Va+JB6ZT/H8Gf8AD8WKaTqP5gy+WVuhYQS6yLkwvZ3zyWaehC7I0issc78n41WtQR8QNOtxq2CP&#xA;tdU88Okv1nQbWF0/uxHf+or1iDChMEZH734DUDb4vbBsqnFqP5iOtoX0XTozJIReA6hKfSiolGWl&#xA;t8bmr1XYCn2jWuOysnT7Q+YyJUJJ+ZV95jsLOS50KF7m49WON4o4/UkCuVHqKu5PE0B2Pwkk9Mjg&#xA;+kMp/Uh9UvPPlrcOumaZY6napHGI5J7x7SZ5KH1SyrbzIN6cQPvGWbMVOfVPzC4xfV9AsTJJwLiX&#xA;UWVI6whpAzLbOdpiUUqp5AVPGuOy7I/SbnzXJeyJqtjZ21isYMU1vcyTStJ8NQ0TQxqq/a39Qnpt&#xA;iaVkNp/cXP8AqfxynJzDKPIsKstS84ya9rFm1uhitIRNZGVTFbyPIpEMYnAdipZDzIUlPA1GXbMV&#xA;Sw1T8w2VEv8AQLGOQxsWlg1Bnj9ReFAQ9ujKHq3TlSnXfHZV0upfmAWvDBodjwjNLES37q0vxoPj&#xA;4W7iMcCzdW3FKDqXZU+sHvnsoWv4o4b1kBuIoXaWNX7hHZYyw9yowId5sm1SHQRLpac7xISyKAGa&#xA;grXip+0w6he/TK8fM+9slyDHVttZ1by7Yahd6xdaJcRxtdTNBHDGeDRnj68dxHLTgDzKkCjbHplh&#xA;kBueSIQMpCIFk7JEmoUtBaN5+upL6UyCOtraNOiTRoyGSKGEECNY2ZXou7/FX4RmP+dxd7tD2Jqt&#xA;zwbDr051sTsTfROdC06W/EF5Z+cdQ1G2tZj6/wANjwmYcGMUvC2SgA2/d8TuamuW480Zi47uDqtJ&#xA;lwS4ckeGRF79zNtO/wB7Yvmf1HBl+ktOPmxPWdQ8yw+bNNs7WL/cXdGQSzCP1EHFCzeq23pkcfg7&#xA;NWmWjkxSzzRZXenzSXLedb3R1vZWeKNo7GWGMAKKKJoGKxpT+bq29dsqyZ4Y64nL0mhy6ixjjxcK&#xA;HbVLG6uhOnnm4Sy9aRFWGG2EbvJKJFiWZoHVlRKRLx+Lr8XLKxrcR6hypdiasc8ZurrawPMcx+Cy&#xA;zRNKv9PilW81a51V5GqslysCFBueKiCOId+9cyS6pOnEh0iYRECTn8BPTlx2r1yk/X8GX8LCtDbz&#xA;PrmlaxbalPcaVOZntreeKJIpoqAFmhZw6OgJ4o/E8tz8rixSpLwafJdwXvn65m9MiJI5YLH1xLbN&#xA;zmCelApk5L+7ZeFetDXMeWsxCwSNnaY+xtVMAxgSJAHyo8rPIIvS7abU5JIbPzxe3F3GyySRxxWa&#xA;hEViCODW/Kkh2Ysx3B48emTx6iEzUTbRqez8+CIlkgYg9WaQxmOGONpGlZFCmV6cmIFOTcQoqe9B&#xA;ljgr8VSez/Sl+JpzfG3h9e4hSKKKPkogleEHnIJNzw5Gq4VVbS1uJEeSPV7mccnjHNLbiHjco32I&#xA;UOzKR1xVF6fJO9tWdleUSSoWVeIISRlXardgO+BUyb/jmp/xlP8AxHKh9fwZ/wAKFy1gxUyfmabi&#xA;SJbfSo4ZJVaO7eWaQxRCUBo/QVI/UJhBYN6q/F2pktko7yzd+brg3Y8xWNtZGJkS3NrK0qyGhLsC&#xA;wU8N1C1ANa1HTAaVPU+0PmMiVCI1H/e2X5j9QyGL6Qyyc0n1r9N/VUGjiH6y0qCRrgkKsVauVADc&#xA;m7AH55YGDG57/wDNmO3muxpWku8aL6WmxXM7vK4ZuZ+sPHCqArxovpnua9slsnZltk141lbteqiX&#xA;hjQ3KREmMS8RzCE7lQ1aVyKEwtP7i5/1P45Vk5hnHkULlrBjeteY/MthqUkNn5ZutVs1VfTnt5rV&#xA;CzkVO080VFFaePXt1ICWtI8zeYLnV4NM1Ly7NYtJb/WJbxJkmtoz0MZeiEvy2AA6b7d0haZLgQq6&#xA;pa29zaW0U6CSLhUxt9ltzsy9GHsdsqx8yzlyDFvMem2VlZNdWHlm21a5LN6kKxwK9PTdg/xgcquF&#xA;Ugb75cGLFY9Z1ieP6zb/AJXygNG7er61hbysQgMXGrLIA9aGtCvgemGh3srPeyLyklzI09pN5cuN&#xA;AtYlSVG+tK0ckkw5uirDJXlH0diKV6VG+R4QOScmSUjcjZZdpFlbQ6gkiJ+9aoaViXcinTkxLU2G&#xA;1crzfSUY+aEu9V022ldJrmNJF3aLkC9DT9gVb9odssDFjuuarfzyxyaRq9jawoUMy38LcAoL82Dk&#xA;pUnkgC7dDvmPnhlJ9BA94v8AHRx8ozX+7IH4/H60unfUZvQB816LJ6cvqxB7aIjpxTiPX2KGtCMq&#xA;lp8x/ijz/m/tTGWqjdZOfPbmD05svGs6R8am/ty8QBl/ep8NRWrCu1czabkzW4g/Q8k/qL6Ik5GX&#xA;kOIULueXSgyo/X8Gf8KVPr+joR/pSOCKho6yL1p1QMMtpgxU3nmAyuj+Z9Jt0cIbdpLcCdjxCuWj&#xA;eSPiC/KnXMLwdRZ9Ua/q/tcXh1PLjFe78fpR2hXQgvri6u9f0u6ieMG4+rpFE/NaBWZxI3wKo6NX&#xA;fuBtlmLDkjK5EG+4V+lvjLOQBOfFEch3e5kMWqaZK0axXkEjSisSrIhLD/Jod+uZLNFYqk+lQ3Mt&#xA;gywzG2pe3pcqoZiPrcvTnyA8ehwlV2hafd28TtLd3Dj6xcH0ZUt1BBmk+L93FGfjrz64lURo0zTW&#xA;cjsACLq7TbwS5kQf8RwFU4b/AI5qf8ZT/wARyofX8Gf8KFy1gwZvLWmw6tqNwnm6/tb55llv0+sW&#xA;4RY5GkKQFHiKqOMoUN/eABaMMlfklOvKWnT2cd60muya5FLOTbtIyOIIwKrFyTdm+KpZjU7dqYCp&#xA;ZAn2h8xkSoRGo/72y/MfqGQxfSGWTmkHmnTrbUNFmgu7+XTrMFJbm5hZFb04mDlS0iuOLcaNtuNs&#xA;tDFitx5fiS1a30/z5e2kxiR7VZ7i2mESqF5PxdFkcERNs7FQa7UqMN+Ss8t4jDbxRGRpTGioZXNX&#xA;biKcmPie+RQjrT+4uf8AU/jlWTmGceRQuWsGNa1o3mi61n6zYeYV02D0DHa2X1cSgyhHrI/OQBxz&#xA;ZCQFB4rQFak4QUu0nT/PsGth9U1ezvdIMbM8cVqYJfVJoqJWSSkYBrUsSdh4kppWS4EIq7/uLb/U&#xA;/jlWPmWcuQQuWsGDRaF+YEpNzpXnSCa2nZ3Z57KO6RT/ACQelJDxRX5CjMxpQV2yVjuSzW2ilito&#xA;opZTPLGirJOwCs7AULkKAoLHfYZFCN07/e2L5n9RyvL9JZ4+aHYDm3ud8mGJYpe+avNdrPaRp5Su&#xA;rxZ4kedre5tB6UnHlJGfWkiVioNBRt2B7UJlQWlWy8y+ZptV+o3Pla5toQGY3/1m1eCiqx+GjiQl&#xA;mUKvwd6njjQVNdCv9Qv9MiudQ099Lu2qstpJJHLQqaVV4ywZG6qdjTqBgKp0ADprg9PVH/EcqP1/&#xA;Bl/ClOpXd9bJG1pZte1L+qquqMqrC7rx5bMXkVUA/wAqtdstYMch83ecZDOreS7tTASFb63ZcZeJ&#xA;ofTrJy3qGXkAKV3BoCaHemkVa+ZvMs9naXL+V7mBp7j0p7WS4tvWih4qPWorlG/eN9nlXgpbrRS0&#xA;tMlwIdirH/rdpbTXcFveX1VlcskdnJcRJLIxlcK6QNy3k3HM06bYUqlvPczRsWv7wA7KVsWicHxp&#xA;LC9fuxQjtGjt47ALbvLKnqzF5J14SNI0ztISvGP9snooHhgKpw3/ABzU/wCMp/4jlQ+v4M/4Up1j&#xA;Uk0zTLm/eKScW6FxDCpeRyOiqAD1P3ZaGDzzV9f/ACsu9ZW31Pypc3l9PJM8ckuiTTCTiQkkyM0R&#xA;5K3EVYe3KmTAPey3THyN5v8AJYuI9B8uaTqVqk00zTGSwuYoYpQpZvWmlHFTxVVUV2+FfbAQUEM/&#xA;T7Q+YyBUIjUf97ZfmP1DIYvpDLJzYl5q8xaNaSjStT0y71KG4RJHjt7Ka8Q1lAWqxo4PHiXPhQd2&#xA;UG0BiwK9178l54biabypdCIXvO6nj0edFe5hkpykkSMBz6jcaMa1O4yVFO707y/r9vrlk95b2t3a&#xA;xLK0SrfW8lrI/EA81jlCvwNdiRkSEJ7af3Fz/qfxynJzDKPIoXLWDznzB5h/KLXJxc6lrgjntYtm&#xA;t764tmWLk7cv9GdNm4cv9XiTsVyQBTuh9B8x/k55Z1G5msvMsatPDAkdnLdSTIkfFCphjcsWMoKk&#xA;tuT9GEglO707IMUVd/3Ft/qfxyrHzLOXIIC7tYbu0mtJwTDcRtFKFZkPFwVajKQymh6g1y1gxaL8&#xA;qvJkCTx2sFzaW9wJA1ra3l3BbqJQQ3CCKVIl+0aUXbtkuIptkGkaLp2kWzW1hG0cLyNKwZ3kPJqD&#xA;q5Y0AAAHYZElCb6d/vbF8z+o5Xl+ks8fNDv9o/M5MMSxWz/LTyna3cF16d3cyW031q2S7vbu5ijm&#xA;6+osU0rx8q7149emS4itqEv5UeULi5N3dLeT3byNNJP9duoi0ryeq0nGGSNFblShUCgAA2AGHiK2&#xA;mGheRfL2h3sd5p6XAmhtjZwCW6uJo44Gk9XgkcsjoKNsNqgbDbAStsqX/jmv/wAZR/xHKT9fwZfw&#xA;pHrvl/Ttcto7a+MwjicyIbeea3YPwZK84WRtg5I3675cDTBKD+Wvlf6lcWgW59O9lim1CVrqeSe5&#xA;MAPpLLcO7TcUajAK4FR4EgvEU2oRflP5MiEpiivEllkWX1xqF96qutQGjk9bmho7iqmtGbxOHiK2&#xA;yHQdD07QtLh0vTlkW0g5FBLLJM9XYuxaSVndqsx6nIkqj8UJBFqMmm6Tcyi1lvLw3F9LHaQgGSRU&#xA;uJKGpIAATjufYCpoCUoTyt50u9ZvLq3n05Iobd1iW+s7g3duzmp4lzFAw2oQQpBBBqKiqQtJ1oLu&#xA;9jKWJJF3eip8Fu5QB9AGJQnTf8c1P+Mp/wCI5SPr+DP+FC5awSm/1p4Z5Y7W1+sNalVuZnb044zI&#xA;ARGCFkdnIZTxC0oRUjDSouyvlnkmgeFre5h4maNht8deLI42dTxO/wB9DtgVGJ9ofMYCkIjUf97Z&#xA;fmP1DIYvpDLJzSj9N2B5mMyTRxkq8sMMsqclNCoZFYMQag8a0oa5ZTBfFqOmy6YmpJNGdPeMXK3B&#xA;ICemRzD1P34qhoPMmlyy+n++h+IKHngmiWrDbkXVeFei86cu1cNKn1p/cXP+p/HKcnMM48ihGZVF&#xA;WIA8TlrBCyabpVzBGklrBNArrNECisodTyR12pUHcHFVw0zTRdfWxaxfWioT1+C8+KsWA5Ur9pic&#xA;VRAZWFVIIqRUeINDiqLu/wC4tv8AU/jlWPmWcuQQuWsEqPmO2MhEFvcXMKsyG5iQFCyV5hAzLJLx&#xA;4mvpq3h1w0qPs7y2vLZLm1kEsEgqjr0NDQ/SCKEYFR+nf72xfM/qOV5fpLPHzQl3cQ20U1xO4jgh&#xA;VpJZG2CooJZj7ADJhilujeZtF1l5o9PnMktuscksTxyQuEmBaJ+MqoSrgVUjbJEKqXOsJHdNa21t&#xA;NfXEYBnS3EYEYbcc3leJKkb8eXKm9KYKQq6fqtlfqxt3rJHT1ojTmhbpyAr1psRseoJGKpqv/HNf&#xA;/jKP+I5Ufr+DP+Fj2v8AmjTNDEX1z1WeYSOkcMbyNwhQvI9FB+FaDl4VFdsuAYouz1fTbzS01W3n&#xA;VtOkjMyXJPFDEKnnU0otBXfBSEG3ma3QJNPaXNvZSkCK8lVFVqqWr6XP6woABJ5RigBJ23w0lN0d&#xA;XRXQhkYAqw6EHcHAhvFUpt7i409JYZbW4mBuJ5I5YwsgZZZGlGwbkOPqcfiA6eGFUSL2ZeAj024K&#xA;OSSQYFC8tyWDSqdyfDArWipcrYn6zCYJXmuJPSPAlVknd0r6ZZa8GFaHEqnDf8c1P+Mp/wCI5UPr&#xA;+DP+FC5awY1qmhSPfXckln9ftbt0mXi0ZkilREQqYpikLowhU1LVqelOhtKZ6PpjW0k11LEkE06x&#xA;xJbQsTFFDDyMcaiiLXlI7EhR1puAMShM0+0PmMiUhV1ZGee4RWKMwKhx1UlaVHyyGL6QyyfUwa1i&#xA;u7VbC3kjuYZLaKKHUrK3tpXjuZLZVELQzr+4RGI+IswqlFfjQgXMU1udLvE8urEIvXvEnW+ktlYG&#xA;r/WfrTxxlyqkqSRFyIWoWtBgVL5Le8vTf2sV1fTrqb8OE9osEUMDxJHI7PJbxVdKMUUMamlRTkQV&#xA;Zxaf3Fz/AKn8coycwyjyLBPMcywajcTXT26XIeNNPGo0Fo9vKixuqMylRKspZyifG4CqdivG8MUN&#xA;daeyaTarM0dvpoW5+ppew/uI3d6wGeINCiVSpj58VjJ405cRiq60tLk6ZcTW1Z7Ex2S3Mdoskccz&#xA;QzFrpoEV5OYeJqOUr6lOI5HFVXQ7ON9TtDavDc/V5WuGu7eIRrFFLFIj2ZKooKpKyFFZi1PtAcQS&#xA;lWe3f9xbf6n8cox8yylyCFy1gw2HTJLcafFdxX8l3pqGGOG3eURTBUEaPHJG0cSBuFSsrCnT3MrS&#xA;yXRrKWz09Ypm5Tu8s89CWUSXErTSKhIB4q0hC17ZEoTbTv8Ae2L5n9RyvL9JZ4+aWa3aWd5pd/aX&#xA;oJs7iCaK5C9fSdCr0678ScsDFh35axam9zf3Oq3V3eXqQ21vFJdQvCEt1MhRBySP1HJ+J3PxbhT0&#xA;qZSUpnqdhepPeQF7mC0vJhKbm1T1jJHKiRzQSqn7xHpH+7lX7II32IIVNtKs5RdXN/NEbdp1iggt&#xA;qj93b24YoGVSUDF5XPwnpxHbFCeL/wAc1/8AjKP+I5Sfr+DP+F5z+aWjtdx2NzZz3VpqMZlj9a0j&#xA;eUtbSKonR0jHJ/hUMq/tU4jc5fEsQnun6RB/gm207TEMKNZRi2S4ry5emCvrkCtSft/D47YL3VDA&#xA;anNezTrFdG7dDFa29yiCKyMp/eyesCUmU0UqF5MKU2DbKsjs7WO0tILWMsY4I1iQsasVRQoqfHbA&#xA;hOP0K3+/R939uY35jybvB83foVv9+j7v7cfzHkvg+bv0K3+/R939uP5jyXwfN36Fb/fo+7+3H8x5&#xA;L4PmqnS2NsIfUFQ5blT2p45HxvVdMvD2pS/Qrf79H3f25L8x5MfB83foVv8Afo+7+3H8x5L4Pm79&#xA;Ct/v0fd/bj+Y8l8HzcNGYEH1Rt7f24/mPJfBVLnS2mneQSAcu1Pb55GGehVMpY7Nqf6Fb/fo+7+3&#xA;JfmPJj4Pm79Ct/v0fd/bj+Y8l8Hzd+hW/wB+j7v7cfzHkvg+arDpbRxyr6gPqLxrTpv88jLNZGzI&#xA;Y6Uv0K3+/R939uS/MeTHwfN36Fb/AH6Pu/tx/MeS+D5u/Qrf79H3f24/mPJfB83foVv9+j7v7cfz&#xA;Hkvg+arNpbSRxL6gHprxrTrv88jHNROzI47Uv0K3+/R939uS/MeTHwfN36Fb/fo+7+3H8x5L4Pm7&#xA;9Ct/v0fd/bj+Y8l8HzVLbS2hnSQyA8e1Pb55GeexVMo46NqZ0ZiSfVG/t/bkvzHkx8F36Fb/AH6P&#xA;u/tx/MeS+D5u/Qrf79H3f24/mPJfB83foVv9+j7v7cfzHkvg+aqNLYWxh9QVLhuVPanjkfG9V0y8&#xA;PalL9Ct/v0fd/bkvzHkx8Hzd+hW/36Pu/tx/MeS+D5u/Qrf79H3f24/mPJfB83foVv8Afo+7+3H8&#xA;x5L4PmxPWvzR1fSvMN3pzeTtXutOtX9NNTtYWmWasKOpiRVNayyenu3v4gVDGCOYbrRt7+ZDWen2&#xA;+oTeXdXNtPJeKUjtJJJ1htKhJWgRS6+u1AivxPc7DAMfmFtrUvzPtdPvbe2k0LWZvrUcMiG3sZpm&#xA;QyKskiyqgbj6Ucik7mpDKPiXdGO+oW0Fc/mrc3HPTtM8sa9HrUw4Wi3envHbq7HijSz8vRRep3ft&#xA;8qkY+8iltmmi/pY6TanV/SGpmNTdrBX0xIR8QUnrTxys1eyUbgV2KuxV2KuxV2KuxV2KuxV2KuxV&#xA;2KuxV2KuxV2KuxV2KuxV2KuxV2KuxV2KuxV2KuxVJ47jW7vUr6O3ntoLWynSDhJbySyODBFMx5ia&#xA;MD+9oPh7ZLalVLX9OPLMjahZSmE+nIkdpKpSQqrgNW5f9lwae+JpVGfUdUg0czs8El413HaRuI3W&#xA;JRJdLbcinqMzU5cqcxXpt1xoWqt9W80/9XCx/wCkKb/srx2Vu4n1S3udPikubcrdTmFwLeQFuMMk&#xA;pCn1iFNIuprjsqZ5FXYq7FXYq7FXYq7FXYq7FXYq7FXYq7FXYq7FXYq7FXYq7FXYq7FXYq7FXYq7&#xA;FXYq7FUl09byU6pJaSRQXEl+3N5Y2lSkcUcX2VkiNSsY/a+jJFVPSINeGpamZri19H62nIJayo0g&#xA;+rwfEGadh9n4eh3H0YmqQ5niuNOlik+BYNUjFa0qy3qSr/wzAYqk3nDSfPl60Uum3TxlgyJaWswi&#xA;ihcsgWaWQmGWX93z8VVuNYpBU5KBj1UpzJbanFNocV7OL2WG+et2qCNnT6jcAPIq/ArcjQ8dvACt&#xA;BHbdKfZFXYq7FXYq7FXYq7FXYq7FXYq7FXYq7FXYq7FXYq7FXYq7FXYq7FXYq7FXYq7FXYq7FWPf&#xA;7n/r+q/oj6t6Pq/8fnqf70ehF9j0/wDdXSvflyye3VCnB/ysrmfX/Q3Di1OH1qvKnw9e1euPp81Q&#xA;0P1v/Dtz9Y4fpP8AScXqU/uPrX1uLhxr8XpcuP8AlU98PVUbF/ysHnF6v6J4Vb1+H1mvH9jhXv41&#xA;wenzVSn/AMS/XLL9K/Vvqv11PQ+o+p6lOD8fV9Xbj/Nx/VXHborJsgl2KuxV2KuxV2KuxV2KuxV2&#xA;KuxV2KuxV2KuxV2KuxV2KuxV2KuxV2KuxV2KuxV2KuxV/9k=</xmpGImg:image>
               </rdf:li>
            </rdf:Alt>
         </xmp:Thumbnails>
      </rdf:Description>
      <rdf:Description rdf:about=""
            xmlns:xmpMM="http://ns.adobe.com/xap/1.0/mm/"
            xmlns:stRef="http://ns.adobe.com/xap/1.0/sType/ResourceRef#"
            xmlns:stEvt="http://ns.adobe.com/xap/1.0/sType/ResourceEvent#">
         <xmpMM:RenditionClass>proof:pdf</xmpMM:RenditionClass>
         <xmpMM:OriginalDocumentID>uuid:65E6390686CF11DBA6E2D887CEACB407</xmpMM:OriginalDocumentID>
         <xmpMM:DocumentID>xmp.did:18D3E856FCE7E41185F891320CD2AF94</xmpMM:DocumentID>
         <xmpMM:InstanceID>xmp.iid:18D3E856FCE7E41185F891320CD2AF94</xmpMM:InstanceID>
         <xmpMM:DerivedFrom rdf:parseType="Resource">
            <stRef:instanceID>xmp.iid:14D3E856FCE7E41185F891320CD2AF94</stRef:instanceID>
            <stRef:documentID>xmp.did:14D3E856FCE7E41185F891320CD2AF94</stRef:documentID>
            <stRef:originalDocumentID>uuid:65E6390686CF11DBA6E2D887CEACB407</stRef:originalDocumentID>
            <stRef:renditionClass>proof:pdf</stRef:renditionClass>
         </xmpMM:DerivedFrom>
         <xmpMM:History>
            <rdf:Seq>
               <rdf:li rdf:parseType="Resource">
                  <stEvt:action>saved</stEvt:action>
                  <stEvt:instanceID>xmp.iid:13D3E856FCE7E41185F891320CD2AF94</stEvt:instanceID>
                  <stEvt:when>2015-04-21T09:59:30+02:00</stEvt:when>
                  <stEvt:softwareAgent>Adobe Illustrator CS6 (Windows)</stEvt:softwareAgent>
                  <stEvt:changed>/</stEvt:changed>
               </rdf:li>
               <rdf:li rdf:parseType="Resource">
                  <stEvt:action>saved</stEvt:action>
                  <stEvt:instanceID>xmp.iid:18D3E856FCE7E41185F891320CD2AF94</stEvt:instanceID>
                  <stEvt:when>2015-04-21T11:43:19+02:00</stEvt:when>
                  <stEvt:softwareAgent>Adobe Illustrator CS6 (Windows)</stEvt:softwareAgent>
                  <stEvt:changed>/</stEvt:changed>
               </rdf:li>
            </rdf:Seq>
         </xmpMM:History>
      </rdf:Description>
      <rdf:Description rdf:about=""
            xmlns:illustrator="http://ns.adobe.com/illustrator/1.0/">
         <illustrator:StartupProfile>Web</illustrator:StartupProfile>
      </rdf:Description>
      <rdf:Description rdf:about=""
            xmlns:xmpTPg="http://ns.adobe.com/xap/1.0/t/pg/"
            xmlns:stDim="http://ns.adobe.com/xap/1.0/sType/Dimensions#"
            xmlns:stFnt="http://ns.adobe.com/xap/1.0/sType/Font#"
            xmlns:xmpG="http://ns.adobe.com/xap/1.0/g/">
         <xmpTPg:NPages>1</xmpTPg:NPages>
         <xmpTPg:HasVisibleTransparency>False</xmpTPg:HasVisibleTransparency>
         <xmpTPg:HasVisibleOverprint>False</xmpTPg:HasVisibleOverprint>
         <xmpTPg:MaxPageSize rdf:parseType="Resource">
            <stDim:w>155.000000</stDim:w>
            <stDim:h>155.000000</stDim:h>
            <stDim:unit>Pixels</stDim:unit>
         </xmpTPg:MaxPageSize>
         <xmpTPg:Fonts>
            <rdf:Bag>
               <rdf:li rdf:parseType="Resource">
                  <stFnt:fontName>NothingYouCouldDo</stFnt:fontName>
                  <stFnt:fontFamily>Nothing You Could Do</stFnt:fontFamily>
                  <stFnt:fontFace>Regular</stFnt:fontFace>
                  <stFnt:fontType>Open Type</stFnt:fontType>
                  <stFnt:versionString>Version 1.005</stFnt:versionString>
                  <stFnt:composite>False</stFnt:composite>
                  <stFnt:fontFileName>NothingYouCouldDo.ttf</stFnt:fontFileName>
               </rdf:li>
            </rdf:Bag>
         </xmpTPg:Fonts>
         <xmpTPg:PlateNames>
            <rdf:Seq>
               <rdf:li>Cyan</rdf:li>
               <rdf:li>Magenta</rdf:li>
               <rdf:li>Yellow</rdf:li>
               <rdf:li>Black</rdf:li>
            </rdf:Seq>
         </xmpTPg:PlateNames>
         <xmpTPg:SwatchGroups>
            <rdf:Seq>
               <rdf:li rdf:parseType="Resource">
                  <xmpG:groupName>Standard-Farbfeldgruppe</xmpG:groupName>
                  <xmpG:groupType>0</xmpG:groupType>
                  <xmpG:Colorants>
                     <rdf:Seq>
                        <rdf:li rdf:parseType="Resource">
                           <xmpG:swatchName>Weiß</xmpG:swatchName>
                           <xmpG:mode>RGB</xmpG:mode>
                           <xmpG:type>PROCESS</xmpG:type>
                           <xmpG:red>255</xmpG:red>
                           <xmpG:green>255</xmpG:green>
                           <xmpG:blue>255</xmpG:blue>
                        </rdf:li>
                        <rdf:li rdf:parseType="Resource">
                           <xmpG:swatchName>Schwarz</xmpG:swatchName>
                           <xmpG:mode>RGB</xmpG:mode>
                           <xmpG:type>PROCESS</xmpG:type>
                           <xmpG:red>0</xmpG:red>
                           <xmpG:green>0</xmpG:green>
                           <xmpG:blue>0</xmpG:blue>
                        </rdf:li>
                        <rdf:li rdf:parseType="Resource">
                           <xmpG:swatchName>R=215 G=228 B=255 1</xmpG:swatchName>
                           <xmpG:mode>RGB</xmpG:mode>
                           <xmpG:type>PROCESS</xmpG:type>
                           <xmpG:red>215</xmpG:red>
                           <xmpG:green>228</xmpG:green>
                           <xmpG:blue>255</xmpG:blue>
                        </rdf:li>
                        <rdf:li rdf:parseType="Resource">
                           <xmpG:swatchName>R=0 G=4 B=51 1</xmpG:swatchName>
                           <xmpG:mode>RGB</xmpG:mode>
                           <xmpG:type>PROCESS</xmpG:type>
                           <xmpG:red>0</xmpG:red>
                           <xmpG:green>4</xmpG:green>
                           <xmpG:blue>51</xmpG:blue>
                        </rdf:li>
                        <rdf:li rdf:parseType="Resource">
                           <xmpG:swatchName>R=193 G=0 B=0 1</xmpG:swatchName>
                           <xmpG:mode>RGB</xmpG:mode>
                           <xmpG:type>PROCESS</xmpG:type>
                           <xmpG:red>193</xmpG:red>
                           <xmpG:green>0</xmpG:green>
                           <xmpG:blue>0</xmpG:blue>
                        </rdf:li>
                        <rdf:li rdf:parseType="Resource">
                           <xmpG:swatchName>R=26 G=132 B=0 1</xmpG:swatchName>
                           <xmpG:mode>RGB</xmpG:mode>
                           <xmpG:type>PROCESS</xmpG:type>
                           <xmpG:red>26</xmpG:red>
                           <xmpG:green>132</xmpG:green>
                           <xmpG:blue>0</xmpG:blue>
                        </rdf:li>
                     </rdf:Seq>
                  </xmpG:Colorants>
               </rdf:li>
            </rdf:Seq>
         </xmpTPg:SwatchGroups>
      </rdf:Description>
      <rdf:Description rdf:about=""
            xmlns:pdf="http://ns.adobe.com/pdf/1.3/">
         <pdf:Producer>Adobe PDF library 10.01</pdf:Producer>
      </rdf:Description>
      <rdf:Description rdf:about=""
            xmlns:xmpRights="http://ns.adobe.com/xap/1.0/rights/">
         <xmpRights:Marked>True</xmpRights:Marked>
      </rdf:Description>
   </rdf:RDF>
</x:xmpmeta>
                                                                                                    
                                                                                                    
                                                                                                    
                                                                                                    
                                                                                                    
                                                                                                    
                                                                                                    
                                                                                                    
                                                                                                    
                                                                                                    
                                                                                                    
                                                                                                    
                                                                                                    
                                                                                                    
                                                                                                    
                                                                                                    
                                                                                                    
                                                                                                    
                                                                                                    
                                                                                                    
                           
<?xpacket end="w"?>
	</metadata>
<g id="exports">
	<g id="new_button_1_">
		<g>
			<path fill="#000433" d="M148.71,2.148c-0.947,8.893-1.02,17.85-1.032,26.786c0.006,8.94,0.151,17.882,0.396,26.822l0.842,26.819
				l0.949,26.824c0.316,8.945,0.562,17.891,0.538,26.864c-0.016,2.246-0.049,4.491-0.187,6.756
				c-0.081,1.141-0.147,2.254-0.424,3.475c-0.104,0.327-0.117,0.606-0.484,1.109c-0.07,0.075-0.113,0.128-0.219,0.21l-0.085,0.061
				c-0.063,0.043-0.099,0.076-0.189,0.131c-0.163,0.102-0.325,0.196-0.461,0.261c-0.573,0.287-1.133,0.48-1.692,0.655
				c-2.239,0.657-4.466,1.002-6.699,1.328c-2.232,0.313-4.466,0.555-6.7,0.767c-8.939,0.821-17.889,1.205-26.838,1.472
				c-4.475,0.128-8.951,0.214-13.426,0.267c-4.475,0.074-8.95,0.113-13.425,0.12c-8.951,0.016-17.9-0.117-26.849-0.317
				c-8.948-0.223-17.895-0.61-26.827-1.334c-4.464-0.389-8.93-0.821-13.359-1.732c-1.106-0.238-2.21-0.509-3.303-0.905
				c-0.545-0.203-1.09-0.432-1.621-0.785c-0.137-0.087-0.254-0.187-0.4-0.313l-0.302-0.296c-0.221-0.238-0.417-0.479-0.589-0.718
				c-1.365-1.967-2.016-4.187-2.596-6.372c-1.091-4.405-1.602-8.886-2.001-13.357c-0.382-4.476-0.589-8.959-0.713-13.44
				C0.552,95.371,1.287,77.458,2.315,59.582C3.359,41.702,4.757,23.854,6.579,6.03l0.088-0.862l0.861-0.065
				C13.645,4.64,19.75,4.261,25.865,3.915c6.113-0.337,12.228-0.652,18.347-0.878c12.237-0.454,24.481-0.721,36.727-0.748
				l9.185,0.039c3.062,0.026,6.123,0.104,9.184,0.17c3.061,0.087,6.121,0.174,9.181,0.305c3.06,0.108,6.118,0.282,9.175,0.447
				c3.057,0.185,6.113,0.378,9.165,0.639c3.051,0.263,6.102,0.537,9.144,0.894c3.045,0.327,6.08,0.739,9.11,1.177l4.534,0.729
				l4.513,0.851l-0.037,0.197l-4.525-0.74l-4.542-0.617c-3.035-0.362-6.071-0.7-9.117-0.953c-3.042-0.281-6.092-0.481-9.142-0.669
				c-3.05-0.187-6.101-0.346-9.154-0.473c-12.213-0.512-24.44-0.524-36.663-0.402C68.727,4.033,56.506,4.425,44.294,5.004
				C32.085,5.563,19.868,6.232,7.693,7.171l0.949-0.927C7.75,15.131,6.99,24.045,6.251,32.954
				C5.506,41.863,4.838,50.78,4.268,59.701C3.699,68.623,3.225,77.55,2.906,86.48c-0.336,8.93-0.542,17.865-0.413,26.792
				c0.07,4.462,0.221,8.923,0.546,13.366c0.341,4.437,0.797,8.885,1.808,13.185c0.528,2.124,1.166,4.287,2.347,6.026
				c0.152,0.217,0.309,0.409,0.464,0.587l0.293,0.294c0.066,0.054,0.159,0.142,0.258,0.204c0.397,0.273,0.886,0.495,1.385,0.686
				c1.006,0.381,2.077,0.661,3.153,0.906c4.327,0.95,8.781,1.443,13.22,1.887c8.894,0.846,17.835,1.217,26.772,1.501
				c8.939,0.285,17.885,0.314,26.828,0.249c8.943-0.059,17.886-0.273,26.818-0.687c8.929-0.412,17.86-0.938,26.729-1.89
				c2.215-0.245,4.427-0.52,6.62-0.862c2.185-0.351,4.387-0.736,6.435-1.374c0.506-0.159,1.005-0.341,1.431-0.558
				c0.117-0.057,0.194-0.106,0.271-0.149c0.032-0.013,0.104-0.071,0.155-0.107l0.085-0.062c-0.051,0.037-0.051,0.034-0.072,0.061
				c-0.026,0.055,0.099-0.227,0.138-0.436c0.217-0.963,0.295-2.093,0.363-3.182c0.123-2.201,0.146-4.432,0.15-6.659
				c-0.011-8.921-0.353-17.863-0.57-26.804c-0.485-17.884-1.172-35.771-1.354-53.674c-0.098-8.95-0.153-17.903,0.035-26.856
				c0.238-8.946,0.536-17.916,1.709-26.8L148.71,2.148z"/>
		</g>
		<g>
			<path fill="#000433" d="M81.21,31.146c0,0,0.007,0.328,0.021,0.943c0,0.613,0.002,1.513,0.004,2.657
				c-0.003,2.289-0.091,5.552-0.258,9.46c-0.109,1.952-0.194,4.069-0.373,6.304c-0.183,2.233-0.475,4.583-0.728,7.019
				c-0.293,2.434-0.47,4.955-0.579,7.521c-0.116,2.565-0.054,5.178-0.023,7.786c0.084,2.61,0.174,5.219,0.192,7.782
				c0.063,2.563,0.062,5.087,0.154,7.523c0.104,2.435,0.097,4.795,0.178,7.022c0.031,1.115,0.062,2.2,0.091,3.25
				c0.003,1.052,0.048,2.063,0.113,3.032c0.044,0.972,0.086,1.903,0.126,2.789c0.018,0.443,0.035,0.876,0.051,1.296
				c0.036,0.417,0.071,0.822,0.104,1.214c0.148,1.567,0.227,2.955,0.38,4.074c0.364,2.227,0.543,3.537,0.543,3.537l-0.19,0.061
				c0,0-0.431-1.228-1.134-3.441c-0.342-1.108-0.537-2.489-0.881-4.063c-0.379-1.575-0.503-3.372-0.777-5.329
				c-0.268-1.961-0.356-4.086-0.508-6.338c-0.087-1.126-0.127-2.282-0.132-3.464c-0.019-1.183-0.044-2.39-0.034-3.618
				c0.008-2.456,0.093-4.989,0.149-7.564c0.082-2.573,0.297-5.185,0.482-7.793c0.211-2.607,0.417-5.213,0.509-7.781
				c0.13-2.567,0.132-5.099,0.112-7.552c0.011-2.451-0.052-4.826,0.053-7.069c0.089-2.243,0.264-4.359,0.428-6.313
				c0.347-3.904,0.764-7.147,1.117-9.412c0.187-1.131,0.333-2.02,0.433-2.626c0.117-0.604,0.18-0.926,0.18-0.926L81.21,31.146z"/>
		</g>
		<g>
			<path fill="#000433" d="M29.36,79.637c0,0,1.389-0.204,3.827-0.504c2.438-0.278,5.919-0.728,10.106-1.146
				c4.186-0.435,9.074-0.883,14.317-1.291c5.243-0.423,10.842-0.771,16.445-1.078c2.804-0.12,5.607-0.24,8.367-0.358
				c2.76-0.115,5.479-0.159,8.111-0.211c2.631-0.056,5.177-0.059,7.591-0.037c2.414,0.006,4.698,0.064,6.805,0.151
				c2.107,0.071,4.039,0.2,5.747,0.354c1.708,0.148,3.196,0.313,4.415,0.505c0.611,0.076,1.152,0.18,1.62,0.289
				c0.468,0.104,0.868,0.173,1.182,0.283c0.63,0.191,0.966,0.293,0.966,0.293s-0.344-0.065-0.99-0.188
				c-0.318-0.074-0.725-0.1-1.196-0.152c-0.472-0.053-1.013-0.108-1.625-0.139c-1.218-0.092-2.703-0.137-4.407-0.147
				c-1.704-0.012-3.626,0.017-5.724,0.051c-2.097,0.04-4.369,0.112-6.772,0.192c-2.403,0.098-4.937,0.199-7.559,0.305
				c-5.244,0.258-10.836,0.531-16.429,0.806c-5.595,0.284-11.19,0.568-16.436,0.835c-5.249,0.248-10.147,0.479-14.347,0.678
				c-4.204,0.162-7.707,0.298-10.159,0.393C30.763,79.594,29.36,79.637,29.36,79.637z"/>
		</g>
	</g>
</g>
<g id="home">
</g>
<g id="new_with_add">
</g>
<g id="new_with_more">
</g>
<g id="new_with_less">
</g>
<g id="new_sub">
</g>
<g id="new_description">
</g>
<g id="new_desc_w_milestone">
</g>
</svg>
