<?xml version="1.0" encoding="utf-8"?>
<!-- Generator: Adobe Illustrator 16.0.3, SVG Export Plug-In . SVG Version: 6.00 Build 0)  -->
<!DOCTYPE svg PUBLIC "-//W3C//DTD SVG 1.1//EN" "http://www.w3.org/Graphics/SVG/1.1/DTD/svg11.dtd">
<svg version="1.1" xmlns="http://www.w3.org/2000/svg" xmlns:xlink="http://www.w3.org/1999/xlink" x="0px" y="0px" width="320px"
	 height="16px" viewBox="0 0 320 16" enable-background="new 0 0 320 16" xml:space="preserve">
<g id="exports">
</g>
<g id="home">
</g>
<g id="view">
	<g id="month">
	</g>
	<g id="selection">
		<g>
			<path fill="#D7E4FF" d="M0,15.852C21-9.503,267,17.318,320,0.519V16"/>
			<path fill="#000433" d="M0.001,15.852c1.073-1.3,2.483-2.281,3.96-3.082c1.479-0.808,3.042-1.454,4.629-2.016
				c3.184-1.104,6.466-1.896,9.767-2.551c6.607-1.302,13.299-2.093,19.995-2.716c6.699-0.611,13.416-0.983,20.132-1.277
				c6.718-0.287,13.438-0.47,20.159-0.593c6.721-0.109,13.441-0.2,20.162-0.176c6.72,0.01,13.439,0.061,20.158,0.135
				c13.438,0.15,26.871,0.395,40.303,0.651l40.288,0.892c13.428,0.286,26.856,0.454,40.282,0.561
				c13.425,0.096,26.854,0.044,40.265-0.495c6.705-0.254,13.408-0.622,20.085-1.271c3.337-0.333,6.67-0.729,9.98-1.267
				C313.479,2.121,317,1.472,320,0.519l0,0l0,0V16V0.519l0,0l0,0c0,2.082-13.089,3.105-19.753,3.941
				c-6.678,0.804-13.385,1.34-20.097,1.735c-13.429,0.731-26.874,0.975-40.314,1.071c-13.441,0.092-26.879-0.111-40.314-0.304
				c-13.435-0.224-26.868-0.446-40.297-0.767c-13.429-0.315-26.857-0.617-40.285-0.825c-6.714-0.104-13.427-0.183-20.141-0.222
				c-6.713-0.028-13.426-0.085-20.139-0.045c-13.422,0.077-26.85,0.36-40.232,1.318c-6.688,0.479-13.373,1.125-19.977,2.28
				c-3.299,0.579-6.578,1.307-9.768,2.324c-1.593,0.513-3.163,1.109-4.655,1.869C2.539,13.651,1.113,14.582,0.001,15.852z"/>
		</g>
	</g>
</g>
<g id="new">
	<g id="new_with_add">
	</g>
	<g id="new_with_more">
	</g>
	<g id="new_with_less">
	</g>
	<g id="new_sub">
	</g>
	<g id="new_description">
	</g>
	<g id="new_desc_w_milestone">
	</g>
</g>
</svg>
