<?xml version="1.0" encoding="utf-8"?>
<!-- Generator: Adobe Illustrator 16.0.3, SVG Export Plug-In . SVG Version: 6.00 Build 0)  -->
<!DOCTYPE svg PUBLIC "-//W3C//DTD SVG 1.1//EN" "http://www.w3.org/Graphics/SVG/1.1/DTD/svg11.dtd">
<svg version="1.1" xmlns="http://www.w3.org/2000/svg" xmlns:xlink="http://www.w3.org/1999/xlink" x="0px" y="0px" width="5px"
	 height="70px" viewBox="0 0 5 70" enable-background="new 0 0 5 70" xml:space="preserve">
<g id="exports">
	<g>
		<path fill="#000433" d="M1.481,1.5c0,0,0.367,0.988,0.964,2.729c0.224,0.894,0.454,1.998,0.741,3.271
			c0.215,1.273,0.428,2.715,0.605,4.296c0.107,1.58,0.312,3.299,0.336,5.112c0.062,1.815,0.129,3.732,0.085,5.71
			c0.003,3.96-0.224,8.169-0.454,12.373c-0.151,2.098-0.301,4.195-0.45,6.26c-0.144,2.065-0.34,4.091-0.496,6.053
			c-0.327,3.921-0.632,7.579-0.893,10.716c-0.105,1.568-0.202,3.007-0.288,4.281c-0.05,1.274-0.12,2.39-0.133,3.307
			C1.506,67.44,1.481,68.5,1.481,68.5s-0.152-1.038-0.37-2.877c-0.086-0.92-0.136-2.038-0.223-3.324
			c-0.077-1.286-0.093-2.734-0.115-4.318c-0.006-3.163,0.085-6.853,0.283-10.791c0.105-1.97,0.184-4.006,0.326-6.068
			c0.126-2.063,0.254-4.159,0.381-6.255c0.129-2.093,0.258-4.185,0.385-6.245c0.093-2.06,0.252-4.085,0.309-6.045
			c0.091-1.961,0.147-3.853,0.183-5.649c0.061-1.798-0.008-3.488,0.01-5.06c-0.072-1.559-0.125-2.998-0.197-4.267
			C2.306,6.351,2.2,5.245,2.073,4.336C1.68,2.536,1.481,1.5,1.481,1.5z"/>
	</g>
</g>
<g id="home">
</g>
<g id="view">
	<g id="month">
	</g>
	<g id="selection">
	</g>
</g>
<g id="new">
	<g id="new_with_add">
	</g>
	<g id="new_with_more">
	</g>
	<g id="new_with_less">
	</g>
	<g id="new_sub">
	</g>
	<g id="new_description">
	</g>
	<g id="new_desc_w_milestone">
	</g>
</g>
</svg>
