<?xml version="1.0" encoding="utf-8"?>
<!-- Generator: Adobe Illustrator 16.0.3, SVG Export Plug-In . SVG Version: 6.00 Build 0)  -->
<!DOCTYPE svg PUBLIC "-//W3C//DTD SVG 1.1//EN" "http://www.w3.org/Graphics/SVG/1.1/DTD/svg11.dtd">
<svg version="1.1" xmlns="http://www.w3.org/2000/svg" xmlns:xlink="http://www.w3.org/1999/xlink" x="0px" y="0px" width="320px"
	 height="16px" viewBox="0 0 320 16" enable-background="new 0 0 320 16" xml:space="preserve">
<g id="exports">
</g>
<g id="home">
</g>
<g id="view">
	<g id="month">
	</g>
	<g id="selection">
		<g>
			<path fill="#D7E4FF" d="M320,0.242C299,25.596,53-1.392,0,15.408V0.26"/>
			<path fill="#000433" d="M320,0.075c-1.073,1.3-2.483,2.281-3.96,3.082c-1.479,0.808-3.042,1.454-4.629,2.016
				c-3.184,1.104-6.466,1.896-9.767,2.551c-6.607,1.302-13.299,2.093-19.995,2.716c-6.699,0.611-13.416,0.983-20.132,1.277
				c-6.718,0.287-13.438,0.47-20.159,0.593c-6.721,0.109-13.442,0.2-20.162,0.176c-6.72-0.01-13.439-0.061-20.158-0.135
				c-13.438-0.149-26.871-0.395-40.303-0.651l-40.288-0.892c-13.428-0.286-26.856-0.454-40.282-0.561
				c-13.425-0.096-26.854-0.044-40.265,0.495c-6.705,0.254-13.408,0.622-20.085,1.271c-3.337,0.333-6.67,0.729-9.981,1.267
				C6.521,13.806,3.222,14.455,0,15.408l0,0l0,0V-0.073v15.481l0,0l0,0c6.399-2.082,13.09-3.105,19.754-3.941
				c6.678-0.804,13.385-1.34,20.097-1.735C53.279,9,66.725,8.757,80.165,8.66c13.441-0.092,26.879,0.111,40.314,0.304
				c13.435,0.224,26.868,0.446,40.297,0.767c13.429,0.315,26.857,0.617,40.285,0.825c6.714,0.104,13.427,0.183,20.141,0.222
				c6.713,0.027,13.426,0.086,20.139,0.045c13.422-0.077,26.85-0.36,40.232-1.318c6.688-0.479,13.373-1.125,19.977-2.28
				c3.299-0.579,6.578-1.307,9.768-2.324c1.593-0.513,3.163-1.109,4.654-1.869C317.463,2.275,318.889,1.345,320,0.075z"/>
		</g>
	</g>
</g>
<g id="new">
	<g id="new_with_add">
	</g>
	<g id="new_with_more">
	</g>
	<g id="new_with_less">
	</g>
	<g id="new_sub">
	</g>
	<g id="new_description">
	</g>
	<g id="new_desc_w_milestone">
	</g>
</g>
</svg>
