<?xml version="1.0" encoding="utf-8"?>
<!-- Generator: Adobe Illustrator 16.0.3, SVG Export Plug-In . SVG Version: 6.00 Build 0)  -->
<!DOCTYPE svg PUBLIC "-//W3C//DTD SVG 1.1//EN" "http://www.w3.org/Graphics/SVG/1.1/DTD/svg11.dtd">
<svg version="1.1" xmlns="http://www.w3.org/2000/svg" xmlns:xlink="http://www.w3.org/1999/xlink" x="0px" y="0px" width="300px"
	 height="40px" viewBox="0 0 300 40" enable-background="new 0 0 300 40" xml:space="preserve">
<metadata><?xpacket begin="﻿" id="W5M0MpCehiHzreSzNTczkc9d"?>
<x:xmpmeta xmlns:x="adobe:ns:meta/" x:xmptk="Adobe XMP Core 5.3-c011 66.145661, 2012/02/06-14:56:27        ">
   <rdf:RDF xmlns:rdf="http://www.w3.org/1999/02/22-rdf-syntax-ns#">
      <rdf:Description rdf:about=""
            xmlns:dc="http://purl.org/dc/elements/1.1/">
         <dc:format>image/svg+xml</dc:format>
         <dc:title>
            <rdf:Alt>
               <rdf:li xml:lang="x-default">what ive learned</rdf:li>
            </rdf:Alt>
         </dc:title>
         <dc:creator>
            <rdf:Seq>
               <rdf:li>Alex Kott</rdf:li>
            </rdf:Seq>
         </dc:creator>
      </rdf:Description>
      <rdf:Description rdf:about=""
            xmlns:xmp="http://ns.adobe.com/xap/1.0/"
            xmlns:xmpGImg="http://ns.adobe.com/xap/1.0/g/img/">
         <xmp:CreatorTool>Adobe Illustrator CS6 (Windows)</xmp:CreatorTool>
         <xmp:CreateDate>2015-04-21T11:35:36+02:00</xmp:CreateDate>
         <xmp:ModifyDate>2015-04-21T11:35:37+02:00</xmp:ModifyDate>
         <xmp:MetadataDate>2015-04-21T11:35:37+02:00</xmp:MetadataDate>
         <xmp:Thumbnails>
            <rdf:Alt>
               <rdf:li rdf:parseType="Resource">
                  <xmpGImg:width>256</xmpGImg:width>
                  <xmpGImg:height>64</xmpGImg:height>
                  <xmpGImg:format>JPEG</xmpGImg:format>
                  <xmpGImg:image>/9j/4AAQSkZJRgABAgEASABIAAD/7QAsUGhvdG9zaG9wIDMuMAA4QklNA+0AAAAAABAASAAAAAEA&#xA;AQBIAAAAAQAB/+4ADkFkb2JlAGTAAAAAAf/bAIQABgQEBAUEBgUFBgkGBQYJCwgGBggLDAoKCwoK&#xA;DBAMDAwMDAwQDA4PEA8ODBMTFBQTExwbGxscHx8fHx8fHx8fHwEHBwcNDA0YEBAYGhURFRofHx8f&#xA;Hx8fHx8fHx8fHx8fHx8fHx8fHx8fHx8fHx8fHx8fHx8fHx8fHx8fHx8fHx8f/8AAEQgAQAEAAwER&#xA;AAIRAQMRAf/EAaIAAAAHAQEBAQEAAAAAAAAAAAQFAwIGAQAHCAkKCwEAAgIDAQEBAQEAAAAAAAAA&#xA;AQACAwQFBgcICQoLEAACAQMDAgQCBgcDBAIGAnMBAgMRBAAFIRIxQVEGE2EicYEUMpGhBxWxQiPB&#xA;UtHhMxZi8CRygvElQzRTkqKyY3PCNUQnk6OzNhdUZHTD0uIIJoMJChgZhJRFRqS0VtNVKBry4/PE&#xA;1OT0ZXWFlaW1xdXl9WZ2hpamtsbW5vY3R1dnd4eXp7fH1+f3OEhYaHiImKi4yNjo+Ck5SVlpeYmZ&#xA;qbnJ2en5KjpKWmp6ipqqusra6voRAAICAQIDBQUEBQYECAMDbQEAAhEDBCESMUEFURNhIgZxgZEy&#xA;obHwFMHR4SNCFVJicvEzJDRDghaSUyWiY7LCB3PSNeJEgxdUkwgJChgZJjZFGidkdFU38qOzwygp&#xA;0+PzhJSktMTU5PRldYWVpbXF1eX1RlZmdoaWprbG1ub2R1dnd4eXp7fH1+f3OEhYaHiImKi4yNjo&#xA;+DlJWWl5iZmpucnZ6fkqOkpaanqKmqq6ytrq+v/aAAwDAQACEQMRAD8A6Nq3mT81rPW7iOz8qxah&#xA;o6SOtrJFcwpLIhQCMv6sienSQEseLVUjYEE5tQA4aNuvMfn230+zu18rG5mmFy9zYRXUAliVSTaq&#xA;zswj5Mn95xLAN9mvZoKt1PzX55tdTS3s/J81/aMIzJcpd2sYSqI8oXm45kc2UfZFV6muzQ71Qt15&#xA;j/Mu99fTLfym2mXMi8YdXkvraW1jJGzsFBmIrtRYyfljQVmsNtq8flKC3ku1k1RRxku+A4mTjuwX&#xA;9Va+JB6ZT/H8Gf8AD8WKaTqP5gy+WVuhYQS6yLkwvZ3zyWaehC7I0issc78n41WtQR8QNOtxq2CP&#xA;tdU88Okv1nQbWF0/uxHf+or1iDChMEZH734DUDb4vbBsqnFqP5iOtoX0XTozJIReA6hKfSiolGWl&#xA;t8bmr1XYCn2jWuOysnT7Q+YyJUJJ+ZV95jsLOS50KF7m49WON4o4/UkCuVHqKu5PE0B2Pwkk9Mjg&#xA;+kMp/Uh9UvPPlrcOumaZY6napHGI5J7x7SZ5KH1SyrbzIN6cQPvGWbMVOfVPzC4xfV9AsTJJwLiX&#xA;UWVI6whpAzLbOdpiUUqp5AVPGuOy7I/SbnzXJeyJqtjZ21isYMU1vcyTStJ8NQ0TQxqq/a39Qnpt&#xA;iaVkNp/cXP8AqfxynJzDKPIsKstS84ya9rFm1uhitIRNZGVTFbyPIpEMYnAdipZDzIUlPA1GXbMV&#xA;Sw1T8w2VEv8AQLGOQxsWlg1Bnj9ReFAQ9ujKHq3TlSnXfHZV0upfmAWvDBodjwjNLES37q0vxoPj&#xA;4W7iMcCzdW3FKDqXZU+sHvnsoWv4o4b1kBuIoXaWNX7hHZYyw9yowId5sm1SHQRLpac7xISyKAGa&#xA;grXip+0w6he/TK8fM+9slyDHVttZ1by7Yahd6xdaJcRxtdTNBHDGeDRnj68dxHLTgDzKkCjbHplh&#xA;kBueSIQMpCIFk7JEmoUtBaN5+upL6UyCOtraNOiTRoyGSKGEECNY2ZXou7/FX4RmP+dxd7tD2Jqt&#xA;zwbDr051sTsTfROdC06W/EF5Z+cdQ1G2tZj6/wANjwmYcGMUvC2SgA2/d8TuamuW480Zi47uDqtJ&#xA;lwS4ckeGRF79zNtO/wB7Yvmf1HBl+ktOPmxPWdQ8yw+bNNs7WL/cXdGQSzCP1EHFCzeq23pkcfg7&#xA;NWmWjkxSzzRZXenzSXLedb3R1vZWeKNo7GWGMAKKKJoGKxpT+bq29dsqyZ4Y64nL0mhy6ixjjxcK&#xA;HbVLG6uhOnnm4Sy9aRFWGG2EbvJKJFiWZoHVlRKRLx+Lr8XLKxrcR6hypdiasc8ZurrawPMcx+Cy&#xA;zRNKv9PilW81a51V5GqslysCFBueKiCOId+9cyS6pOnEh0iYRECTn8BPTlx2r1yk/X8GX8LCtDbz&#xA;PrmlaxbalPcaVOZntreeKJIpoqAFmhZw6OgJ4o/E8tz8rixSpLwafJdwXvn65m9MiJI5YLH1xLbN&#xA;zmCelApk5L+7ZeFetDXMeWsxCwSNnaY+xtVMAxgSJAHyo8rPIIvS7abU5JIbPzxe3F3GyySRxxWa&#xA;hEViCODW/Kkh2Ysx3B48emTx6iEzUTbRqez8+CIlkgYg9WaQxmOGONpGlZFCmV6cmIFOTcQoqe9B&#xA;ljgr8VSez/Sl+JpzfG3h9e4hSKKKPkogleEHnIJNzw5Gq4VVbS1uJEeSPV7mccnjHNLbiHjco32I&#xA;UOzKR1xVF6fJO9tWdleUSSoWVeIISRlXardgO+BUyb/jmp/xlP8AxHKh9fwZ/wAKFy1gxUyfmabi&#xA;SJbfSo4ZJVaO7eWaQxRCUBo/QVI/UJhBYN6q/F2pktko7yzd+brg3Y8xWNtZGJkS3NrK0qyGhLsC&#xA;wU8N1C1ANa1HTAaVPU+0PmMiVCI1H/e2X5j9QyGL6Qyyc0n1r9N/VUGjiH6y0qCRrgkKsVauVADc&#xA;m7AH55YGDG57/wDNmO3muxpWku8aL6WmxXM7vK4ZuZ+sPHCqArxovpnua9slsnZltk141lbteqiX&#xA;hjQ3KREmMS8RzCE7lQ1aVyKEwtP7i5/1P45Vk5hnHkULlrBjeteY/MthqUkNn5ZutVs1VfTnt5rV&#xA;CzkVO080VFFaePXt1ICWtI8zeYLnV4NM1Ly7NYtJb/WJbxJkmtoz0MZeiEvy2AA6b7d0haZLgQq6&#xA;pa29zaW0U6CSLhUxt9ltzsy9GHsdsqx8yzlyDFvMem2VlZNdWHlm21a5LN6kKxwK9PTdg/xgcquF&#xA;Ugb75cGLFY9Z1ieP6zb/AJXygNG7er61hbysQgMXGrLIA9aGtCvgemGh3srPeyLyklzI09pN5cuN&#xA;AtYlSVG+tK0ckkw5uirDJXlH0diKV6VG+R4QOScmSUjcjZZdpFlbQ6gkiJ+9aoaViXcinTkxLU2G&#xA;1crzfSUY+aEu9V022ldJrmNJF3aLkC9DT9gVb9odssDFjuuarfzyxyaRq9jawoUMy38LcAoL82Dk&#xA;pUnkgC7dDvmPnhlJ9BA94v8AHRx8ozX+7IH4/H60unfUZvQB816LJ6cvqxB7aIjpxTiPX2KGtCMq&#xA;lp8x/ijz/m/tTGWqjdZOfPbmD05svGs6R8am/ty8QBl/ep8NRWrCu1czabkzW4g/Q8k/qL6Ik5GX&#xA;kOIULueXSgyo/X8Gf8KVPr+joR/pSOCKho6yL1p1QMMtpgxU3nmAyuj+Z9Jt0cIbdpLcCdjxCuWj&#xA;eSPiC/KnXMLwdRZ9Ua/q/tcXh1PLjFe78fpR2hXQgvri6u9f0u6ieMG4+rpFE/NaBWZxI3wKo6NX&#xA;fuBtlmLDkjK5EG+4V+lvjLOQBOfFEch3e5kMWqaZK0axXkEjSisSrIhLD/Jod+uZLNFYqk+lQ3Mt&#xA;gywzG2pe3pcqoZiPrcvTnyA8ehwlV2hafd28TtLd3Dj6xcH0ZUt1BBmk+L93FGfjrz64lURo0zTW&#xA;cjsACLq7TbwS5kQf8RwFU4b/AI5qf8ZT/wARyofX8Gf8KFy1gwZvLWmw6tqNwnm6/tb55llv0+sW&#xA;4RY5GkKQFHiKqOMoUN/eABaMMlfklOvKWnT2cd60muya5FLOTbtIyOIIwKrFyTdm+KpZjU7dqYCp&#xA;ZAn2h8xkSoRGo/72y/MfqGQxfSGWTmkHmnTrbUNFmgu7+XTrMFJbm5hZFb04mDlS0iuOLcaNtuNs&#xA;tDFitx5fiS1a30/z5e2kxiR7VZ7i2mESqF5PxdFkcERNs7FQa7UqMN+Ss8t4jDbxRGRpTGioZXNX&#xA;biKcmPie+RQjrT+4uf8AU/jlWTmGceRQuWsGNa1o3mi61n6zYeYV02D0DHa2X1cSgyhHrI/OQBxz&#xA;ZCQFB4rQFak4QUu0nT/PsGth9U1ezvdIMbM8cVqYJfVJoqJWSSkYBrUsSdh4kppWS4EIq7/uLb/U&#xA;/jlWPmWcuQQuWsGDRaF+YEpNzpXnSCa2nZ3Z57KO6RT/ACQelJDxRX5CjMxpQV2yVjuSzW2ilito&#xA;opZTPLGirJOwCs7AULkKAoLHfYZFCN07/e2L5n9RyvL9JZ4+aHYDm3ud8mGJYpe+avNdrPaRp5Su&#xA;rxZ4kedre5tB6UnHlJGfWkiVioNBRt2B7UJlQWlWy8y+ZptV+o3Pla5toQGY3/1m1eCiqx+GjiQl&#xA;mUKvwd6njjQVNdCv9Qv9MiudQ099Lu2qstpJJHLQqaVV4ywZG6qdjTqBgKp0ADprg9PVH/EcqP1/&#xA;Bl/ClOpXd9bJG1pZte1L+qquqMqrC7rx5bMXkVUA/wAqtdstYMch83ecZDOreS7tTASFb63ZcZeJ&#xA;ofTrJy3qGXkAKV3BoCaHemkVa+ZvMs9naXL+V7mBp7j0p7WS4tvWih4qPWorlG/eN9nlXgpbrRS0&#xA;tMlwIdirH/rdpbTXcFveX1VlcskdnJcRJLIxlcK6QNy3k3HM06bYUqlvPczRsWv7wA7KVsWicHxp&#xA;LC9fuxQjtGjt47ALbvLKnqzF5J14SNI0ztISvGP9snooHhgKpw3/ABzU/wCMp/4jlQ+v4M/4Up1j&#xA;Uk0zTLm/eKScW6FxDCpeRyOiqAD1P3ZaGDzzV9f/ACsu9ZW31Pypc3l9PJM8ckuiTTCTiQkkyM0R&#xA;5K3EVYe3KmTAPey3THyN5v8AJYuI9B8uaTqVqk00zTGSwuYoYpQpZvWmlHFTxVVUV2+FfbAQUEM/&#xA;T7Q+YyBUIjUf97ZfmP1DIYvpDLJzYl5q8xaNaSjStT0y71KG4RJHjt7Ka8Q1lAWqxo4PHiXPhQd2&#xA;UG0BiwK9178l54biabypdCIXvO6nj0edFe5hkpykkSMBz6jcaMa1O4yVFO707y/r9vrlk95b2t3a&#xA;xLK0SrfW8lrI/EA81jlCvwNdiRkSEJ7af3Fz/qfxynJzDKPIoXLWDznzB5h/KLXJxc6lrgjntYtm&#xA;t764tmWLk7cv9GdNm4cv9XiTsVyQBTuh9B8x/k55Z1G5msvMsatPDAkdnLdSTIkfFCphjcsWMoKk&#xA;tuT9GEglO707IMUVd/3Ft/qfxyrHzLOXIIC7tYbu0mtJwTDcRtFKFZkPFwVajKQymh6g1y1gxaL8&#xA;qvJkCTx2sFzaW9wJA1ra3l3BbqJQQ3CCKVIl+0aUXbtkuIptkGkaLp2kWzW1hG0cLyNKwZ3kPJqD&#xA;q5Y0AAAHYZElCb6d/vbF8z+o5Xl+ks8fNDv9o/M5MMSxWz/LTyna3cF16d3cyW031q2S7vbu5ijm&#xA;6+osU0rx8q7149emS4itqEv5UeULi5N3dLeT3byNNJP9duoi0ryeq0nGGSNFblShUCgAA2AGHiK2&#xA;mGheRfL2h3sd5p6XAmhtjZwCW6uJo44Gk9XgkcsjoKNsNqgbDbAStsqX/jmv/wAZR/xHKT9fwZfw&#xA;pHrvl/Ttcto7a+MwjicyIbeea3YPwZK84WRtg5I3675cDTBKD+Wvlf6lcWgW59O9lim1CVrqeSe5&#xA;MAPpLLcO7TcUajAK4FR4EgvEU2oRflP5MiEpiivEllkWX1xqF96qutQGjk9bmho7iqmtGbxOHiK2&#xA;yHQdD07QtLh0vTlkW0g5FBLLJM9XYuxaSVndqsx6nIkqj8UJBFqMmm6Tcyi1lvLw3F9LHaQgGSRU&#xA;uJKGpIAATjufYCpoCUoTyt50u9ZvLq3n05Iobd1iW+s7g3duzmp4lzFAw2oQQpBBBqKiqQtJ1oLu&#xA;9jKWJJF3eip8Fu5QB9AGJQnTf8c1P+Mp/wCI5SPr+DP+FC5awSm/1p4Z5Y7W1+sNalVuZnb044zI&#xA;ARGCFkdnIZTxC0oRUjDSouyvlnkmgeFre5h4maNht8deLI42dTxO/wB9DtgVGJ9ofMYCkIjUf97Z&#xA;fmP1DIYvpDLJzSj9N2B5mMyTRxkq8sMMsqclNCoZFYMQag8a0oa5ZTBfFqOmy6YmpJNGdPeMXK3B&#xA;ICemRzD1P34qhoPMmlyy+n++h+IKHngmiWrDbkXVeFei86cu1cNKn1p/cXP+p/HKcnMM48ihGZVF&#xA;WIA8TlrBCyabpVzBGklrBNArrNECisodTyR12pUHcHFVw0zTRdfWxaxfWioT1+C8+KsWA5Ur9pic&#xA;VRAZWFVIIqRUeINDiqLu/wC4tv8AU/jlWPmWcuQQuWsEqPmO2MhEFvcXMKsyG5iQFCyV5hAzLJLx&#xA;4mvpq3h1w0qPs7y2vLZLm1kEsEgqjr0NDQ/SCKEYFR+nf72xfM/qOV5fpLPHzQl3cQ20U1xO4jgh&#xA;VpJZG2CooJZj7ADJhilujeZtF1l5o9PnMktuscksTxyQuEmBaJ+MqoSrgVUjbJEKqXOsJHdNa21t&#xA;NfXEYBnS3EYEYbcc3leJKkb8eXKm9KYKQq6fqtlfqxt3rJHT1ojTmhbpyAr1psRseoJGKpqv/HNf&#xA;/jKP+I5Ufr+DP+Fj2v8AmjTNDEX1z1WeYSOkcMbyNwhQvI9FB+FaDl4VFdsuAYouz1fTbzS01W3n&#xA;VtOkjMyXJPFDEKnnU0otBXfBSEG3ma3QJNPaXNvZSkCK8lVFVqqWr6XP6woABJ5RigBJ23w0lN0d&#xA;XRXQhkYAqw6EHcHAhvFUpt7i409JYZbW4mBuJ5I5YwsgZZZGlGwbkOPqcfiA6eGFUSL2ZeAj024K&#xA;OSSQYFC8tyWDSqdyfDArWipcrYn6zCYJXmuJPSPAlVknd0r6ZZa8GFaHEqnDf8c1P+Mp/wCI5UPr&#xA;+DP+FC5awY1qmhSPfXckln9ftbt0mXi0ZkilREQqYpikLowhU1LVqelOhtKZ6PpjW0k11LEkE06x&#xA;xJbQsTFFDDyMcaiiLXlI7EhR1puAMShM0+0PmMiUhV1ZGee4RWKMwKhx1UlaVHyyGL6QyyfUwa1i&#xA;u7VbC3kjuYZLaKKHUrK3tpXjuZLZVELQzr+4RGI+IswqlFfjQgXMU1udLvE8urEIvXvEnW+ktlYG&#xA;r/WfrTxxlyqkqSRFyIWoWtBgVL5Le8vTf2sV1fTrqb8OE9osEUMDxJHI7PJbxVdKMUUMamlRTkQV&#xA;Zxaf3Fz/AKn8coycwyjyLBPMcywajcTXT26XIeNNPGo0Fo9vKixuqMylRKspZyifG4CqdivG8MUN&#xA;daeyaTarM0dvpoW5+ppew/uI3d6wGeINCiVSpj58VjJ405cRiq60tLk6ZcTW1Z7Ex2S3Mdoskccz&#xA;QzFrpoEV5OYeJqOUr6lOI5HFVXQ7ON9TtDavDc/V5WuGu7eIRrFFLFIj2ZKooKpKyFFZi1PtAcQS&#xA;lWe3f9xbf6n8cox8yylyCFy1gw2HTJLcafFdxX8l3pqGGOG3eURTBUEaPHJG0cSBuFSsrCnT3MrS&#xA;yXRrKWz09Ypm5Tu8s89CWUSXErTSKhIB4q0hC17ZEoTbTv8Ae2L5n9RyvL9JZ4+aWa3aWd5pd/aX&#xA;oJs7iCaK5C9fSdCr0678ScsDFh35axam9zf3Oq3V3eXqQ21vFJdQvCEt1MhRBySP1HJ+J3PxbhT0&#xA;qZSUpnqdhepPeQF7mC0vJhKbm1T1jJHKiRzQSqn7xHpH+7lX7II32IIVNtKs5RdXN/NEbdp1iggt&#xA;qj93b24YoGVSUDF5XPwnpxHbFCeL/wAc1/8AjKP+I5Sfr+DP+F5z+aWjtdx2NzZz3VpqMZlj9a0j&#xA;eUtbSKonR0jHJ/hUMq/tU4jc5fEsQnun6RB/gm207TEMKNZRi2S4ry5emCvrkCtSft/D47YL3VDA&#xA;anNezTrFdG7dDFa29yiCKyMp/eyesCUmU0UqF5MKU2DbKsjs7WO0tILWMsY4I1iQsasVRQoqfHbA&#xA;hOP0K3+/R939uY35jybvB83foVv9+j7v7cfzHkvg+bv0K3+/R939uP5jyXwfN36Fb/fo+7+3H8x5&#xA;L4PmqnS2NsIfUFQ5blT2p45HxvVdMvD2pS/Qrf79H3f25L8x5MfB83foVv8Afo+7+3H8x5L4Pm79&#xA;Ct/v0fd/bj+Y8l8HzcNGYEH1Rt7f24/mPJfBVLnS2mneQSAcu1Pb55GGehVMpY7Nqf6Fb/fo+7+3&#xA;JfmPJj4Pm79Ct/v0fd/bj+Y8l8Hzd+hW/wB+j7v7cfzHkvg+arDpbRxyr6gPqLxrTpv88jLNZGzI&#xA;Y6Uv0K3+/R939uS/MeTHwfN36Fb/AH6Pu/tx/MeS+D5u/Qrf79H3f24/mPJfB83foVv9+j7v7cfz&#xA;Hkvg+arNpbSRxL6gHprxrTrv88jHNROzI47Uv0K3+/R939uS/MeTHwfN36Fb/fo+7+3H8x5L4Pm7&#xA;9Ct/v0fd/bj+Y8l8HzVLbS2hnSQyA8e1Pb55GeexVMo46NqZ0ZiSfVG/t/bkvzHkx8F36Fb/AH6P&#xA;u/tx/MeS+D5u/Qrf79H3f24/mPJfB83foVv9+j7v7cfzHkvg+aqNLYWxh9QVLhuVPanjkfG9V0y8&#xA;PalL9Ct/v0fd/bkvzHkx8Hzd+hW/36Pu/tx/MeS+D5u/Qrf79H3f24/mPJfB83foVv8Afo+7+3H8&#xA;x5L4PmxPWvzR1fSvMN3pzeTtXutOtX9NNTtYWmWasKOpiRVNayyenu3v4gVDGCOYbrRt7+ZDWen2&#xA;+oTeXdXNtPJeKUjtJJJ1htKhJWgRS6+u1AivxPc7DAMfmFtrUvzPtdPvbe2k0LWZvrUcMiG3sZpm&#xA;QyKskiyqgbj6Ucik7mpDKPiXdGO+oW0Fc/mrc3HPTtM8sa9HrUw4Wi3envHbq7HijSz8vRRep3ft&#xA;8qkY+8iltmmi/pY6TanV/SGpmNTdrBX0xIR8QUnrTxys1eyUbgV2KuxV2KuxV2KuxV2KuxV2KuxV&#xA;2KuxV2KuxV2KuxV2KuxV2KuxV2KuxV2KuxV2KuxV/9k=</xmpGImg:image>
               </rdf:li>
            </rdf:Alt>
         </xmp:Thumbnails>
      </rdf:Description>
      <rdf:Description rdf:about=""
            xmlns:xmpMM="http://ns.adobe.com/xap/1.0/mm/"
            xmlns:stRef="http://ns.adobe.com/xap/1.0/sType/ResourceRef#"
            xmlns:stEvt="http://ns.adobe.com/xap/1.0/sType/ResourceEvent#">
         <xmpMM:RenditionClass>proof:pdf</xmpMM:RenditionClass>
         <xmpMM:OriginalDocumentID>uuid:65E6390686CF11DBA6E2D887CEACB407</xmpMM:OriginalDocumentID>
         <xmpMM:DocumentID>xmp.did:17D3E856FCE7E41185F891320CD2AF94</xmpMM:DocumentID>
         <xmpMM:InstanceID>xmp.iid:17D3E856FCE7E41185F891320CD2AF94</xmpMM:InstanceID>
         <xmpMM:DerivedFrom rdf:parseType="Resource">
            <stRef:instanceID>xmp.iid:14D3E856FCE7E41185F891320CD2AF94</stRef:instanceID>
            <stRef:documentID>xmp.did:14D3E856FCE7E41185F891320CD2AF94</stRef:documentID>
            <stRef:originalDocumentID>uuid:65E6390686CF11DBA6E2D887CEACB407</stRef:originalDocumentID>
            <stRef:renditionClass>proof:pdf</stRef:renditionClass>
         </xmpMM:DerivedFrom>
         <xmpMM:History>
            <rdf:Seq>
               <rdf:li rdf:parseType="Resource">
                  <stEvt:action>saved</stEvt:action>
                  <stEvt:instanceID>xmp.iid:13D3E856FCE7E41185F891320CD2AF94</stEvt:instanceID>
                  <stEvt:when>2015-04-21T09:59:30+02:00</stEvt:when>
                  <stEvt:softwareAgent>Adobe Illustrator CS6 (Windows)</stEvt:softwareAgent>
                  <stEvt:changed>/</stEvt:changed>
               </rdf:li>
               <rdf:li rdf:parseType="Resource">
                  <stEvt:action>saved</stEvt:action>
                  <stEvt:instanceID>xmp.iid:17D3E856FCE7E41185F891320CD2AF94</stEvt:instanceID>
                  <stEvt:when>2015-04-21T11:35:37+02:00</stEvt:when>
                  <stEvt:softwareAgent>Adobe Illustrator CS6 (Windows)</stEvt:softwareAgent>
                  <stEvt:changed>/</stEvt:changed>
               </rdf:li>
            </rdf:Seq>
         </xmpMM:History>
      </rdf:Description>
      <rdf:Description rdf:about=""
            xmlns:illustrator="http://ns.adobe.com/illustrator/1.0/">
         <illustrator:StartupProfile>Web</illustrator:StartupProfile>
      </rdf:Description>
      <rdf:Description rdf:about=""
            xmlns:xmpTPg="http://ns.adobe.com/xap/1.0/t/pg/"
            xmlns:stDim="http://ns.adobe.com/xap/1.0/sType/Dimensions#"
            xmlns:stFnt="http://ns.adobe.com/xap/1.0/sType/Font#"
            xmlns:xmpG="http://ns.adobe.com/xap/1.0/g/">
         <xmpTPg:NPages>1</xmpTPg:NPages>
         <xmpTPg:HasVisibleTransparency>False</xmpTPg:HasVisibleTransparency>
         <xmpTPg:HasVisibleOverprint>False</xmpTPg:HasVisibleOverprint>
         <xmpTPg:MaxPageSize rdf:parseType="Resource">
            <stDim:w>300.000488</stDim:w>
            <stDim:h>40.000000</stDim:h>
            <stDim:unit>Pixels</stDim:unit>
         </xmpTPg:MaxPageSize>
         <xmpTPg:Fonts>
            <rdf:Bag>
               <rdf:li rdf:parseType="Resource">
                  <stFnt:fontName>NothingYouCouldDo</stFnt:fontName>
                  <stFnt:fontFamily>Nothing You Could Do</stFnt:fontFamily>
                  <stFnt:fontFace>Regular</stFnt:fontFace>
                  <stFnt:fontType>Open Type</stFnt:fontType>
                  <stFnt:versionString>Version 1.005</stFnt:versionString>
                  <stFnt:composite>False</stFnt:composite>
                  <stFnt:fontFileName>NothingYouCouldDo.ttf</stFnt:fontFileName>
               </rdf:li>
            </rdf:Bag>
         </xmpTPg:Fonts>
         <xmpTPg:PlateNames>
            <rdf:Seq>
               <rdf:li>Cyan</rdf:li>
               <rdf:li>Magenta</rdf:li>
               <rdf:li>Yellow</rdf:li>
               <rdf:li>Black</rdf:li>
            </rdf:Seq>
         </xmpTPg:PlateNames>
         <xmpTPg:SwatchGroups>
            <rdf:Seq>
               <rdf:li rdf:parseType="Resource">
                  <xmpG:groupName>Standard-Farbfeldgruppe</xmpG:groupName>
                  <xmpG:groupType>0</xmpG:groupType>
                  <xmpG:Colorants>
                     <rdf:Seq>
                        <rdf:li rdf:parseType="Resource">
                           <xmpG:swatchName>Weiß</xmpG:swatchName>
                           <xmpG:mode>RGB</xmpG:mode>
                           <xmpG:type>PROCESS</xmpG:type>
                           <xmpG:red>255</xmpG:red>
                           <xmpG:green>255</xmpG:green>
                           <xmpG:blue>255</xmpG:blue>
                        </rdf:li>
                        <rdf:li rdf:parseType="Resource">
                           <xmpG:swatchName>Schwarz</xmpG:swatchName>
                           <xmpG:mode>RGB</xmpG:mode>
                           <xmpG:type>PROCESS</xmpG:type>
                           <xmpG:red>0</xmpG:red>
                           <xmpG:green>0</xmpG:green>
                           <xmpG:blue>0</xmpG:blue>
                        </rdf:li>
                        <rdf:li rdf:parseType="Resource">
                           <xmpG:swatchName>R=215 G=228 B=255 1</xmpG:swatchName>
                           <xmpG:mode>RGB</xmpG:mode>
                           <xmpG:type>PROCESS</xmpG:type>
                           <xmpG:red>215</xmpG:red>
                           <xmpG:green>228</xmpG:green>
                           <xmpG:blue>255</xmpG:blue>
                        </rdf:li>
                        <rdf:li rdf:parseType="Resource">
                           <xmpG:swatchName>R=0 G=4 B=51 1</xmpG:swatchName>
                           <xmpG:mode>RGB</xmpG:mode>
                           <xmpG:type>PROCESS</xmpG:type>
                           <xmpG:red>0</xmpG:red>
                           <xmpG:green>4</xmpG:green>
                           <xmpG:blue>51</xmpG:blue>
                        </rdf:li>
                        <rdf:li rdf:parseType="Resource">
                           <xmpG:swatchName>R=193 G=0 B=0 1</xmpG:swatchName>
                           <xmpG:mode>RGB</xmpG:mode>
                           <xmpG:type>PROCESS</xmpG:type>
                           <xmpG:red>193</xmpG:red>
                           <xmpG:green>0</xmpG:green>
                           <xmpG:blue>0</xmpG:blue>
                        </rdf:li>
                        <rdf:li rdf:parseType="Resource">
                           <xmpG:swatchName>R=26 G=132 B=0 1</xmpG:swatchName>
                           <xmpG:mode>RGB</xmpG:mode>
                           <xmpG:type>PROCESS</xmpG:type>
                           <xmpG:red>26</xmpG:red>
                           <xmpG:green>132</xmpG:green>
                           <xmpG:blue>0</xmpG:blue>
                        </rdf:li>
                     </rdf:Seq>
                  </xmpG:Colorants>
               </rdf:li>
            </rdf:Seq>
         </xmpTPg:SwatchGroups>
      </rdf:Description>
      <rdf:Description rdf:about=""
            xmlns:pdf="http://ns.adobe.com/pdf/1.3/">
         <pdf:Producer>Adobe PDF library 10.01</pdf:Producer>
      </rdf:Description>
      <rdf:Description rdf:about=""
            xmlns:xmpRights="http://ns.adobe.com/xap/1.0/rights/">
         <xmpRights:Marked>True</xmpRights:Marked>
      </rdf:Description>
   </rdf:RDF>
</x:xmpmeta>
                                                                                                    
                                                                                                    
                                                                                                    
                                                                                                    
                                                                                                    
                                                                                                    
                                                                                                    
                                                                                                    
                                                                                                    
                                                                                                    
                                                                                                    
                                                                                                    
                                                                                                    
                                                                                                    
                                                                                                    
                                                                                                    
                                                                                                    
                                                                                                    
                                                                                                    
                                                                                                    
                           
<?xpacket end="w"?>
	</metadata>
<g id="exports">
	<g id="logo_2_">
		<g id="lightbulb_7_">
			<g>
				<path fill="#000433" d="M280.192,26.736c0,0-0.218-0.024-0.623-0.103c-0.405-0.079-1.004-0.212-1.727-0.513
					c-0.719-0.3-1.577-0.738-2.444-1.426c-0.86-0.688-1.76-1.598-2.457-2.809c-0.696-1.195-1.217-2.708-1.168-4.373
					c0.02-0.816,0.19-1.706,0.466-2.477c0.098-0.363,0.291-0.794,0.456-1.204c0.203-0.389,0.382-0.791,0.636-1.162
					c0.926-1.519,2.388-2.897,4.229-3.585c1.82-0.709,3.972-0.651,5.738-0.033c1.918,0.651,3.544,1.953,4.496,3.709
					c0.954,1.758,1.027,3.809,0.603,5.535c-0.455,1.74-1.24,3.236-2.258,4.489c-1.02,1.237-2.283,2.171-3.592,2.687
					c-1.313,0.517-2.637,0.594-3.734,0.422c-1.107-0.16-1.996-0.553-2.688-0.903c-0.691-0.359-1.181-0.724-1.513-0.967
					c-0.323-0.254-0.496-0.39-0.496-0.39s0.19,0.108,0.547,0.312c0.36,0.193,0.896,0.468,1.604,0.727
					c0.704,0.261,1.591,0.511,2.611,0.549c1.016,0.058,2.162-0.146,3.253-0.691c1.094-0.536,2.122-1.429,2.926-2.579
					c0.813-1.125,1.468-2.538,1.72-4.002c0.26-1.458,0.125-3.008-0.646-4.269c-0.71-1.266-2.014-2.277-3.412-2.726
					c-1.531-0.509-3.074-0.571-4.492-0.056c-1.388,0.521-2.614,1.479-3.438,2.726c-0.226,0.295-0.391,0.636-0.578,0.949
					c-0.154,0.328-0.326,0.609-0.466,1c-0.31,0.696-0.457,1.336-0.527,2.02c-0.112,1.345,0.171,2.668,0.702,3.779
					c1.062,2.253,2.806,3.663,4.09,4.407c0.651,0.375,1.202,0.618,1.585,0.754C279.98,26.676,280.192,26.736,280.192,26.736z"/>
			</g>
			<g>
				<path fill="#000433" d="M271.784,9.334c0,0-0.476-0.014-1-0.221c-0.133-0.05-0.277-0.104-0.414-0.176
					c-0.068-0.035-0.138-0.072-0.209-0.11c-0.071-0.014-0.135-0.036-0.202-0.054c-0.131-0.038-0.255-0.082-0.37-0.14
					c-0.133-0.054-0.191-0.121-0.364-0.198c-0.299-0.16-0.581-0.351-0.827-0.564c-0.252-0.229-0.472-0.491-0.63-0.741
					c-0.333-0.481-0.436-0.937-0.436-0.937s0.484-0.1,1.03-0.046c0.285,0.014,0.572,0.073,0.879,0.164
					c0.322,0.087,0.646,0.217,0.955,0.377c0.139,0.069,0.344,0.229,0.497,0.354c0.164,0.133,0.315,0.275,0.45,0.418
					c0.149,0.141,0.246,0.284,0.297,0.428c0.066,0.142,0.114,0.289,0.159,0.426C271.786,8.852,271.784,9.334,271.784,9.334z"/>
			</g>
			<g>
				<path fill="#000433" d="M275.362,4.955c0,0-0.327-0.248-0.553-0.614c-0.119-0.208-0.254-0.329-0.327-0.49
					c-0.052-0.046-0.086-0.064-0.104-0.092c-0.043-0.01-0.021-0.002-0.119-0.134c-0.057-0.089-0.136-0.235-0.19-0.383
					c-0.067-0.145-0.093-0.288-0.106-0.425c-0.035-0.278-0.021-0.537,0.063-0.757c0.122-0.439,0.384-0.748,0.384-0.748
					s0.394,0.153,0.713,0.406c0.169,0.132,0.336,0.264,0.472,0.402c0.065,0.074,0.13,0.146,0.185,0.203
					c0.06,0.061,0.092,0.127,0.173,0.234c0.043,0.064,0.166,0.29,0.231,0.491c0.05,0.196,0.064,0.407,0.056,0.581
					c-0.025,0.148-0.064,0.29-0.109,0.419c-0.041,0.137-0.109,0.235-0.176,0.319C275.704,4.724,275.362,4.955,275.362,4.955z"/>
			</g>
			<g>
				<path fill="#000433" d="M288.698,9.477c0,0,0.017-0.41,0.188-0.805c0.036-0.102,0.026-0.2,0.047-0.282
					c0.015-0.085,0.031-0.148,0.056-0.244c0.028-0.098,0.039-0.143,0.11-0.271c0.057-0.113,0.118-0.21,0.253-0.362
					c0.122-0.136,0.255-0.259,0.418-0.341c0.151-0.093,0.316-0.178,0.455-0.194c0.289-0.057,0.567-0.084,0.791-0.005
					c0.452,0.101,0.77,0.35,0.77,0.35s-0.139,0.4-0.371,0.728c-0.128,0.172-0.218,0.353-0.338,0.484
					c-0.074,0.063-0.086,0.134-0.128,0.178c-0.039,0.045-0.079,0.087-0.111,0.139c-0.034,0.02-0.111,0.119-0.195,0.196
					c-0.065,0.064-0.213,0.191-0.326,0.269c-0.238,0.17-0.571,0.295-0.798,0.31C289.083,9.624,288.698,9.477,288.698,9.477z"/>
			</g>
			<g>
				<path fill="#000433" d="M283.883,5.685c0,0-0.293-0.34-0.47-0.813c-0.1-0.241-0.183-0.505-0.203-0.802
					c-0.004-0.153,0.001-0.313,0.021-0.474c0.012-0.157,0.053-0.332,0.075-0.474c0.044-0.25,0.124-0.49,0.241-0.721
					c0.082-0.25,0.192-0.485,0.332-0.692c0.251-0.412,0.597-0.716,0.597-0.716s0.328,0.288,0.551,0.765
					c0.127,0.237,0.224,0.521,0.285,0.825c0.021,0.317,0,0.66-0.059,0.994c-0.063,0.278-0.161,0.511-0.294,0.749
					c-0.121,0.248-0.251,0.503-0.414,0.701C284.253,5.437,283.883,5.685,283.883,5.685z"/>
			</g>
			<g>
				<path fill="#000433" d="M292.57,15.049c0,0,0.15-0.445,0.492-0.877c0.365-0.454,1.018-0.875,1.641-1.074
					c0.644-0.211,1.227-0.232,1.72-0.223c0.273,0.005,0.502,0.01,0.661,0.013c0.181,0.01,0.304,0.024,0.304,0.024
					s-0.011,0.112-0.063,0.293c-0.056,0.174-0.145,0.445-0.339,0.671c-0.179,0.263-0.437,0.487-0.733,0.685
					c-0.287,0.185-0.618,0.335-0.921,0.436c-0.641,0.2-1.224,0.257-1.767,0.203C293.014,15.204,292.57,15.049,292.57,15.049z"/>
			</g>
			<g>
				<path fill="#000433" d="M273.51,25.901c0,0,0.422-0.046,1.155,0.053c0.728,0.104,1.771,0.271,2.985,0.626
					c0.608,0.177,1.261,0.378,1.95,0.665c0.173,0.076,0.347,0.152,0.53,0.258c0.092,0.054,0.188,0.116,0.292,0.206
					c0.061,0.069,0.117,0.1,0.185,0.261c0.029,0.045,0.05,0.191,0.022,0.308c-0.025,0.109-0.092,0.193-0.164,0.267l-0.075,0.052
					l-0.007,0.005l-0.016,0.009l-0.031,0.017c-0.009,0.009-0.087,0.038-0.131,0.051c-0.123,0.038-0.188,0.041-0.241,0.047
					c-0.126,0.017-0.226,0.012-0.336,0.013c-0.21-0.004-0.412-0.019-0.614-0.037c-1.595-0.148-3.233-0.509-4.851-0.704
					c-0.198-0.023-0.398-0.047-0.581-0.054c-0.09-0.005-0.183-0.004-0.238,0.002c-0.041,0.002-0.048,0.008-0.027-0.001
					c-0.024,0.006,0.089-0.035,0.116-0.088c0.035-0.023,0.14-0.227,0.098-0.321c0.002-0.048,0.041-0.104,0.014-0.136l0.066,0.003
					v0.004c0-0.063-0.062-0.004-0.069-0.012l0.03,0.048c0.082,0.063,0.155,0.138,0.211,0.152c0.106,0.061,0.275,0.135,0.45,0.203
					c0.718,0.249,1.5,0.431,2.26,0.601c0.764,0.169,1.505,0.336,2.224,0.613c0.178,0.063,0.359,0.16,0.535,0.256l0.266,0.207
					c0.084,0.118,0.175,0.209,0.219,0.367c0.006,0.002,0.039,0.162,0.009,0.282c-0.033,0.119-0.099,0.207-0.173,0.269
					c-0.139,0.103-0.263,0.134-0.36,0.15c-0.204,0.036-0.376,0.032-0.544,0.027c-0.66-0.032-1.221-0.159-1.724-0.263
					c-0.498-0.106-0.932-0.199-1.29-0.275c-0.357-0.07-0.637-0.132-0.83-0.155c-0.193-0.027-0.299-0.023-0.299-0.023
					s0.421-0.07,1.155-0.015c0.365,0.028,0.808,0.062,1.316,0.1c0.504,0.032,1.081,0.078,1.674,0.069
					c0.144-0.007,0.294-0.021,0.408-0.052c0.063-0.012,0.096-0.043,0.09-0.038c-0.011,0.006-0.031,0.025-0.04,0.062
					c-0.021,0.038,0.016,0.112-0.012,0.035c0.004-0.052-0.346-0.242-0.646-0.315c-0.64-0.189-1.391-0.291-2.156-0.438
					c-0.771-0.147-1.58-0.267-2.416-0.555c-0.208-0.08-0.418-0.152-0.671-0.301c-0.135-0.068-0.204-0.13-0.288-0.192l-0.062-0.047
					l-0.071-0.06l-0.051-0.055l-0.094-0.115c-0.049-0.08-0.088-0.185-0.106-0.28c-0.035-0.406,0.299-0.604,0.398-0.628
					c0.119-0.044,0.213-0.06,0.277-0.063c0.15-0.018,0.268-0.016,0.385-0.013c0.234,0.007,0.449,0.028,0.665,0.053
					c1.694,0.228,3.319,0.601,4.831,0.823c0.188,0.025,0.372,0.046,0.545,0.057c0.082,0.004,0.175,0.008,0.237,0.004
					c0.042,0.001,0.071-0.005,0.04,0.008c0.002,0-0.026,0.029,0.005,0.012l0.032-0.015l0.016-0.007l0.008-0.004
					c-0.027,0.02,0.073-0.049-0.06,0.042c-0.049,0.035-0.071,0.087-0.091,0.15c-0.028,0.07,0.008,0.168,0.007,0.172
					c0.037,0.07,0.021,0.038,0.022,0.036c-0.035-0.035-0.089-0.08-0.153-0.125c-0.129-0.09-0.281-0.174-0.431-0.255
					c-0.612-0.316-1.239-0.569-1.817-0.79c-1.161-0.433-2.143-0.785-2.846-0.967C273.928,25.944,273.51,25.901,273.51,25.901z"/>
			</g>
			<g>
				<path fill="#000433" d="M277.625,24.688c-0.233-1.457-0.302-2.915-0.322-4.366c-0.021-0.724-0.007-1.445,0.057-2.17l0.214-2.18
					l0.013-0.129l0.068-0.038c0.281-0.156,0.543-0.147,0.787-0.152c0.247,0.011,0.487,0.023,0.724,0.059
					c0.475,0.059,0.95,0.118,1.421,0.206c0.473,0.083,0.944,0.182,1.402,0.334c0.23,0.073,0.457,0.157,0.686,0.254
					c0.114,0.05,0.229,0.1,0.349,0.161c0.06,0.03,0.121,0.064,0.189,0.107c0.038,0.026,0.063,0.038,0.116,0.082l0.071,0.063
					c0.043,0.047,0.082,0.102,0.113,0.157l0.068,0.122l-0.019,0.136c-0.034,0.248-0.094,0.345-0.139,0.452
					c-0.048,0.106-0.097,0.197-0.146,0.29c-0.101,0.18-0.198,0.353-0.307,0.518c-0.216,0.33-0.437,0.647-0.661,0.963
					c-0.466,0.616-0.938,1.223-1.436,1.808c-0.994,1.17-2.032,2.301-3.16,3.355l-0.073,0.068L277.625,24.688z M277.754,24.475
					c0.756-1.258,1.563-2.473,2.385-3.67l1.299-1.871c0.222-0.307,0.439-0.614,0.644-0.923l0.301-0.453
					c0.089-0.12,0.188-0.365,0.182-0.299l0.05,0.258c0.014,0.032,0.035,0.063,0.061,0.087c0.008,0.008,0.003,0.004,0.006,0.005
					c0.01,0.004-0.016-0.014-0.024-0.022c-0.028-0.021-0.066-0.049-0.109-0.075c-0.083-0.054-0.18-0.106-0.275-0.158l-0.602-0.301
					c-0.411-0.193-0.824-0.401-1.247-0.588c-0.424-0.178-0.857-0.348-1.307-0.438c-0.225-0.038-0.451-0.073-0.672-0.062
					c-0.218,0-0.444,0.058-0.56,0.159l0.081-0.167l0.182,2.184c0.053,0.729,0.056,1.461,0.025,2.191
					C278.121,21.717,278,23.096,277.754,24.475z"/>
			</g>
		</g>
		<g id="logo_1_">
			<g>
				<path fill="#000433" d="M4.149,38.639c-0.29-0.423-0.507-1.124-0.651-2.104c-0.145-0.979-0.234-2.115-0.267-3.406
					s-0.017-2.693,0.05-4.207c0.066-1.514,0.167-3.016,0.3-4.508c0.134-1.491,0.306-2.927,0.518-4.308
					c0.211-1.38,0.439-2.587,0.685-3.622c0.245-1.035,0.501-1.842,0.768-2.422c0.267-0.578,0.545-0.822,0.834-0.734
					c0.044,0.045,0.117,0.111,0.217,0.201c0.1,0.088,0.161,0.155,0.184,0.199c0.022,0.246,0,0.707-0.067,1.387
					c-0.066,0.679-0.162,1.491-0.284,2.438c-0.123,0.945-0.256,1.986-0.401,3.121C5.89,21.81,5.74,22.961,5.584,24.131
					c-0.156,1.168-0.3,2.303-0.434,3.405c-0.133,1.103-0.239,2.093-0.317,2.972c-0.079,0.88-0.117,1.608-0.117,2.188
					c0,0.578,0.055,0.924,0.167,1.035l0.367,0.4c0.334-0.156,0.679-0.563,1.035-1.219s0.718-1.458,1.085-2.404
					c0.367-0.945,0.746-1.986,1.135-3.122c0.389-1.136,0.779-2.254,1.168-3.355c0.389-1.103,0.773-2.143,1.152-3.122
					c0.378-0.979,0.756-1.781,1.135-2.404c0.378-0.623,0.746-1.019,1.102-1.186s0.696,0,1.019,0.501
					c0.322,0.501,0.634,1.386,0.935,2.655c0.3,1.268,0.573,3.038,0.818,5.309c0,0.111,0.056,0.462,0.167,1.052
					s0.25,1.269,0.417,2.036c0.167,0.769,0.361,1.548,0.584,2.338c0.222,0.791,0.456,1.447,0.701,1.971
					c0.245,0.523,0.501,0.834,0.768,0.935s0.522-0.161,0.768-0.784c0.066-0.179,0.217-0.557,0.451-1.136
					c0.233-0.579,0.506-1.258,0.818-2.037c0.312-0.778,0.64-1.603,0.985-2.471s0.673-1.691,0.985-2.472
					c0.312-0.778,0.584-1.457,0.818-2.036c0.234-0.579,0.395-0.968,0.484-1.169c0.088-0.223,0.234-0.623,0.434-1.202
					s0.451-1.229,0.751-1.953c0.301-0.724,0.64-1.475,1.019-2.254c0.378-0.778,0.779-1.475,1.202-2.087
					c0.423-0.611,0.862-1.086,1.319-1.419c0.456-0.334,0.918-0.423,1.386-0.268c0.044,0,0.111,0.05,0.2,0.15
					s0.134,0.173,0.134,0.218c-1.38,1.781-2.521,3.561-3.422,5.342c-0.902,1.781-1.692,3.602-2.371,5.459
					c-0.679,1.859-1.325,3.752-1.937,5.678c-0.612,1.925-1.319,3.9-2.12,5.926c-0.334,0.869-0.685,1.369-1.052,1.503
					c-0.367,0.134-0.729,0.006-1.085-0.384c-0.356-0.389-0.707-0.974-1.052-1.754c-0.345-0.778-0.674-1.652-0.985-2.621
					c-0.312-0.968-0.601-1.964-0.868-2.988c-0.268-1.023-0.501-1.975-0.702-2.854c-0.2-0.879-0.362-1.624-0.484-2.237
					c-0.123-0.611-0.195-0.974-0.217-1.085c-0.045-0.179-0.083-0.39-0.117-0.635s-0.073-0.489-0.117-0.734
					c-0.045-0.267-0.089-0.567-0.134-0.901h-0.367c-0.022,0-0.156,0.229-0.401,0.684c-0.245,0.457-0.529,1.002-0.852,1.637
					s-0.651,1.297-0.985,1.986c-0.334,0.691-0.601,1.258-0.801,1.703c-0.112,0.223-0.284,0.74-0.518,1.553S9.124,30.213,8.79,31.26
					c-0.334,1.046-0.696,2.115-1.085,3.205c-0.39,1.091-0.791,2.031-1.202,2.821c-0.412,0.79-0.824,1.341-1.235,1.653
					C4.855,39.25,4.483,39.15,4.149,38.639z"/>
				<path fill="#000433" d="M23.48,38.238c-0.022-0.045-0.033-0.105-0.033-0.184s0.011-0.139,0.033-0.184
					c0.089-0.178,0.239-0.484,0.451-0.919s0.434-0.89,0.668-1.368s0.462-0.93,0.685-1.354c0.222-0.422,0.378-0.723,0.467-0.9
					c0.044-0.067,0.162-0.256,0.351-0.568c0.189-0.312,0.423-0.695,0.701-1.152c0.278-0.455,0.579-0.963,0.902-1.52
					c0.322-0.556,0.646-1.102,0.968-1.636c0.322-0.534,0.623-1.034,0.901-1.503c0.278-0.467,0.506-0.855,0.685-1.168
					c0.445-0.734,0.963-1.604,1.553-2.604c0.59-1.002,1.196-2.015,1.82-3.038c0.623-1.024,1.241-2.016,1.853-2.973
					s1.174-1.747,1.687-2.371c0.512-0.623,0.946-1.035,1.302-1.234c0.356-0.201,0.601-0.067,0.734,0.4v1.068
					c-0.156,0.245-0.367,0.563-0.634,0.951c-0.267,0.391-0.54,0.802-0.818,1.236c-0.279,0.434-0.551,0.852-0.818,1.252
					s-0.467,0.713-0.601,0.935c-0.2,0.312-0.523,0.813-0.968,1.503s-0.946,1.469-1.502,2.337c-0.557,0.868-1.125,1.776-1.703,2.722
					c-0.579,0.946-1.102,1.831-1.569,2.654c-0.467,0.824-0.84,1.531-1.119,2.121s-0.384,0.963-0.317,1.118
					c0.534-0.155,1.107-0.439,1.719-0.852c0.612-0.411,1.23-0.852,1.854-1.319c0.623-0.467,1.246-0.918,1.87-1.352
					c0.623-0.435,1.202-0.773,1.736-1.02c0.534,0.067,1.002,0.268,1.402,0.602c0.401,0.334,0.69,0.758,0.868,1.27
					c-0.022,0.199-0.039,0.572-0.05,1.118c-0.012,0.546-0.017,1.118-0.017,1.72s0.005,1.168,0.017,1.703
					c0.011,0.533,0.027,0.901,0.05,1.102c0.022,0.245,0.134,0.551,0.334,0.918c0.201,0.367,0.417,0.734,0.651,1.102
					c0.233,0.367,0.445,0.686,0.634,0.952c0.189,0.267,0.272,0.412,0.25,0.435c-0.446,0.156-0.868,0.161-1.269,0.016
					c-0.4-0.145-0.751-0.377-1.052-0.701c-0.3-0.322-0.545-0.689-0.734-1.102c-0.189-0.411-0.306-0.818-0.351-1.219
					c-0.022-0.2-0.056-0.572-0.1-1.118c-0.045-0.546-0.083-1.118-0.117-1.72c-0.033-0.602-0.067-1.169-0.1-1.703
					s-0.05-0.901-0.05-1.102l-0.768-0.4c-0.134-0.067-0.362-0.012-0.685,0.166c-0.323,0.179-0.696,0.424-1.119,0.734
					c-0.423,0.313-0.868,0.668-1.335,1.069c-0.468,0.4-0.908,0.779-1.319,1.136c-0.412,0.355-0.763,0.667-1.052,0.934
					c-0.29,0.268-0.467,0.435-0.534,0.502c-0.178,0.178-0.501,0.495-0.968,0.951c-0.467,0.457-0.963,0.946-1.486,1.469
					c-0.523,0.523-1.013,1.02-1.469,1.486c-0.457,0.468-0.774,0.801-0.952,1.002c-0.312,0.066-0.607,0.095-0.885,0.084
					C23.853,38.711,23.636,38.55,23.48,38.238z"/>
				<path fill="#000433" d="M43.31,38.238c-0.534-0.445-0.83-1.103-0.885-1.971c-0.056-0.868,0.066-1.848,0.367-2.938
					c0.3-1.092,0.746-2.232,1.335-3.424c0.59-1.189,1.274-2.325,2.054-3.405c0.779-1.079,1.625-2.048,2.538-2.905
					c0.913-0.856,1.825-1.49,2.738-1.902c0.913-0.412,1.803-0.557,2.671-0.435s1.658,0.629,2.371,1.519
					c0.445,0.557,0.712,1.119,0.801,1.688c0.089,0.566,0.078,1.146-0.033,1.736c-0.112,0.59-0.29,1.19-0.534,1.803
					c-0.246,0.612-0.484,1.23-0.718,1.854c-0.233,0.623-0.423,1.258-0.567,1.902c-0.145,0.646-0.173,1.303-0.083,1.971
					c0.111,0.846,0.489,1.347,1.135,1.502c0.646,0.156,1.419,0.111,2.321-0.133c0.901-0.245,1.853-0.635,2.854-1.169
					c1.002-0.534,1.931-1.069,2.789-1.603c0.856-0.535,1.853-1.203,2.988-2.004c0.623-0.134,0.974-0.094,1.052,0.117
					c0.078,0.211-0.045,0.523-0.367,0.935c-0.323,0.412-0.807,0.88-1.453,1.402c-0.646,0.523-1.38,1.03-2.204,1.52
					c-0.824,0.489-1.703,0.935-2.638,1.335c-0.935,0.401-1.848,0.674-2.738,0.818c-0.891,0.146-1.731,0.134-2.521-0.033
					c-0.791-0.167-1.442-0.563-1.954-1.186c-0.245-0.268-0.429-0.534-0.551-0.801c-0.123-0.268-0.317-0.501-0.584-0.701
					c-0.334,0.312-0.734,0.718-1.202,1.219c-0.467,0.5-0.974,1.002-1.519,1.502c-0.546,0.501-1.125,0.975-1.736,1.42
					c-0.613,0.445-1.241,0.779-1.887,1.001c-0.646,0.223-1.297,0.301-1.953,0.233C44.539,39.039,43.911,38.75,43.31,38.238z
					 M43.677,37.103c0.2,0.713,0.646,1.041,1.336,0.985c0.689-0.056,1.491-0.395,2.404-1.019c0.913-0.623,1.858-1.475,2.838-2.555
					c0.979-1.079,1.858-2.281,2.638-3.606c0.779-1.324,1.375-2.721,1.787-4.19c0.412-1.469,0.518-2.915,0.317-4.341
					c-0.535-0.422-1.202-0.439-2.004-0.05c-0.801,0.39-1.653,1.024-2.554,1.903s-1.792,1.926-2.671,3.139s-1.653,2.438-2.32,3.673
					c-0.668,1.235-1.175,2.399-1.52,3.489C43.582,35.623,43.499,36.479,43.677,37.103z"/>
				<path fill="#000433" d="M67.68,38.639c-0.022-0.045-0.033-0.167-0.033-0.367c0-0.201,0.011-0.334,0.033-0.4
					c0.067-0.245,0.189-0.674,0.367-1.286s0.367-1.257,0.568-1.937c0.2-0.679,0.389-1.318,0.567-1.92s0.301-1.023,0.368-1.27
					c0.088-0.311,0.188-0.672,0.3-1.084c0.111-0.412,0.134-0.807,0.067-1.186c-0.334-0.045-0.746-0.006-1.235,0.116
					c-0.49,0.122-0.974,0.224-1.453,0.301c-0.479,0.078-0.924,0.078-1.336,0c-0.412-0.077-0.707-0.339-0.885-0.784
					c0.267-0.557,0.668-0.919,1.202-1.086s1.113-0.283,1.736-0.351c0.623-0.067,1.219-0.167,1.787-0.3
					c0.567-0.135,1.018-0.435,1.352-0.902c0.201-0.578,0.439-1.285,0.718-2.12s0.573-1.708,0.885-2.621
					c0.312-0.913,0.651-1.813,1.018-2.704c0.368-0.891,0.751-1.682,1.152-2.371c0.245-0.156,0.445-0.168,0.601-0.033
					c0.155,0.133,0.272,0.328,0.351,0.584c0.078,0.256,0.127,0.518,0.15,0.785c0.022,0.267,0.022,0.445,0,0.533
					c-0.133,0.58-0.362,1.197-0.685,1.854s-0.623,1.318-0.901,1.986s-0.501,1.336-0.668,2.004s-0.172,1.303-0.017,1.903h7.179
					c0.022,0,0.078,0.073,0.167,0.218c0.088,0.145,0.167,0.262,0.234,0.35c0.111,0.313-0.012,0.523-0.368,0.635
					c-0.356,0.111-0.834,0.184-1.436,0.217s-1.286,0.057-2.054,0.066c-0.768,0.012-1.502,0.067-2.204,0.168
					c-0.701,0.1-1.331,0.267-1.887,0.5c-0.557,0.234-0.935,0.585-1.135,1.053c-0.579,1.491-1.113,2.988-1.603,4.49
					c-0.49,1.503-0.957,3.021-1.402,4.559c-0.045,0.066-0.133,0.172-0.267,0.316c-0.133,0.146-0.278,0.268-0.434,0.367
					c-0.156,0.101-0.306,0.139-0.451,0.117C67.885,39.017,67.769,38.884,67.68,38.639z"/>
				<path fill="#000433" d="M96.92,37.871c-0.045-0.156-0.05-0.373-0.017-0.652c0.033-0.277,0.078-0.561,0.134-0.851
					c0.055-0.289,0.117-0.546,0.184-0.769c0.066-0.222,0.1-0.345,0.1-0.367l7.546-19.634c0.155-0.4,0.3-0.551,0.434-0.45
					c0.133,0.1,0.239,0.312,0.317,0.635c0.078,0.322,0.117,0.689,0.117,1.102s-0.045,0.74-0.134,0.984
					c-0.712,1.692-1.431,3.39-2.154,5.092c-0.724,1.703-1.414,3.418-2.07,5.143c-0.657,1.726-1.275,3.462-1.854,5.209
					c-0.579,1.748-1.068,3.523-1.469,5.326c-0.178,0.111-0.329,0.156-0.451,0.133c-0.123-0.021-0.234-0.083-0.334-0.184
					c-0.1-0.1-0.178-0.217-0.233-0.35C96.981,38.104,96.942,37.982,96.92,37.871z"/>
				<path fill="#000433" d="M105.197,22.777c0-0.021,0.028-0.133,0.083-0.334c0.056-0.199,0.128-0.417,0.217-0.65
					c0.088-0.234,0.172-0.473,0.25-0.719c0.078-0.244,0.139-0.434,0.184-0.566c0.245-0.668,0.456-1.074,0.634-1.219
					c0.178-0.145,0.317-0.123,0.417,0.066s0.161,0.506,0.184,0.951c0.022,0.445,0.011,0.941-0.033,1.486
					c-0.045,0.545-0.117,1.091-0.217,1.637c-0.1,0.545-0.234,1.013-0.401,1.402c-0.167,0.389-0.362,0.65-0.584,0.784
					c-0.223,0.134-0.468,0.067-0.735-0.2c-0.022-0.089-0.039-0.256-0.05-0.501c-0.012-0.245-0.017-0.512-0.017-0.802
					c0-0.289,0.005-0.557,0.017-0.801C105.158,23.067,105.174,22.89,105.197,22.777z"/>
				<path fill="#000433" d="M110.352,38.238c-0.467-0.268-0.801-0.689-1.002-1.27c-0.2-0.578-0.312-1.235-0.333-1.97
					c-0.022-0.735,0.021-1.503,0.133-2.304c0.111-0.802,0.245-1.58,0.401-2.338c0.155-0.756,0.312-1.436,0.467-2.037
					c0.155-0.601,0.267-1.068,0.334-1.402c0.111-0.066,0.228-0.066,0.351,0c0.122,0.067,0.245,0.162,0.367,0.284
					c0.122,0.122,0.262,0.284,0.417,0.484c0.067,0.779,0.072,1.542,0.017,2.287c-0.056,0.746-0.123,1.485-0.2,2.221
					c-0.078,0.734-0.145,1.48-0.2,2.237c-0.056,0.757-0.062,1.525-0.017,2.304c0.178,0.334,0.545,0.339,1.102,0.017
					c0.556-0.322,1.235-0.846,2.037-1.569c0.801-0.724,1.674-1.581,2.621-2.571c0.946-0.99,1.881-1.975,2.805-2.955
					c0.923-0.979,1.797-1.897,2.621-2.754c0.823-0.857,1.52-1.514,2.087-1.971c0.568-0.456,0.963-0.646,1.186-0.568
					c0.222,0.079,0.189,0.552-0.1,1.42c-0.534,0.467-1.169,1.168-1.903,2.104c-0.735,0.936-1.536,1.942-2.404,3.021
					c-0.868,1.08-1.77,2.154-2.705,3.223s-1.875,1.986-2.822,2.755c-0.946,0.768-1.864,1.302-2.754,1.603
					C111.965,38.789,111.13,38.705,110.352,38.238z"/>
				<path fill="#000433" d="M125.393,38.639c-0.668-0.223-1.175-0.563-1.52-1.019c-0.345-0.456-0.573-0.962-0.685-1.519
					s-0.128-1.141-0.05-1.754c0.078-0.611,0.206-1.196,0.384-1.753c0.668-0.712,1.419-1.53,2.254-2.454s1.72-1.831,2.655-2.721
					c0.935-0.891,1.908-1.721,2.921-2.488c1.013-0.768,2.042-1.353,3.089-1.753c0.355-0.155,0.639-0.15,0.852,0.017
					c0.211,0.167,0.361,0.429,0.451,0.785c0.088,0.355,0.127,0.768,0.117,1.234c-0.012,0.469-0.051,0.925-0.117,1.369
					c-0.066,0.445-0.156,0.847-0.268,1.203c-0.111,0.355-0.223,0.601-0.334,0.734c-0.268,0.312-0.785,0.679-1.553,1.102
					s-1.62,0.885-2.554,1.386c-0.935,0.501-1.87,1.019-2.805,1.553c-0.935,0.534-1.703,1.063-2.304,1.586
					c-0.601,0.523-0.958,1.041-1.068,1.553c-0.112,0.513,0.2,0.979,0.935,1.402c0.757,0.089,1.675,0.05,2.755-0.116
					c1.08-0.168,2.181-0.39,3.306-0.668c1.124-0.278,2.209-0.568,3.256-0.869c1.045-0.3,1.902-0.539,2.57-0.717l0.4,0.367
					c-0.488,0.646-1.291,1.234-2.402,1.77c-1.115,0.534-2.316,0.974-3.607,1.318c-1.292,0.346-2.549,0.568-3.773,0.668
					C127.073,38.955,126.105,38.884,125.393,38.639z M133.374,25.883c-0.022-0.021-0.189,0.072-0.501,0.284
					c-0.312,0.212-0.696,0.489-1.152,0.835c-0.457,0.346-0.947,0.724-1.469,1.135c-0.523,0.412-1.002,0.797-1.436,1.152
					c-0.434,0.356-0.796,0.662-1.085,0.918c-0.29,0.256-0.413,0.385-0.368,0.385c0.356,0.066,0.818,0.016,1.386-0.15
					c0.568-0.168,1.157-0.406,1.77-0.719c0.612-0.311,1.196-0.662,1.753-1.051c0.556-0.39,0.997-0.773,1.319-1.152
					s0.49-0.713,0.5-1.002C134.102,26.229,133.862,26.017,133.374,25.883z"/>
				<path fill="#000433" d="M156.537,38.639c-0.646-0.468-1.063-1.057-1.252-1.77c-0.189-0.713-0.218-1.486-0.084-2.32
					c0.134-0.836,0.373-1.697,0.718-2.588c0.346-0.891,0.724-1.748,1.136-2.572c0.411-0.822,0.813-1.58,1.202-2.27
					c0.389-0.689,0.695-1.258,0.918-1.703c0.067-0.134,0.229-0.456,0.484-0.969c0.256-0.512,0.528-1.068,0.818-1.67
					c0.289-0.601,0.562-1.162,0.817-1.686s0.418-0.852,0.484-0.985c0.067-0.11,0.161-0.328,0.284-0.651
					c0.122-0.322,0.261-0.673,0.417-1.051c0.155-0.379,0.328-0.74,0.518-1.086c0.189-0.345,0.39-0.596,0.602-0.751
					c0.211-0.155,0.422-0.179,0.634-0.067s0.418,0.445,0.618,1.002c-0.09,0.223-0.307,0.668-0.651,1.336
					c-0.346,0.668-0.751,1.469-1.219,2.404c-0.468,0.935-0.985,1.97-1.553,3.105c-0.567,1.135-1.118,2.281-1.652,3.439
					c-0.534,1.157-1.035,2.287-1.503,3.389s-0.852,2.104-1.152,3.005c-0.3,0.901-0.479,1.647-0.534,2.237s0.051,0.951,0.317,1.086
					c0.312,0.155,0.718,0.217,1.219,0.184c0.501-0.034,1.019-0.096,1.553-0.184c0.534-0.09,1.057-0.184,1.569-0.285
					c0.512-0.1,0.957-0.139,1.336-0.116c0.089,0.2,0.021,0.396-0.2,0.585c-0.224,0.189-0.534,0.355-0.936,0.5
					c-0.4,0.146-0.862,0.268-1.386,0.367c-0.523,0.101-1.023,0.173-1.502,0.217c-0.479,0.045-0.902,0.057-1.27,0.034
					S156.67,38.728,156.537,38.639z"/>
				<path fill="#000433" d="M168.218,38.639c-0.668-0.223-1.174-0.563-1.519-1.019c-0.346-0.456-0.574-0.962-0.685-1.519
					c-0.112-0.557-0.129-1.141-0.051-1.754c0.078-0.611,0.206-1.196,0.385-1.753c0.667-0.712,1.419-1.53,2.254-2.454
					c0.834-0.924,1.719-1.831,2.654-2.721c0.935-0.891,1.908-1.721,2.922-2.488c1.013-0.768,2.042-1.353,3.088-1.753
					c0.356-0.155,0.64-0.15,0.852,0.017s0.362,0.429,0.451,0.785c0.089,0.355,0.128,0.768,0.117,1.234
					c-0.012,0.469-0.051,0.925-0.117,1.369c-0.066,0.445-0.156,0.847-0.268,1.203c-0.111,0.355-0.223,0.601-0.334,0.734
					c-0.267,0.312-0.784,0.679-1.552,1.102c-0.769,0.423-1.62,0.885-2.555,1.386c-0.936,0.501-1.87,1.019-2.805,1.553
					c-0.936,0.534-1.703,1.063-2.305,1.586c-0.601,0.523-0.957,1.041-1.068,1.553c-0.111,0.513,0.2,0.979,0.936,1.402
					c0.756,0.089,1.675,0.05,2.755-0.116c1.079-0.168,2.181-0.39,3.306-0.668c1.123-0.278,2.209-0.568,3.255-0.869
					c1.046-0.3,1.903-0.539,2.571-0.717l0.4,0.367c-0.489,0.646-1.291,1.234-2.403,1.77c-1.114,0.534-2.315,0.974-3.606,1.318
					c-1.291,0.346-2.55,0.568-3.773,0.668C169.899,38.955,168.931,38.884,168.218,38.639z M176.199,25.883
					c-0.022-0.021-0.189,0.072-0.501,0.284s-0.695,0.489-1.151,0.835c-0.457,0.346-0.946,0.724-1.47,1.135
					c-0.523,0.412-1.001,0.797-1.436,1.152c-0.434,0.356-0.796,0.662-1.085,0.918c-0.29,0.256-0.412,0.385-0.367,0.385
					c0.355,0.066,0.817,0.016,1.386-0.15c0.567-0.168,1.157-0.406,1.77-0.719c0.612-0.311,1.196-0.662,1.753-1.051
					c0.556-0.39,0.996-0.773,1.319-1.152c0.322-0.379,0.489-0.713,0.5-1.002C176.928,26.229,176.688,26.017,176.199,25.883z"/>
				<path fill="#000433" d="M181.604,38.238c-0.534-0.445-0.83-1.103-0.885-1.971c-0.056-0.868,0.066-1.848,0.367-2.938
					c0.301-1.092,0.745-2.232,1.336-3.424c0.589-1.189,1.273-2.325,2.053-3.405c0.779-1.079,1.625-2.048,2.538-2.905
					c0.913-0.856,1.825-1.49,2.738-1.902c0.912-0.412,1.803-0.557,2.671-0.435s1.658,0.629,2.371,1.519
					c0.445,0.557,0.712,1.119,0.802,1.688c0.088,0.566,0.077,1.146-0.034,1.736s-0.289,1.19-0.534,1.803s-0.484,1.23-0.718,1.854
					s-0.423,1.258-0.567,1.902c-0.146,0.646-0.173,1.303-0.084,1.971c0.111,0.846,0.49,1.347,1.136,1.502
					c0.646,0.156,1.419,0.111,2.32-0.133c0.901-0.245,1.854-0.635,2.855-1.169c1.001-0.534,1.931-1.069,2.788-1.603
					c0.856-0.535,1.853-1.203,2.988-2.004c0.623-0.134,0.974-0.094,1.052,0.117s-0.045,0.523-0.367,0.935
					c-0.323,0.412-0.808,0.88-1.452,1.402c-0.646,0.523-1.381,1.03-2.204,1.52c-0.824,0.489-1.703,0.935-2.638,1.335
					c-0.936,0.401-1.849,0.674-2.738,0.818c-0.891,0.146-1.731,0.134-2.521-0.033s-1.441-0.563-1.953-1.186
					c-0.245-0.268-0.429-0.534-0.551-0.801c-0.123-0.268-0.317-0.501-0.584-0.701c-0.334,0.312-0.735,0.718-1.202,1.219
					c-0.468,0.5-0.975,1.002-1.52,1.502c-0.546,0.501-1.124,0.975-1.736,1.42s-1.241,0.779-1.887,1.001
					c-0.646,0.223-1.297,0.301-1.953,0.233C182.833,39.039,182.205,38.75,181.604,38.238z M181.971,37.103
					c0.2,0.713,0.646,1.041,1.336,0.985c0.689-0.056,1.491-0.395,2.404-1.019c0.912-0.623,1.858-1.475,2.838-2.555
					c0.979-1.079,1.858-2.281,2.638-3.606c0.779-1.324,1.374-2.721,1.786-4.19c0.412-1.469,0.518-2.915,0.317-4.341
					c-0.534-0.422-1.202-0.439-2.003-0.05c-0.802,0.39-1.653,1.024-2.555,1.903s-1.792,1.926-2.671,3.139
					c-0.88,1.213-1.653,2.438-2.321,3.673s-1.174,2.399-1.519,3.489C181.876,35.623,181.792,36.479,181.971,37.103z"/>
				<path fill="#000433" d="M203.905,38.639c-0.045-0.021-0.039-0.283,0.017-0.785c0.055-0.5,0.139-1.129,0.25-1.887
					c0.111-0.756,0.256-1.591,0.435-2.504c0.178-0.912,0.367-1.786,0.567-2.621s0.417-1.569,0.651-2.203
					c0.233-0.635,0.461-1.074,0.685-1.32c0.155-0.154,0.312-0.16,0.467-0.016s0.312,0.322,0.468,0.533
					c0.155,0.213,0.312,0.401,0.468,0.568c0.155,0.167,0.322,0.184,0.501,0.05c0.622-0.868,1.307-1.696,2.053-2.487
					c0.746-0.79,1.575-1.475,2.488-2.054c0.089-0.067,0.334-0.172,0.734-0.317c0.4-0.145,0.856-0.289,1.369-0.434
					c0.512-0.145,1.04-0.268,1.586-0.367c0.545-0.101,1.013-0.145,1.402-0.134s0.656,0.111,0.802,0.3
					c0.145,0.189,0.071,0.508-0.218,0.952c-1.335,0.022-2.582,0.412-3.739,1.169c-1.158,0.757-2.227,1.691-3.206,2.805
					s-1.869,2.32-2.671,3.623s-1.497,2.51-2.087,3.623s-1.08,2.037-1.469,2.771c-0.391,0.734-0.674,1.102-0.852,1.102
					c-0.022,0-0.123-0.051-0.301-0.15C204.126,38.756,203.993,38.684,203.905,38.639z"/>
				<path fill="#000433" d="M227.194,38.639c-0.066-0.734-0.006-1.463,0.184-2.188c0.188-0.723,0.445-1.436,0.768-2.137
					c0.323-0.701,0.668-1.402,1.035-2.104c0.368-0.701,0.685-1.391,0.952-2.07c0.267-0.679,0.456-1.347,0.567-2.004
					c0.111-0.656,0.067-1.307-0.134-1.953c-0.557-0.2-1.196-0.155-1.92,0.134c-0.724,0.29-1.485,0.729-2.287,1.319
					c-0.801,0.59-1.631,1.279-2.487,2.07c-0.857,0.79-1.692,1.592-2.505,2.404s-1.586,1.586-2.32,2.32s-1.397,1.341-1.986,1.819
					c-0.591,0.479-1.086,0.78-1.486,0.901c-0.4,0.123-0.668-0.017-0.802-0.417c-0.022-0.022,0.105-0.306,0.385-0.852
					c0.277-0.546,0.623-1.229,1.035-2.054c0.411-0.823,0.868-1.714,1.369-2.671c0.5-0.957,0.973-1.854,1.419-2.688
					c0.444-0.834,0.834-1.541,1.168-2.12s0.546-0.89,0.635-0.935c0.468,0.312,0.706,0.65,0.718,1.018
					c0.011,0.367-0.05,0.746-0.184,1.136s-0.283,0.784-0.45,1.186s-0.195,0.802-0.084,1.202c0.355-0.244,0.852-0.584,1.486-1.019
					c0.634-0.435,1.324-0.885,2.07-1.353c0.745-0.467,1.524-0.924,2.337-1.369s1.574-0.795,2.287-1.051
					c0.712-0.256,1.353-0.396,1.92-0.418c0.568-0.021,0.985,0.145,1.252,0.501c0.268,0.356,0.351,0.94,0.251,1.753
					c-0.101,0.813-0.451,1.92-1.052,3.322c-0.067,0.156-0.229,0.529-0.484,1.119s-0.534,1.225-0.835,1.902
					c-0.3,0.68-0.579,1.314-0.835,1.904s-0.417,0.963-0.483,1.118c-0.022,0.089-0.051,0.251-0.084,0.483
					c-0.033,0.234-0.072,0.49-0.117,0.769c-0.044,0.278-0.111,0.546-0.2,0.802s-0.2,0.45-0.334,0.584
					c-0.133,0.134-0.289,0.117-0.467-0.051C227.316,38.789,227.215,38.684,227.194,38.639z"/>
				<path fill="#000433" d="M236.038,38.639c-0.668-0.223-1.174-0.563-1.519-1.019c-0.346-0.456-0.574-0.962-0.685-1.519
					c-0.112-0.557-0.129-1.141-0.051-1.754c0.078-0.611,0.206-1.196,0.385-1.753c0.667-0.712,1.419-1.53,2.254-2.454
					c0.834-0.924,1.719-1.831,2.654-2.721c0.935-0.891,1.908-1.721,2.922-2.488c1.013-0.768,2.042-1.353,3.088-1.753
					c0.356-0.155,0.64-0.15,0.852,0.017s0.362,0.429,0.451,0.785c0.089,0.355,0.128,0.768,0.117,1.234
					c-0.012,0.469-0.051,0.925-0.117,1.369c-0.066,0.445-0.156,0.847-0.268,1.203c-0.111,0.355-0.223,0.601-0.334,0.734
					c-0.267,0.312-0.784,0.679-1.552,1.102c-0.769,0.423-1.62,0.885-2.555,1.386c-0.936,0.501-1.87,1.019-2.805,1.553
					c-0.936,0.534-1.703,1.063-2.305,1.586c-0.601,0.523-0.957,1.041-1.068,1.553c-0.111,0.513,0.2,0.979,0.936,1.402
					c0.756,0.089,1.675,0.05,2.755-0.116c1.079-0.168,2.181-0.39,3.306-0.668c1.123-0.278,2.209-0.568,3.255-0.869
					c1.046-0.3,1.903-0.539,2.571-0.717l0.4,0.367c-0.489,0.646-1.291,1.234-2.403,1.77c-1.114,0.534-2.315,0.974-3.606,1.318
					c-1.291,0.346-2.55,0.568-3.773,0.668C237.718,38.955,236.75,38.884,236.038,38.639z M244.018,25.883
					c-0.022-0.021-0.189,0.072-0.501,0.284s-0.695,0.489-1.151,0.835c-0.457,0.346-0.946,0.724-1.47,1.135
					c-0.523,0.412-1.001,0.797-1.436,1.152c-0.434,0.356-0.796,0.662-1.085,0.918c-0.29,0.256-0.412,0.385-0.367,0.385
					c0.355,0.066,0.817,0.016,1.386-0.15c0.567-0.168,1.157-0.406,1.77-0.719c0.612-0.311,1.196-0.662,1.753-1.051
					c0.556-0.39,0.996-0.773,1.319-1.152c0.322-0.379,0.489-0.713,0.5-1.002C244.748,26.229,244.507,26.017,244.018,25.883z"/>
				<path fill="#000433" d="M261.878,38.238c-0.847-0.579-1.459-1.297-1.837-2.154c-0.379-0.856-0.657-1.775-0.835-2.754h-0.367
					c-1.803,1.469-3.367,2.57-4.691,3.305s-2.443,1.186-3.355,1.353c-0.913,0.167-1.625,0.095-2.137-0.217
					c-0.513-0.312-0.841-0.763-0.985-1.353c-0.146-0.59-0.117-1.285,0.083-2.087s0.546-1.608,1.035-2.421s1.124-1.586,1.903-2.32
					s1.675-1.336,2.688-1.803c1.013-0.469,2.137-0.763,3.372-0.885c1.235-0.123,2.565,0.016,3.99,0.416l0.367-0.4l4.508-9.049
					c0.602,0.09,0.957,0.356,1.068,0.802s0.105,0.935-0.017,1.47c-0.122,0.533-0.3,1.051-0.534,1.553
					c-0.233,0.5-0.406,0.862-0.518,1.084c-0.066,0.135-0.195,0.391-0.384,0.769c-0.189,0.379-0.412,0.829-0.668,1.353
					s-0.529,1.074-0.818,1.652c-0.289,0.58-0.562,1.131-0.817,1.653c-0.257,0.522-0.484,0.979-0.685,1.368
					c-0.2,0.391-0.323,0.641-0.367,0.752c-0.401,0.824-0.585,1.697-0.551,2.621c0.033,0.924,0.083,1.809,0.149,2.654
					c0.089,0.4,0.268,0.73,0.534,0.985c0.268,0.257,0.552,0.489,0.852,0.701c0.301,0.212,0.602,0.417,0.902,0.618
					c0.3,0.2,0.551,0.445,0.751,0.734c-0.089,0.289-0.268,0.439-0.534,0.451c-0.268,0.01-0.546-0.039-0.835-0.15
					c-0.29-0.111-0.557-0.245-0.802-0.4C262.1,38.383,261.945,38.283,261.878,38.238z M249.423,36.735
					c0.089,0.379,0.429,0.489,1.019,0.334s1.285-0.484,2.087-0.985c0.801-0.5,1.652-1.107,2.555-1.82
					c0.901-0.711,1.714-1.424,2.438-2.137c0.723-0.712,1.29-1.369,1.702-1.97s0.54-1.046,0.385-1.335
					c-0.69-0.379-1.459-0.568-2.305-0.568s-1.686,0.15-2.521,0.451s-1.637,0.723-2.404,1.269s-1.414,1.175-1.937,1.887
					c-0.523,0.712-0.891,1.485-1.103,2.32C249.128,35.016,249.156,35.867,249.423,36.735z"/>
			</g>
		</g>
	</g>
</g>
<g id="home">
</g>
<g id="new_with_add">
</g>
<g id="new_with_more">
</g>
<g id="new_with_less">
</g>
<g id="new_sub">
</g>
<g id="new_description">
</g>
<g id="new_desc_w_milestone">
</g>
</svg>
