<?xml version="1.0" encoding="utf-8"?>
<!-- Generator: Adobe Illustrator 16.0.3, SVG Export Plug-In . SVG Version: 6.00 Build 0)  -->
<!DOCTYPE svg PUBLIC "-//W3C//DTD SVG 1.1//EN" "http://www.w3.org/Graphics/SVG/1.1/DTD/svg11.dtd">
<svg version="1.1" xmlns="http://www.w3.org/2000/svg" xmlns:xlink="http://www.w3.org/1999/xlink" x="0px" y="0px" width="360px"
	 height="48px" viewBox="0 0 360 48" enable-background="new 0 0 360 48" xml:space="preserve">
<g id="exports">
	<g id="logo_2_">
		<g id="lightbulb_7_">
			<g>
				<path fill="#000433" d="M337.391,31.704c0,0-0.257-0.032-0.735-0.131c-0.479-0.101-1.185-0.264-2.031-0.633
					c-0.845-0.364-1.84-0.906-2.861-1.714c-1.008-0.814-2.064-1.889-2.872-3.315c-0.81-1.408-1.405-3.184-1.341-5.127
					c0.028-0.954,0.229-1.985,0.557-2.892c0.12-0.433,0.348-0.93,0.541-1.408c0.24-0.453,0.45-0.924,0.748-1.357
					c1.088-1.773,2.798-3.369,4.938-4.168c2.119-0.822,4.611-0.754,6.684-0.031c2.224,0.753,4.121,2.268,5.227,4.304
					c1.112,2.036,1.206,4.42,0.718,6.441c-0.521,2.035-1.438,3.801-2.625,5.273c-1.188,1.457-2.662,2.56-4.194,3.173
					c-1.536,0.613-3.088,0.708-4.378,0.512c-1.302-0.182-2.355-0.62-3.177-1.025c-0.823-0.414-1.405-0.839-1.802-1.122
					c-0.387-0.296-0.593-0.454-0.593-0.454s0.224,0.131,0.644,0.376c0.423,0.234,1.055,0.566,1.891,0.885
					c0.832,0.319,1.88,0.642,3.1,0.695c1.214,0.076,2.589-0.163,3.899-0.809c1.316-0.633,2.556-1.694,3.528-3.065
					c0.981-1.346,1.77-3.027,2.087-4.787c0.323-1.752,0.169-3.635-0.762-5.174c-0.862-1.545-2.438-2.77-4.143-3.32
					c-1.835-0.613-3.721-0.687-5.437-0.057c-1.687,0.633-3.161,1.806-4.146,3.309c-0.27,0.355-0.467,0.766-0.689,1.144
					c-0.184,0.397-0.39,0.744-0.552,1.204c-0.363,0.832-0.54,1.613-0.618,2.435c-0.127,1.623,0.229,3.209,0.874,4.533
					c0.645,1.326,1.488,2.438,2.363,3.297c0.88,0.857,1.777,1.476,2.556,1.911c0.782,0.432,1.437,0.714,1.894,0.869
					C337.139,31.636,337.391,31.704,337.391,31.704z"/>
			</g>
			<g>
				<path fill="#000433" d="M327.429,11.086c0,0-0.519-0.091-1.099-0.382c-0.311-0.088-0.568-0.244-0.891-0.369
					c-0.15-0.072-0.306-0.147-0.463-0.223c-0.169-0.071-0.302-0.164-0.484-0.249c-0.667-0.353-1.389-0.909-1.778-1.459
					c-0.408-0.543-0.56-1.04-0.56-1.04s0.534-0.058,1.154,0.058c0.653,0.083,1.373,0.283,2.146,0.688
					c0.182,0.098,0.385,0.236,0.563,0.367c0.185,0.122,0.347,0.296,0.498,0.453c0.313,0.303,0.517,0.701,0.667,1.012
					c0.125,0.309,0.175,0.595,0.211,0.803C327.425,10.954,327.429,11.086,327.429,11.086z"/>
			</g>
			<g>
				<path fill="#000433" d="M331.668,5.897c0,0-0.325-0.293-0.55-0.725c-0.116-0.241-0.256-0.402-0.33-0.604
					c-0.056-0.065-0.095-0.105-0.12-0.154c-0.053-0.029-0.041-0.042-0.151-0.191c-0.069-0.107-0.159-0.273-0.224-0.44
					c-0.08-0.162-0.113-0.326-0.134-0.482c-0.052-0.316-0.052-0.612,0.025-0.864c0.103-0.503,0.353-0.854,0.353-0.854
					s0.406,0.195,0.744,0.513c0.176,0.165,0.356,0.333,0.509,0.51c0.072,0.094,0.146,0.185,0.212,0.262
					c0.069,0.079,0.112,0.165,0.206,0.292c0.056,0.082,0.188,0.327,0.264,0.548c0.056,0.217,0.075,0.449,0.071,0.644
					c-0.024,0.169-0.063,0.331-0.107,0.479c-0.039,0.156-0.107,0.272-0.175,0.373C332.011,5.621,331.668,5.897,331.668,5.897z"/>
			</g>
			<g>
				<path fill="#000433" d="M347.469,11.254c0,0,0.054-0.435,0.28-0.865c0.05-0.111,0.053-0.223,0.088-0.317
					c0.031-0.091,0.064-0.187,0.098-0.286c0.042-0.113,0.067-0.175,0.151-0.321c0.069-0.131,0.144-0.246,0.295-0.414
					c0.136-0.152,0.284-0.291,0.466-0.385c0.169-0.105,0.351-0.204,0.51-0.229c0.162-0.04,0.323-0.064,0.475-0.079
					c0.152-0.022,0.291,0.007,0.42,0.029c0.516,0.079,0.875,0.314,0.875,0.314s-0.181,0.415-0.477,0.763
					c-0.16,0.18-0.284,0.38-0.442,0.529c-0.094,0.071-0.122,0.156-0.182,0.213c-0.058,0.056-0.113,0.113-0.16,0.183
					c-0.05,0.035-0.14,0.152-0.237,0.247c-0.077,0.083-0.239,0.225-0.366,0.318c-0.265,0.201-0.629,0.351-0.881,0.387
					C347.892,11.377,347.469,11.254,347.469,11.254z"/>
			</g>
			<g>
				<path fill="#000433" d="M341.765,6.761c0,0-0.286-0.394-0.452-0.948c-0.094-0.282-0.172-0.593-0.184-0.94
					c0.002-0.179,0.014-0.364,0.039-0.551c0.018-0.184,0.065-0.385,0.093-0.554c0.053-0.303,0.143-0.598,0.269-0.878
					c0.084-0.302,0.195-0.585,0.337-0.833c0.253-0.494,0.601-0.853,0.601-0.853s0.326,0.343,0.547,0.901
					c0.125,0.278,0.221,0.608,0.28,0.966c0.013,0.367-0.019,0.764-0.086,1.152c-0.074,0.331-0.186,0.617-0.329,0.905
					c-0.132,0.299-0.266,0.601-0.435,0.84C342.142,6.459,341.765,6.761,341.765,6.761z"/>
			</g>
			<g>
				<path fill="#000433" d="M352.057,17.856c0,0,0.206-0.473,0.63-0.943c0.449-0.491,1.215-0.957,1.954-1.192
					c0.385-0.122,0.739-0.203,1.088-0.253c0.333-0.054,0.657-0.076,0.944-0.095c0.297-0.01,0.549-0.043,0.753-0.047
					c0.203-0.006,0.338-0.001,0.338-0.001s-0.022,0.121-0.097,0.317c-0.078,0.189-0.196,0.487-0.432,0.731
					c-0.112,0.129-0.239,0.285-0.389,0.404c-0.148,0.117-0.312,0.236-0.487,0.347c-0.341,0.204-0.729,0.374-1.091,0.494
					c-0.756,0.236-1.453,0.337-2.081,0.321C352.556,17.985,352.057,17.856,352.057,17.856z"/>
			</g>
			<g>
				<path fill="#000433" d="M329.475,30.715c0,0,0.5-0.046,1.365,0.08c0.86,0.131,2.09,0.345,3.523,0.772
					c0.718,0.215,1.489,0.458,2.299,0.801c0.203,0.091,0.407,0.182,0.619,0.306c0.105,0.063,0.216,0.135,0.333,0.235
					c0.066,0.076,0.13,0.113,0.2,0.282c0.031,0.049,0.051,0.201,0.022,0.321c-0.026,0.113-0.097,0.2-0.172,0.277l-0.075,0.052
					l-0.009,0.005l-0.019,0.011l-0.036,0.02c-0.014,0.012-0.097,0.04-0.145,0.055c-0.132,0.04-0.204,0.043-0.267,0.05
					c-0.144,0.019-0.262,0.013-0.389,0.014c-0.246-0.006-0.484-0.023-0.722-0.046c-1.882-0.184-3.821-0.611-5.745-0.846
					c-0.236-0.027-0.476-0.056-0.695-0.063c-0.109-0.007-0.222-0.006-0.297,0.003c-0.05,0.002-0.065,0.01-0.055,0.004
					c-0.029,0.008,0.083-0.031,0.105-0.081c0.033-0.021,0.134-0.223,0.092-0.309c0.003-0.043-0.018-0.095-0.042-0.121l0.017,0.014
					l0.006,0.01c-0.068-0.061,0.002-0.001-0.004-0.007l0.072,0.057c0.097,0.075,0.199,0.161,0.273,0.184
					c0.139,0.08,0.351,0.168,0.561,0.249c0.861,0.3,1.795,0.509,2.695,0.708c0.906,0.198,1.787,0.39,2.631,0.711
					c0.209,0.072,0.421,0.184,0.626,0.295l0.306,0.234c0.093,0.131,0.196,0.234,0.244,0.406c0.008,0.009,0.041,0.181,0.009,0.307
					c-0.035,0.127-0.104,0.221-0.186,0.286c-0.15,0.111-0.289,0.148-0.401,0.168c-0.233,0.042-0.435,0.039-0.632,0.034
					c-0.775-0.035-1.441-0.178-2.037-0.294c-0.591-0.119-1.106-0.224-1.53-0.31c-0.425-0.079-0.758-0.146-0.987-0.171
					c-0.229-0.028-0.354-0.022-0.354-0.022s0.498-0.075,1.366,0c0.432,0.037,0.956,0.083,1.558,0.135
					c0.597,0.044,1.279,0.106,1.987,0.1c0.173-0.007,0.353-0.021,0.497-0.06c0.076-0.015,0.124-0.051,0.131-0.056
					c-0.004,0.001-0.02,0.014-0.027,0.043c-0.021,0.028,0.017,0.098-0.014,0.014c-0.019-0.114-0.439-0.325-0.8-0.422
					c-0.765-0.233-1.653-0.359-2.562-0.536c-0.912-0.177-1.868-0.323-2.848-0.661c-0.244-0.094-0.488-0.18-0.774-0.348
					c-0.152-0.076-0.237-0.15-0.336-0.225l-0.074-0.056l-0.076-0.063l-0.055-0.061l-0.104-0.127
					c-0.05-0.082-0.092-0.191-0.112-0.291c-0.038-0.412,0.303-0.624,0.413-0.65c0.128-0.048,0.232-0.064,0.306-0.07
					c0.17-0.02,0.307-0.018,0.443-0.013c0.273,0.007,0.526,0.032,0.781,0.062c1.999,0.267,3.926,0.708,5.725,0.965
					c0.224,0.03,0.443,0.054,0.652,0.065c0.1,0.004,0.21,0.009,0.29,0.004c0.051,0,0.09-0.008,0.066,0.003
					c0.005-0.001-0.018,0.028,0.017,0.01l0.038-0.019l0.019-0.009l0.01-0.004c-0.027,0.019,0.074-0.049-0.058,0.041
					c-0.047,0.03-0.065,0.079-0.084,0.139c-0.028,0.065,0.008,0.159,0.005,0.16c0.034,0.062,0.011,0.023,0.007,0.015
					c-0.047-0.046-0.115-0.102-0.193-0.155c-0.158-0.108-0.341-0.206-0.52-0.302c-0.732-0.372-1.478-0.667-2.165-0.925
					c-1.381-0.506-2.549-0.906-3.385-1.114C329.97,30.758,329.475,30.715,329.475,30.715z"/>
			</g>
			<g>
				<path fill="#000433" d="M334.358,29.278c-0.229-1.726-0.293-3.452-0.312-5.173c-0.019-0.857-0.004-1.715,0.061-2.573
					l0.216-2.583l0.011-0.127l0.07-0.04c0.318-0.181,0.625-0.176,0.912-0.181c0.29,0.011,0.573,0.028,0.853,0.069
					c0.561,0.072,1.119,0.153,1.673,0.266c0.558,0.104,1.107,0.241,1.646,0.423c0.272,0.085,0.539,0.187,0.806,0.302
					c0.135,0.06,0.268,0.117,0.407,0.19c0.068,0.034,0.14,0.075,0.217,0.124c0.043,0.029,0.073,0.043,0.129,0.092l0.078,0.068
					c0.045,0.05,0.085,0.105,0.117,0.163l0.069,0.122l-0.019,0.137c-0.037,0.265-0.104,0.378-0.156,0.502
					c-0.056,0.122-0.114,0.229-0.172,0.336c-0.118,0.211-0.235,0.414-0.363,0.608c-0.254,0.389-0.516,0.764-0.781,1.137
					c-0.549,0.731-1.103,1.451-1.694,2.144c-0.585,0.695-1.164,1.395-1.786,2.059c-0.608,0.675-1.235,1.333-1.892,1.968
					l-0.075,0.072L334.358,29.278z M334.483,29.073c0.446-0.714,0.904-1.417,1.376-2.108c0.497-0.759,1.029-1.489,1.542-2.233
					l1.547-2.215c0.263-0.364,0.521-0.729,0.765-1.097l0.356-0.544c0.105-0.15,0.225-0.426,0.225-0.395l0.05,0.259
					c0.012,0.03,0.032,0.059,0.056,0.08c0.006,0.006-0.001,0,0-0.001c0.006,0.001-0.024-0.021-0.037-0.031
					c-0.038-0.028-0.085-0.062-0.138-0.093c-0.102-0.064-0.218-0.127-0.333-0.188l-0.72-0.356c-0.49-0.228-0.989-0.453-1.493-0.668
					c-0.507-0.203-1.024-0.395-1.559-0.497c-0.268-0.045-0.537-0.085-0.802-0.073c-0.26,0-0.532,0.062-0.684,0.188l0.081-0.167
					l0.179,2.587c0.053,0.863,0.055,1.729,0.023,2.595C334.862,25.771,334.738,27.423,334.483,29.073z"/>
			</g>
		</g>
		<g id="logo_1_">
			<g>
				<path fill="#000433" d="M10.33,45.805c-0.343-0.5-0.6-1.331-0.771-2.492c-0.172-1.16-0.277-2.505-0.316-4.035
					c-0.04-1.529-0.02-3.191,0.059-4.985c0.08-1.793,0.198-3.573,0.356-5.341c0.158-1.767,0.362-3.468,0.613-5.104
					c0.25-1.635,0.521-3.065,0.811-4.292c0.29-1.227,0.593-2.183,0.91-2.868s0.646-0.976,0.989-0.87
					c0.052,0.053,0.138,0.132,0.257,0.237s0.191,0.185,0.218,0.237c0.026,0.29,0,0.837-0.079,1.642s-0.192,1.768-0.336,2.888
					c-0.145,1.122-0.303,2.354-0.475,3.699c-0.172,1.345-0.35,2.71-0.534,4.095c-0.185,1.385-0.356,2.729-0.514,4.035
					s-0.284,2.479-0.376,3.521c-0.093,1.042-0.139,1.905-0.139,2.591c0,0.687,0.066,1.095,0.198,1.227l0.435,0.475
					c0.396-0.184,0.804-0.665,1.227-1.443c0.421-0.778,0.851-1.728,1.286-2.849s0.883-2.354,1.345-3.699
					c0.461-1.345,0.923-2.671,1.384-3.976c0.461-1.306,0.917-2.539,1.365-3.699c0.448-1.16,0.896-2.11,1.345-2.849
					c0.448-0.738,0.883-1.207,1.305-1.404c0.422-0.198,0.824,0,1.207,0.593c0.382,0.594,0.751,1.643,1.107,3.146
					s0.679,3.601,0.969,6.29c0,0.133,0.065,0.548,0.198,1.247c0.132,0.698,0.297,1.503,0.495,2.413
					c0.198,0.909,0.428,1.833,0.692,2.77c0.263,0.937,0.541,1.714,0.831,2.334c0.29,0.62,0.593,0.989,0.91,1.107
					c0.316,0.119,0.62-0.191,0.91-0.93c0.079-0.211,0.257-0.659,0.534-1.345c0.277-0.686,0.6-1.49,0.969-2.414
					c0.369-0.923,0.758-1.898,1.167-2.927c0.409-1.029,0.797-2.005,1.167-2.928c0.369-0.923,0.692-1.728,0.969-2.414
					c0.277-0.686,0.468-1.146,0.574-1.384c0.105-0.264,0.277-0.738,0.514-1.425c0.237-0.686,0.534-1.457,0.89-2.314
					c0.356-0.856,0.758-1.747,1.207-2.67c0.448-0.923,0.923-1.747,1.424-2.473c0.501-0.726,1.022-1.286,1.563-1.682
					c0.54-0.396,1.088-0.501,1.642-0.316c0.053,0,0.132,0.06,0.237,0.178c0.105,0.119,0.158,0.205,0.158,0.257
					c-1.636,2.111-2.987,4.221-4.055,6.33c-1.068,2.11-2.004,4.267-2.809,6.469c-0.805,2.202-1.57,4.444-2.295,6.726
					c-0.726,2.281-1.563,4.623-2.512,7.022c-0.396,1.028-0.811,1.622-1.246,1.78s-0.864,0.007-1.286-0.455
					c-0.422-0.461-0.838-1.153-1.246-2.077c-0.409-0.923-0.798-1.958-1.167-3.105c-0.37-1.147-0.712-2.327-1.028-3.541
					c-0.316-1.213-0.593-2.34-0.831-3.383c-0.237-1.041-0.429-1.925-0.573-2.65c-0.146-0.725-0.231-1.153-0.257-1.286
					c-0.053-0.21-0.099-0.461-0.139-0.751s-0.086-0.58-0.138-0.871c-0.053-0.316-0.106-0.672-0.158-1.067h-0.436
					c-0.026,0-0.185,0.271-0.475,0.811c-0.291,0.541-0.627,1.188-1.009,1.938c-0.383,0.752-0.771,1.537-1.167,2.354
					s-0.712,1.49-0.95,2.018c-0.132,0.264-0.336,0.877-0.613,1.84c-0.277,0.963-0.613,2.063-1.009,3.303
					c-0.396,1.24-0.825,2.506-1.286,3.798c-0.462,1.293-0.937,2.407-1.424,3.344c-0.488,0.937-0.976,1.589-1.464,1.958
					C11.167,46.53,10.726,46.411,10.33,45.805z"/>
				<path fill="#000433" d="M33.234,45.33c-0.026-0.053-0.04-0.125-0.04-0.218c0-0.092,0.013-0.164,0.04-0.217
					c0.105-0.211,0.283-0.574,0.534-1.088c0.25-0.515,0.514-1.055,0.792-1.622c0.277-0.567,0.547-1.102,0.811-1.603
					c0.263-0.501,0.448-0.856,0.554-1.068c0.052-0.079,0.191-0.303,0.416-0.673c0.224-0.369,0.5-0.823,0.831-1.364
					c0.33-0.541,0.686-1.141,1.068-1.801c0.382-0.658,0.765-1.305,1.147-1.938c0.382-0.633,0.738-1.227,1.068-1.78
					c0.33-0.554,0.6-1.015,0.811-1.385c0.527-0.87,1.141-1.898,1.84-3.086c0.698-1.187,1.417-2.387,2.156-3.6
					c0.738-1.213,1.47-2.387,2.196-3.521c0.725-1.134,1.391-2.07,1.998-2.809c0.606-0.738,1.121-1.227,1.543-1.464
					c0.421-0.237,0.712-0.079,0.87,0.475v1.267c-0.185,0.29-0.435,0.666-0.751,1.127c-0.316,0.462-0.64,0.949-0.969,1.464
					c-0.33,0.515-0.653,1.009-0.969,1.483c-0.317,0.475-0.554,0.845-0.712,1.108c-0.237,0.369-0.62,0.963-1.147,1.78
					c-0.528,0.817-1.122,1.74-1.78,2.769c-0.66,1.029-1.333,2.104-2.018,3.225c-0.686,1.121-1.305,2.17-1.859,3.146
					c-0.554,0.976-0.996,1.813-1.325,2.512c-0.33,0.699-0.455,1.142-0.376,1.326c0.633-0.185,1.312-0.521,2.038-1.01
					c0.725-0.487,1.457-1.009,2.196-1.563c0.738-0.554,1.477-1.088,2.215-1.602c0.738-0.515,1.424-0.917,2.057-1.207
					c0.633,0.079,1.187,0.316,1.662,0.712s0.817,0.897,1.029,1.504c-0.027,0.237-0.046,0.679-0.06,1.325
					c-0.014,0.646-0.02,1.325-0.02,2.037s0.006,1.385,0.02,2.018c0.013,0.633,0.033,1.068,0.06,1.306
					c0.026,0.291,0.158,0.652,0.396,1.088s0.495,0.87,0.771,1.306s0.527,0.811,0.751,1.128c0.224,0.316,0.323,0.488,0.297,0.514
					c-0.528,0.185-1.028,0.191-1.503,0.02c-0.475-0.171-0.89-0.447-1.246-0.83c-0.356-0.382-0.646-0.817-0.871-1.306
					s-0.363-0.97-0.415-1.444c-0.027-0.237-0.066-0.679-0.119-1.325c-0.053-0.646-0.099-1.325-0.139-2.037
					c-0.04-0.713-0.079-1.385-0.119-2.018c-0.04-0.634-0.06-1.068-0.06-1.306l-0.91-0.475c-0.158-0.079-0.429-0.014-0.811,0.197
					c-0.383,0.212-0.825,0.501-1.325,0.87c-0.501,0.37-1.029,0.792-1.583,1.267c-0.554,0.475-1.075,0.923-1.563,1.345
					c-0.488,0.422-0.904,0.791-1.246,1.107c-0.343,0.317-0.554,0.515-0.633,0.594c-0.211,0.212-0.594,0.588-1.147,1.128
					c-0.554,0.541-1.141,1.121-1.76,1.74c-0.62,0.62-1.201,1.207-1.741,1.761s-0.917,0.949-1.127,1.187
					c-0.37,0.079-0.719,0.113-1.048,0.1C33.675,45.891,33.418,45.7,33.234,45.33z"/>
				<path fill="#000433" d="M56.728,45.33c-0.633-0.527-0.983-1.306-1.048-2.334c-0.066-1.028,0.079-2.188,0.435-3.481
					c0.356-1.292,0.884-2.644,1.583-4.055s1.51-2.756,2.433-4.036c0.923-1.278,1.925-2.426,3.007-3.441
					c1.081-1.016,2.163-1.767,3.244-2.255c1.081-0.488,2.136-0.659,3.165-0.515c1.028,0.146,1.964,0.745,2.809,1.8
					c0.527,0.66,0.844,1.325,0.949,1.998c0.105,0.673,0.092,1.358-0.04,2.058c-0.132,0.699-0.343,1.411-0.633,2.136
					c-0.291,0.727-0.574,1.458-0.851,2.196s-0.501,1.49-0.673,2.255c-0.172,0.766-0.205,1.543-0.099,2.334
					c0.131,1.003,0.58,1.597,1.345,1.78c0.765,0.185,1.681,0.133,2.75-0.158c1.068-0.29,2.195-0.752,3.382-1.385
					s2.288-1.266,3.304-1.898c1.015-0.634,2.195-1.425,3.541-2.374c0.738-0.158,1.154-0.112,1.246,0.139s-0.053,0.62-0.435,1.107
					c-0.382,0.488-0.956,1.042-1.721,1.662c-0.766,0.619-1.636,1.22-2.611,1.8c-0.976,0.58-2.018,1.107-3.125,1.582
					c-1.107,0.475-2.189,0.799-3.244,0.97c-1.055,0.172-2.051,0.158-2.987-0.04c-0.937-0.197-1.708-0.665-2.314-1.404
					c-0.291-0.316-0.508-0.633-0.653-0.949s-0.375-0.594-0.692-0.831c-0.396,0.37-0.87,0.851-1.424,1.444
					c-0.554,0.594-1.154,1.187-1.8,1.78c-0.646,0.594-1.332,1.154-2.057,1.682c-0.726,0.527-1.471,0.923-2.235,1.187
					c-0.765,0.264-1.537,0.356-2.314,0.277C58.185,46.28,57.44,45.938,56.728,45.33z M57.164,43.985
					c0.237,0.845,0.765,1.233,1.583,1.167c0.817-0.065,1.767-0.468,2.848-1.207c1.081-0.737,2.202-1.747,3.363-3.026
					c1.16-1.278,2.202-2.703,3.125-4.272c0.923-1.569,1.628-3.225,2.117-4.965c0.488-1.741,0.613-3.455,0.375-5.144
					c-0.633-0.501-1.424-0.521-2.374-0.06c-0.949,0.462-1.958,1.214-3.026,2.256c-1.068,1.042-2.124,2.281-3.165,3.719
					c-1.042,1.438-1.958,2.888-2.75,4.352c-0.792,1.464-1.392,2.842-1.8,4.134C57.051,42.231,56.952,43.247,57.164,43.985z"/>
				<path fill="#000433" d="M85.603,45.805c-0.026-0.052-0.04-0.197-0.04-0.435s0.013-0.396,0.04-0.475
					c0.079-0.29,0.224-0.798,0.435-1.523c0.211-0.726,0.436-1.49,0.673-2.295c0.237-0.804,0.461-1.563,0.672-2.274
					c0.211-0.712,0.356-1.213,0.435-1.504c0.105-0.369,0.224-0.797,0.356-1.285c0.131-0.488,0.158-0.956,0.079-1.404
					c-0.396-0.053-0.884-0.007-1.464,0.138c-0.581,0.146-1.154,0.265-1.721,0.356c-0.567,0.093-1.095,0.093-1.583,0
					c-0.488-0.092-0.837-0.401-1.048-0.93c0.316-0.659,0.792-1.088,1.424-1.286c0.633-0.197,1.318-0.336,2.057-0.415
					c0.738-0.079,1.444-0.198,2.117-0.356s1.207-0.514,1.602-1.067c0.238-0.686,0.521-1.523,0.851-2.513
					c0.329-0.989,0.679-2.023,1.048-3.105c0.369-1.081,0.771-2.149,1.207-3.205c0.435-1.054,0.89-1.99,1.365-2.809
					c0.29-0.185,0.527-0.197,0.712-0.039c0.184,0.158,0.322,0.389,0.415,0.692c0.092,0.303,0.151,0.612,0.178,0.93
					c0.026,0.316,0.026,0.527,0,0.633c-0.158,0.686-0.429,1.418-0.811,2.195c-0.383,0.778-0.739,1.563-1.068,2.354
					c-0.33,0.791-0.593,1.582-0.791,2.373c-0.198,0.792-0.205,1.543-0.02,2.255h8.506c0.026,0,0.092,0.086,0.198,0.258
					s0.198,0.311,0.277,0.415c0.131,0.37-0.014,0.62-0.436,0.752s-0.989,0.218-1.701,0.257c-0.712,0.04-1.523,0.066-2.433,0.079
					c-0.91,0.014-1.78,0.079-2.611,0.198c-0.831,0.118-1.576,0.316-2.235,0.593c-0.66,0.277-1.108,0.692-1.345,1.247
					c-0.686,1.767-1.319,3.54-1.899,5.32c-0.581,1.78-1.134,3.581-1.662,5.4c-0.053,0.079-0.158,0.205-0.316,0.376
					c-0.158,0.172-0.33,0.316-0.514,0.436c-0.185,0.118-0.363,0.164-0.534,0.139C85.847,46.253,85.708,46.096,85.603,45.805z"/>
				<path fill="#000433" d="M120.248,44.896c-0.053-0.185-0.059-0.441-0.02-0.771s0.092-0.666,0.158-1.009
					c0.065-0.343,0.138-0.646,0.217-0.91c0.08-0.264,0.119-0.409,0.119-0.436l8.941-23.263c0.184-0.475,0.356-0.652,0.514-0.534
					c0.158,0.119,0.283,0.37,0.376,0.752c0.092,0.383,0.138,0.818,0.138,1.306c0,0.488-0.053,0.877-0.158,1.167
					c-0.844,2.005-1.695,4.016-2.552,6.033c-0.857,2.018-1.675,4.049-2.453,6.093c-0.778,2.044-1.51,4.102-2.196,6.172
					c-0.686,2.07-1.266,4.174-1.741,6.31c-0.211,0.133-0.39,0.186-0.534,0.158c-0.145-0.025-0.277-0.099-0.396-0.217
					c-0.119-0.119-0.211-0.258-0.277-0.416C120.32,45.172,120.274,45.027,120.248,44.896z"/>
				<path fill="#000433" d="M130.054,27.013c0-0.025,0.033-0.158,0.099-0.396c0.065-0.237,0.151-0.494,0.257-0.771
					c0.105-0.276,0.204-0.56,0.297-0.851c0.092-0.29,0.165-0.514,0.218-0.672c0.29-0.792,0.54-1.272,0.751-1.444
					c0.211-0.171,0.376-0.145,0.495,0.079c0.119,0.225,0.191,0.601,0.217,1.127c0.026,0.528,0.013,1.115-0.04,1.761
					c-0.053,0.646-0.138,1.293-0.257,1.938c-0.119,0.646-0.277,1.201-0.475,1.662c-0.198,0.462-0.429,0.771-0.692,0.93
					c-0.264,0.158-0.554,0.079-0.871-0.237c-0.026-0.105-0.046-0.303-0.059-0.594c-0.014-0.29-0.02-0.606-0.02-0.949
					s0.006-0.659,0.02-0.949C130.007,27.356,130.027,27.146,130.054,27.013z"/>
				<path fill="#000433" d="M136.161,45.33c-0.554-0.316-0.949-0.817-1.187-1.503c-0.238-0.686-0.37-1.464-0.396-2.334
					c-0.026-0.871,0.026-1.78,0.158-2.73c0.132-0.949,0.29-1.872,0.475-2.77c0.184-0.896,0.369-1.701,0.554-2.413
					c0.184-0.712,0.316-1.266,0.396-1.661c0.132-0.079,0.271-0.079,0.416,0c0.145,0.079,0.29,0.191,0.435,0.336
					c0.145,0.146,0.31,0.336,0.495,0.574c0.079,0.923,0.085,1.826,0.02,2.71c-0.066,0.884-0.146,1.76-0.238,2.631
					c-0.092,0.87-0.171,1.754-0.237,2.65s-0.073,1.807-0.02,2.729c0.211,0.396,0.646,0.402,1.306,0.02
					c0.659-0.382,1.463-1.002,2.413-1.859c0.95-0.856,1.984-1.872,3.105-3.046c1.121-1.173,2.229-2.34,3.323-3.501
					c1.095-1.16,2.131-2.248,3.106-3.264s1.8-1.794,2.473-2.335c0.673-0.54,1.141-0.765,1.404-0.672s0.224,0.652-0.119,1.681
					c-0.633,0.555-1.384,1.385-2.255,2.493c-0.87,1.107-1.82,2.301-2.848,3.58c-1.029,1.279-2.098,2.552-3.205,3.817
					c-1.108,1.267-2.222,2.354-3.343,3.265c-1.122,0.909-2.209,1.542-3.264,1.898C138.073,45.983,137.084,45.884,136.161,45.33z"/>
				<path fill="#000433" d="M153.981,45.805c-0.791-0.263-1.391-0.665-1.799-1.206c-0.41-0.54-0.68-1.141-0.812-1.801
					c-0.132-0.658-0.151-1.351-0.06-2.076c0.093-0.726,0.244-1.418,0.455-2.077c0.791-0.844,1.682-1.813,2.67-2.908
					c0.99-1.094,2.039-2.169,3.146-3.225c1.107-1.054,2.262-2.037,3.461-2.947c1.199-0.909,2.42-1.602,3.66-2.077
					c0.422-0.184,0.758-0.178,1.008,0.021c0.252,0.197,0.43,0.508,0.535,0.93s0.15,0.91,0.139,1.464
					c-0.014,0.554-0.061,1.095-0.139,1.622c-0.08,0.527-0.186,1.002-0.316,1.424c-0.133,0.422-0.264,0.712-0.396,0.87
					c-0.316,0.37-0.93,0.806-1.84,1.306c-0.91,0.502-1.918,1.049-3.025,1.642c-1.107,0.594-2.217,1.207-3.324,1.84
					s-2.018,1.26-2.729,1.88c-0.713,0.619-1.135,1.232-1.268,1.839c-0.131,0.607,0.238,1.161,1.109,1.662
					c0.895,0.105,1.984,0.06,3.264-0.139s2.584-0.461,3.916-0.791s2.617-0.673,3.857-1.028c1.24-0.356,2.256-0.64,3.047-0.851
					l0.475,0.435c-0.58,0.766-1.531,1.464-2.85,2.097s-2.742,1.154-4.271,1.563c-1.531,0.41-3.021,0.673-4.471,0.792
					C155.974,46.181,154.827,46.096,153.981,45.805z M163.438,30.692c-0.027-0.026-0.225,0.086-0.594,0.336
					c-0.369,0.251-0.824,0.581-1.365,0.989c-0.541,0.409-1.121,0.857-1.74,1.345c-0.621,0.489-1.188,0.943-1.701,1.365
					c-0.516,0.422-0.943,0.785-1.287,1.088c-0.342,0.304-0.488,0.455-0.434,0.455c0.42,0.079,0.969,0.02,1.641-0.178
					c0.674-0.198,1.371-0.481,2.098-0.851c0.725-0.369,1.416-0.785,2.076-1.246c0.66-0.462,1.18-0.916,1.563-1.365
					c0.383-0.448,0.58-0.844,0.594-1.187S164.019,30.851,163.438,30.692z"/>
				<path fill="#000433" d="M190.882,45.805c-0.765-0.554-1.26-1.252-1.483-2.097c-0.225-0.844-0.257-1.761-0.099-2.749
					c0.158-0.989,0.441-2.011,0.851-3.066c0.408-1.055,0.856-2.07,1.345-3.046s0.963-1.873,1.425-2.69
					c0.461-0.817,0.823-1.49,1.088-2.018c0.079-0.158,0.27-0.54,0.573-1.147c0.303-0.606,0.626-1.266,0.97-1.979
					c0.342-0.712,0.665-1.378,0.969-1.998c0.303-0.619,0.494-1.009,0.573-1.167c0.08-0.131,0.191-0.389,0.337-0.771
					c0.145-0.382,0.31-0.797,0.494-1.246c0.185-0.448,0.389-0.876,0.613-1.285c0.224-0.409,0.461-0.706,0.712-0.891
					c0.251-0.184,0.501-0.211,0.752-0.079c0.25,0.133,0.494,0.528,0.732,1.187c-0.106,0.265-0.363,0.792-0.771,1.583
					c-0.409,0.791-0.891,1.74-1.444,2.849c-0.554,1.107-1.167,2.334-1.84,3.679c-0.673,1.346-1.325,2.704-1.958,4.075
					c-0.633,1.372-1.227,2.71-1.78,4.016s-1.009,2.492-1.365,3.561c-0.355,1.068-0.567,1.952-0.633,2.65
					c-0.066,0.699,0.06,1.128,0.376,1.286c0.369,0.185,0.851,0.257,1.443,0.218c0.594-0.04,1.207-0.112,1.84-0.218
					s1.253-0.218,1.859-0.336c0.606-0.119,1.134-0.165,1.583-0.139c0.104,0.237,0.025,0.469-0.237,0.692
					c-0.265,0.225-0.633,0.422-1.108,0.593c-0.475,0.172-1.022,0.317-1.642,0.436c-0.62,0.119-1.213,0.205-1.78,0.257
					c-0.567,0.054-1.068,0.066-1.503,0.04C191.337,45.977,191.04,45.911,190.882,45.805z"/>
				<path fill="#000433" d="M204.723,45.805c-0.791-0.263-1.391-0.665-1.8-1.206c-0.409-0.54-0.679-1.141-0.811-1.801
					c-0.133-0.658-0.152-1.351-0.06-2.076c0.092-0.726,0.243-1.418,0.455-2.077c0.791-0.844,1.682-1.813,2.67-2.908
					c0.989-1.094,2.038-2.169,3.146-3.225c1.107-1.054,2.262-2.037,3.462-2.947c1.199-0.909,2.419-1.602,3.659-2.077
					c0.422-0.184,0.758-0.178,1.009,0.021c0.251,0.197,0.429,0.508,0.534,0.93s0.151,0.91,0.139,1.464
					c-0.014,0.554-0.06,1.095-0.139,1.622s-0.185,1.002-0.316,1.424s-0.264,0.712-0.396,0.87c-0.316,0.37-0.93,0.806-1.84,1.306
					c-0.91,0.502-1.919,1.049-3.026,1.642c-1.107,0.594-2.216,1.207-3.323,1.84s-2.018,1.26-2.729,1.88
					c-0.713,0.619-1.135,1.232-1.267,1.839c-0.132,0.607,0.237,1.161,1.108,1.662c0.896,0.105,1.984,0.06,3.264-0.139
					s2.584-0.461,3.916-0.791s2.618-0.673,3.857-1.028c1.24-0.356,2.256-0.64,3.047-0.851l0.475,0.435
					c-0.58,0.766-1.53,1.464-2.849,2.097c-1.319,0.633-2.743,1.154-4.272,1.563c-1.53,0.41-3.021,0.673-4.471,0.792
					C206.714,46.181,205.567,46.096,204.723,45.805z M214.179,30.692c-0.026-0.026-0.225,0.086-0.594,0.336
					c-0.369,0.251-0.824,0.581-1.365,0.989c-0.54,0.409-1.121,0.857-1.74,1.345c-0.62,0.489-1.187,0.943-1.701,1.365
					s-0.943,0.785-1.286,1.088c-0.343,0.304-0.488,0.455-0.435,0.455c0.421,0.079,0.969,0.02,1.642-0.178
					c0.673-0.198,1.371-0.481,2.097-0.851s1.417-0.785,2.077-1.246c0.659-0.462,1.18-0.916,1.563-1.365
					c0.382-0.448,0.58-0.844,0.594-1.187C215.042,31.102,214.759,30.851,214.179,30.692z"/>
				<path fill="#000433" d="M220.582,45.33c-0.633-0.527-0.982-1.306-1.048-2.334c-0.066-1.028,0.079-2.188,0.435-3.481
					c0.356-1.292,0.884-2.644,1.583-4.055c0.698-1.411,1.509-2.756,2.433-4.036c0.923-1.278,1.925-2.426,3.007-3.441
					c1.081-1.016,2.162-1.767,3.244-2.255c1.081-0.488,2.137-0.659,3.165-0.515c1.028,0.146,1.965,0.745,2.809,1.8
					c0.527,0.66,0.844,1.325,0.95,1.998c0.104,0.673,0.092,1.358-0.04,2.058s-0.343,1.411-0.633,2.136
					c-0.291,0.727-0.574,1.458-0.851,2.196c-0.277,0.738-0.502,1.49-0.673,2.255c-0.172,0.766-0.204,1.543-0.099,2.334
					c0.132,1.003,0.58,1.597,1.345,1.78c0.765,0.185,1.682,0.133,2.75-0.158c1.068-0.29,2.195-0.752,3.383-1.385
					c1.187-0.633,2.287-1.266,3.303-1.898c1.016-0.634,2.196-1.425,3.541-2.374c0.738-0.158,1.153-0.112,1.246,0.139
					s-0.053,0.62-0.435,1.107c-0.383,0.488-0.957,1.042-1.722,1.662c-0.765,0.619-1.636,1.22-2.61,1.8
					c-0.977,0.58-2.019,1.107-3.126,1.582s-2.189,0.799-3.244,0.97c-1.055,0.172-2.051,0.158-2.986-0.04
					c-0.937-0.197-1.708-0.665-2.314-1.404c-0.291-0.316-0.509-0.633-0.653-0.949c-0.146-0.316-0.376-0.594-0.692-0.831
					c-0.396,0.37-0.87,0.851-1.424,1.444s-1.154,1.187-1.8,1.78c-0.647,0.594-1.333,1.154-2.058,1.682
					c-0.726,0.527-1.471,0.923-2.235,1.187c-0.766,0.264-1.537,0.356-2.314,0.277C222.039,46.28,221.294,45.938,220.582,45.33z
					 M221.018,43.985c0.237,0.845,0.765,1.233,1.582,1.167c0.817-0.065,1.767-0.468,2.849-1.207
					c1.081-0.737,2.202-1.747,3.363-3.026c1.16-1.278,2.201-2.703,3.125-4.272c0.923-1.569,1.628-3.225,2.116-4.965
					c0.488-1.741,0.613-3.455,0.376-5.144c-0.633-0.501-1.424-0.521-2.373-0.06c-0.95,0.462-1.959,1.214-3.027,2.256
					c-1.067,1.042-2.123,2.281-3.165,3.719s-1.958,2.888-2.749,4.352s-1.392,2.842-1.8,4.134
					C220.905,42.231,220.806,43.247,221.018,43.985z"/>
				<path fill="#000433" d="M247.004,45.805c-0.054-0.025-0.047-0.336,0.02-0.93c0.065-0.593,0.164-1.338,0.297-2.235
					c0.132-0.896,0.303-1.885,0.515-2.967c0.21-1.081,0.435-2.116,0.672-3.105s0.495-1.859,0.771-2.611
					c0.277-0.752,0.547-1.272,0.812-1.563c0.184-0.185,0.369-0.191,0.554-0.02s0.369,0.382,0.554,0.633s0.369,0.475,0.554,0.673
					c0.185,0.197,0.382,0.217,0.594,0.059c0.738-1.028,1.549-2.011,2.433-2.947c0.884-0.936,1.866-1.747,2.947-2.433
					c0.105-0.079,0.396-0.204,0.871-0.376c0.475-0.171,1.015-0.343,1.622-0.515c0.606-0.171,1.232-0.316,1.879-0.435
					c0.646-0.119,1.2-0.172,1.662-0.158c0.461,0.013,0.777,0.132,0.949,0.355c0.171,0.225,0.085,0.601-0.258,1.128
					c-1.582,0.026-3.06,0.488-4.431,1.385s-2.638,2.004-3.798,3.323c-1.161,1.318-2.216,2.749-3.165,4.292s-1.774,2.974-2.473,4.293
					c-0.699,1.318-1.279,2.413-1.74,3.283c-0.462,0.87-0.799,1.306-1.009,1.306c-0.027,0-0.146-0.06-0.356-0.178
					C247.267,45.943,247.108,45.858,247.004,45.805z"/>
				<path fill="#000433" d="M274.599,45.805c-0.079-0.87-0.007-1.733,0.217-2.591c0.225-0.856,0.527-1.701,0.91-2.532
					c0.382-0.831,0.791-1.661,1.227-2.492s0.811-1.648,1.128-2.453c0.316-0.804,0.54-1.596,0.672-2.374
					c0.132-0.777,0.079-1.549-0.158-2.313c-0.659-0.238-1.418-0.185-2.274,0.158c-0.857,0.343-1.761,0.863-2.71,1.563
					c-0.95,0.699-1.933,1.517-2.947,2.453c-1.016,0.936-2.005,1.886-2.968,2.848c-0.963,0.964-1.879,1.88-2.749,2.75
					c-0.871,0.87-1.655,1.589-2.354,2.156s-1.285,0.923-1.761,1.068c-0.475,0.145-0.791-0.021-0.949-0.495
					c-0.026-0.025,0.125-0.362,0.455-1.009c0.329-0.646,0.738-1.457,1.227-2.433c0.487-0.976,1.028-2.031,1.622-3.165
					s1.153-2.196,1.682-3.185c0.527-0.989,0.988-1.826,1.385-2.513c0.396-0.686,0.646-1.055,0.751-1.107
					c0.554,0.369,0.837,0.771,0.851,1.206c0.014,0.436-0.059,0.885-0.218,1.346c-0.158,0.462-0.336,0.93-0.533,1.404
					c-0.198,0.475-0.231,0.949-0.1,1.424c0.422-0.29,1.009-0.692,1.761-1.206c0.752-0.515,1.569-1.049,2.453-1.603
					c0.883-0.554,1.806-1.094,2.77-1.622c0.962-0.527,1.865-0.942,2.71-1.246c0.844-0.303,1.602-0.468,2.274-0.494
					s1.167,0.171,1.483,0.593c0.316,0.423,0.416,1.114,0.297,2.077c-0.118,0.963-0.534,2.274-1.246,3.937
					c-0.079,0.185-0.271,0.627-0.573,1.325c-0.304,0.699-0.634,1.451-0.989,2.255c-0.356,0.805-0.687,1.557-0.989,2.255
					c-0.304,0.699-0.494,1.142-0.573,1.326c-0.027,0.105-0.06,0.296-0.1,0.573c-0.039,0.277-0.086,0.58-0.138,0.91
					c-0.054,0.33-0.133,0.646-0.238,0.949c-0.105,0.304-0.237,0.534-0.396,0.692s-0.343,0.139-0.554-0.06
					C274.743,45.983,274.624,45.858,274.599,45.805z"/>
				<path fill="#000433" d="M285.076,45.805c-0.791-0.263-1.391-0.665-1.8-1.206c-0.409-0.54-0.679-1.141-0.811-1.801
					c-0.133-0.658-0.152-1.351-0.06-2.076c0.092-0.726,0.243-1.418,0.455-2.077c0.791-0.844,1.682-1.813,2.67-2.908
					c0.989-1.094,2.038-2.169,3.146-3.225c1.107-1.054,2.262-2.037,3.462-2.947c1.199-0.909,2.419-1.602,3.659-2.077
					c0.422-0.184,0.758-0.178,1.009,0.021c0.251,0.197,0.429,0.508,0.534,0.93s0.151,0.91,0.139,1.464
					c-0.014,0.554-0.06,1.095-0.139,1.622s-0.185,1.002-0.316,1.424s-0.264,0.712-0.396,0.87c-0.316,0.37-0.93,0.806-1.84,1.306
					c-0.91,0.502-1.919,1.049-3.026,1.642c-1.107,0.594-2.216,1.207-3.323,1.84s-2.018,1.26-2.729,1.88
					c-0.713,0.619-1.135,1.232-1.267,1.839c-0.132,0.607,0.237,1.161,1.108,1.662c0.896,0.105,1.984,0.06,3.264-0.139
					s2.584-0.461,3.916-0.791s2.618-0.673,3.857-1.028c1.24-0.356,2.256-0.64,3.047-0.851l0.475,0.435
					c-0.58,0.766-1.53,1.464-2.849,2.097c-1.319,0.633-2.743,1.154-4.272,1.563c-1.53,0.41-3.021,0.673-4.471,0.792
					C287.067,46.181,285.921,46.096,285.076,45.805z M294.532,30.692c-0.026-0.026-0.225,0.086-0.594,0.336
					c-0.369,0.251-0.824,0.581-1.365,0.989c-0.54,0.409-1.121,0.857-1.74,1.345c-0.62,0.489-1.187,0.943-1.701,1.365
					s-0.943,0.785-1.286,1.088c-0.343,0.304-0.488,0.455-0.435,0.455c0.421,0.079,0.969,0.02,1.642-0.178
					c0.673-0.198,1.371-0.481,2.097-0.851s1.417-0.785,2.077-1.246c0.659-0.462,1.18-0.916,1.563-1.365
					c0.382-0.448,0.58-0.844,0.594-1.187C295.396,31.102,295.112,30.851,294.532,30.692z"/>
				<path fill="#000433" d="M315.692,45.33c-1.003-0.686-1.728-1.536-2.176-2.552c-0.449-1.015-0.778-2.103-0.989-3.264h-0.436
					c-2.136,1.741-3.989,3.046-5.558,3.917c-1.57,0.87-2.896,1.404-3.977,1.602c-1.082,0.198-1.926,0.113-2.532-0.257
					c-0.606-0.369-0.995-0.903-1.167-1.603c-0.172-0.698-0.138-1.522,0.1-2.473c0.237-0.949,0.646-1.905,1.226-2.868
					c0.58-0.962,1.332-1.879,2.256-2.749c0.923-0.871,1.984-1.583,3.185-2.137c1.199-0.554,2.532-0.903,3.995-1.048
					c1.464-0.146,3.04,0.02,4.729,0.494l0.435-0.475l5.341-10.722c0.713,0.105,1.134,0.422,1.267,0.949
					c0.132,0.528,0.125,1.108-0.021,1.741c-0.145,0.633-0.355,1.246-0.633,1.84c-0.276,0.593-0.481,1.022-0.613,1.285
					c-0.079,0.158-0.23,0.462-0.455,0.91c-0.224,0.449-0.488,0.983-0.791,1.603c-0.304,0.62-0.627,1.272-0.969,1.958
					c-0.344,0.687-0.667,1.339-0.97,1.958c-0.304,0.62-0.573,1.161-0.811,1.622c-0.237,0.462-0.383,0.759-0.436,0.891
					c-0.475,0.976-0.692,2.012-0.652,3.105c0.039,1.095,0.099,2.144,0.178,3.146c0.104,0.475,0.316,0.864,0.633,1.167
					c0.316,0.304,0.652,0.58,1.009,0.831s0.712,0.494,1.068,0.731s0.652,0.528,0.89,0.87c-0.105,0.344-0.316,0.521-0.633,0.534
					s-0.646-0.046-0.989-0.178s-0.659-0.29-0.949-0.475S315.771,45.384,315.692,45.33z M300.936,43.55
					c0.105,0.449,0.508,0.581,1.207,0.396c0.698-0.184,1.522-0.573,2.473-1.167c0.949-0.593,1.958-1.312,3.026-2.156
					c1.068-0.844,2.03-1.688,2.888-2.531s1.529-1.622,2.018-2.335c0.488-0.712,0.64-1.239,0.455-1.582
					c-0.817-0.448-1.728-0.673-2.729-0.673c-1.003,0-1.998,0.179-2.987,0.534c-0.989,0.356-1.938,0.857-2.849,1.504
					c-0.909,0.646-1.675,1.391-2.294,2.235c-0.62,0.844-1.056,1.76-1.306,2.749C300.586,41.513,300.619,42.521,300.936,43.55z"/>
			</g>
		</g>
	</g>
</g>
<g id="home">
</g>
<g id="new_with_add">
</g>
<g id="new_with_more">
</g>
<g id="new_with_less">
</g>
<g id="new_sub">
</g>
<g id="new_description">
</g>
<g id="new_desc_w_milestone">
</g>
</svg>
